<?xml version="1.0" encoding="UTF-8" standalone="no"?><!-- Generator: Gravit.io --><svg xmlns="http://www.w3.org/2000/svg" xmlns:xlink="http://www.w3.org/1999/xlink" style="isolation:isolate" viewBox="0 0 750 800" width="750pt" height="800pt"><defs><clipPath id="_clipPath_t2JNkYkzZh7fmiobduqkahPxWzy2KPnY"><rect width="750" height="800"/></clipPath></defs><g clip-path="url(#_clipPath_t2JNkYkzZh7fmiobduqkahPxWzy2KPnY)"><g><mask id="_mask_BlcfRwFOT12Qi95Pi605JFfUW3n7GaC7" x="-200%" y="-200%" width="400%" height="400%"><rect x="-200%" y="-200%" width="400%" height="400%" style="fill:white;"/><path d=" M 84.047 536.499 C 107.471 464.955 292.989 382.574 383.128 385.028 C 473.267 387.482 574.89 408.287 663.748 488.434 C 700.514 521.595 754.649 558.019 729.853 606.286 C 717.456 630.42 627.844 692.96 569.214 740.64 C 510.583 788.321 360.424 785.467 310.454 773.181 C 240.785 756.053 60.624 608.043 84.047 536.499 Z " fill="black" stroke="none"/></mask><path d=" M 84.047 536.499 C 107.471 464.955 292.989 382.574 383.128 385.028 C 473.267 387.482 574.89 408.287 663.748 488.434 C 700.514 521.595 754.649 558.019 729.853 606.286 C 717.456 630.42 627.844 692.96 569.214 740.64 C 510.583 788.321 360.424 785.467 310.454 773.181 C 240.785 756.053 60.624 608.043 84.047 536.499 Z " fill="rgb(216,138,32)"/><path d=" M 84.047 536.499 C 107.471 464.955 292.989 382.574 383.128 385.028 C 473.267 387.482 574.89 408.287 663.748 488.434 C 700.514 521.595 754.649 558.019 729.853 606.286 C 717.456 630.42 627.844 692.96 569.214 740.64 C 510.583 788.321 360.424 785.467 310.454 773.181 C 240.785 756.053 60.624 608.043 84.047 536.499 Z " fill="rgb(216,138,32)" mask="url(#_mask_BlcfRwFOT12Qi95Pi605JFfUW3n7GaC7)" vector-effect="non-scaling-stroke" stroke-width="10.847" stroke="rgb(216,138,32)" stroke-linejoin="round" stroke-linecap="round" stroke-miterlimit="4"/></g><g><g><path d=" M 250.131 439.999 C 249.287 439.979 248.428 440.016 247.553 440.112 C 219.558 443.18 215.723 468.682 215.723 468.682 C 215.723 468.682 214.669 461.78 212.463 461.684 C 210.258 461.588 194.055 469.928 194.055 469.928 L 233.077 653.047 L 249.376 651.993 L 249.28 649.979 C 249.28 649.979 274.11 679.892 288.108 669.442 C 302.106 658.992 302.681 617.382 293.477 589.387 C 284.273 561.392 264.715 558.421 264.715 558.421 C 264.715 558.421 279.863 561.105 283.794 527.837 C 287.602 495.608 276.294 440.615 250.131 439.999 L 250.131 439.999 Z  M 242.184 473.188 C 242.963 473.212 243.767 473.386 244.577 473.715 C 245.386 474.045 246.203 474.529 247.003 475.174 C 247.802 475.82 248.587 476.627 249.336 477.6 C 250.086 478.574 250.8 479.714 251.46 481.026 C 252.119 482.338 252.722 483.823 253.251 485.485 C 253.779 487.147 254.232 488.988 254.588 491.012 C 254.945 493.036 255.206 495.243 255.35 497.639 C 255.495 500.036 255.522 502.623 255.415 505.403 C 255.307 508.183 254.971 510.74 254.463 513.087 C 253.956 515.433 253.278 517.568 252.489 519.504 C 251.7 521.441 250.8 523.181 249.848 524.733 C 248.896 526.285 247.891 527.65 246.893 528.842 C 245.895 530.035 244.906 531.053 243.981 531.911 C 243.056 532.768 242.196 533.466 241.462 534.012 C 239.992 535.106 239.02 535.602 239.02 535.602 L 228.762 483.159 C 228.762 483.159 230.559 480.619 233.135 478.102 C 234.424 476.844 235.907 475.59 237.458 474.665 C 238.233 474.202 239.026 473.821 239.819 473.561 C 240.612 473.302 241.405 473.164 242.184 473.188 L 242.184 473.188 Z  M 252.645 580.493 C 253.061 580.487 253.498 580.49 253.954 580.506 C 255.775 580.572 257.89 580.839 260.137 581.491 C 261.261 581.817 262.417 582.239 263.586 582.78 C 264.756 583.321 265.937 583.983 267.112 584.786 C 268.286 585.589 269.435 586.748 270.538 588.184 C 271.641 589.621 272.699 591.334 273.69 593.245 C 274.681 595.156 275.604 597.263 276.442 599.489 C 277.28 601.715 278.032 604.06 278.676 606.442 C 279.32 608.824 279.857 611.243 280.266 613.622 C 280.676 616 280.958 618.337 281.092 620.553 C 281.226 622.77 281.212 624.866 281.03 626.76 C 280.848 628.655 280.499 630.35 279.96 631.764 C 279.69 632.471 279.359 633.081 278.977 633.602 C 278.595 634.123 278.159 634.555 277.68 634.905 C 277.201 635.255 276.678 635.524 276.118 635.717 C 275.558 635.911 274.962 636.029 274.336 636.081 C 273.086 636.183 271.722 636.017 270.307 635.639 C 268.892 635.262 267.426 634.672 265.973 633.932 C 264.52 633.192 263.08 632.301 261.715 631.315 C 260.351 630.33 259.063 629.251 257.915 628.137 C 256.766 627.024 255.759 625.875 254.954 624.751 C 254.148 623.626 253.545 622.523 253.21 621.505 L 247.84 581.047 C 247.84 581.047 248.457 580.878 249.53 580.727 C 250.334 580.614 251.396 580.51 252.645 580.493 L 252.645 580.493 Z " fill="rgb(244,242,243)" vector-effect="non-scaling-stroke" stroke-width="1" stroke="rgb(216,138,32)" stroke-opacity="0.980392" stroke-linejoin="round" stroke-linecap="round" stroke-miterlimit="4"/><mask id="_mask_bqJZeiW2NinuiFTMUxCxFOUBMHNUxNfa" x="-200%" y="-200%" width="400%" height="400%"><rect x="-200%" y="-200%" width="400%" height="400%" style="fill:white;"/><path d=" M 264.523 431.675 C 264.523 431.675 307.283 405.693 326.745 404.351 L 332.402 445.672 C 332.402 445.672 312.939 444.138 308.721 444.81 L 319.842 522.468 L 341.606 511.921 L 344.674 557.557 C 344.674 557.557 339.784 561.009 322.527 561.201 L 321.951 601.276 C 321.951 601.276 331.347 602.522 347.262 597.441 L 336.716 703.861 C 336.716 703.861 297.599 689.097 295.586 683.632 C 295.586 683.632 310.83 635.791 303.639 604.152 C 296.449 572.514 279.287 558.42 279.287 558.42 C 279.287 558.42 293.573 532.726 288.971 504.731 C 284.369 476.736 271.905 437.715 264.523 431.675 L 264.523 431.675 Z " fill="black" stroke="none"/></mask><path d=" M 264.523 431.675 C 264.523 431.675 307.283 405.693 326.745 404.351 L 332.402 445.672 C 332.402 445.672 312.939 444.138 308.721 444.81 L 319.842 522.468 L 341.606 511.921 L 344.674 557.557 C 344.674 557.557 339.784 561.009 322.527 561.201 L 321.951 601.276 C 321.951 601.276 331.347 602.522 347.262 597.441 L 336.716 703.861 C 336.716 703.861 297.599 689.097 295.586 683.632 C 295.586 683.632 310.83 635.791 303.639 604.152 C 296.449 572.514 279.287 558.42 279.287 558.42 C 279.287 558.42 293.573 532.726 288.971 504.731 C 284.369 476.736 271.905 437.715 264.523 431.675 L 264.523 431.675 Z " fill="rgb(244,242,243)"/><path d=" M 264.523 431.675 C 264.523 431.675 307.283 405.693 326.745 404.351 L 332.402 445.672 C 332.402 445.672 312.939 444.138 308.721 444.81 L 319.842 522.468 L 341.606 511.921 L 344.674 557.557 C 344.674 557.557 339.784 561.009 322.527 561.201 L 321.951 601.276 C 321.951 601.276 331.347 602.522 347.262 597.441 L 336.716 703.861 C 336.716 703.861 297.599 689.097 295.586 683.632 C 295.586 683.632 310.83 635.791 303.639 604.152 C 296.449 572.514 279.287 558.42 279.287 558.42 C 279.287 558.42 293.573 532.726 288.971 504.731 C 284.369 476.736 271.905 437.715 264.523 431.675 L 264.523 431.675 Z " fill="rgb(244,242,243)" mask="url(#_mask_bqJZeiW2NinuiFTMUxCxFOUBMHNUxNfa)" vector-effect="non-scaling-stroke" stroke-width="2" stroke="rgb(216,138,32)" stroke-opacity="0.980392" stroke-linejoin="round" stroke-linecap="round" stroke-miterlimit="4"/><mask id="_mask_n4isV9BqWoKILpkeNq5uwhfZPWlTdJrz" x="-200%" y="-200%" width="400%" height="400%"><rect x="-200%" y="-200%" width="400%" height="400%" style="fill:white;"/><path d=" M 387.399 423.589 C 385.161 435.278 374.936 443.731 363.034 443.731 C 353.308 443.732 344.288 441.74 340.26 432.887 C 344.451 477.916 352.034 523.476 355.315 568.774 C 358.479 615.369 345.825 705.586 345.825 705.586 C 345.825 705.586 361.74 712.874 373.149 713.833 C 384.558 714.791 403.829 709.805 403.829 709.805 C 398.46 700.697 390.406 598.783 387.53 572.801 C 385.521 522.146 386.62 466.753 387.399 423.589 Z " fill="black" stroke="none"/></mask><path d=" M 387.399 423.589 C 385.161 435.278 374.936 443.731 363.034 443.731 C 353.308 443.732 344.288 441.74 340.26 432.887 C 344.451 477.916 352.034 523.476 355.315 568.774 C 358.479 615.369 345.825 705.586 345.825 705.586 C 345.825 705.586 361.74 712.874 373.149 713.833 C 384.558 714.791 403.829 709.805 403.829 709.805 C 398.46 700.697 390.406 598.783 387.53 572.801 C 385.521 522.146 386.62 466.753 387.399 423.589 Z " fill="rgb(244,242,243)"/><path d=" M 387.399 423.589 C 385.161 435.278 374.936 443.731 363.034 443.731 C 353.308 443.732 344.288 441.74 340.26 432.887 C 344.451 477.916 352.034 523.476 355.315 568.774 C 358.479 615.369 345.825 705.586 345.825 705.586 C 345.825 705.586 361.74 712.874 373.149 713.833 C 384.558 714.791 403.829 709.805 403.829 709.805 C 398.46 700.697 390.406 598.783 387.53 572.801 C 385.521 522.146 386.62 466.753 387.399 423.589 Z " fill="rgb(244,242,243)" mask="url(#_mask_n4isV9BqWoKILpkeNq5uwhfZPWlTdJrz)" vector-effect="non-scaling-stroke" stroke-width="2" stroke="rgb(216,138,32)" stroke-opacity="0.980392" stroke-linejoin="round" stroke-linecap="round" stroke-miterlimit="4"/><circle vector-effect="non-scaling-stroke" cx="362.6430700000001" cy="415.14341000000036" r="18.62854600000003" fill="rgb(244,242,243)" stroke-width="1.167" stroke="rgb(216,138,32)" stroke-opacity="0.980392" stroke-linejoin="round" stroke-linecap="round" stroke-miterlimit="4"/><mask id="_mask_ZaliGHGdrtM0BbU6SswSxYxSOiFAFvZD" x="-200%" y="-200%" width="400%" height="400%"><rect x="-200%" y="-200%" width="400%" height="400%" style="fill:white;"/><path d=" M 482.5 474.852 C 482.5 474.852 481.347 412.346 453.756 400.008 C 426.164 387.67 406.029 406.719 399.114 447.395 C 392.199 488.071 390.843 564.813 398.979 610.235 C 407.114 655.656 419.045 705.687 439.519 711.789 C 459.992 717.89 473.144 686.841 473.144 686.841 C 473.144 686.841 462.704 679.79 467.314 665.283 C 471.924 650.775 483.72 649.283 483.72 649.283 C 483.72 649.283 490.635 542.848 485.889 519.663 C 485.889 519.663 448.061 526.985 430.706 549.627 C 430.706 549.627 426.638 576.202 433.689 578.779 C 440.739 581.355 470.433 565.355 470.433 565.355 C 470.433 565.355 470.433 644.131 451.993 651.317 C 433.553 658.503 420.944 593.964 420.401 589.49 C 419.859 585.015 410.232 498.511 418.368 470.038 C 426.503 441.565 437.35 444.955 441.553 448.616 C 445.756 452.276 453.484 465.971 456.06 486.851 C 458.637 507.731 482.5 474.852 482.5 474.852 L 482.5 474.852 Z " fill="black" stroke="none"/></mask><path d=" M 482.5 474.852 C 482.5 474.852 481.347 412.346 453.756 400.008 C 426.164 387.67 406.029 406.719 399.114 447.395 C 392.199 488.071 390.843 564.813 398.979 610.235 C 407.114 655.656 419.045 705.687 439.519 711.789 C 459.992 717.89 473.144 686.841 473.144 686.841 C 473.144 686.841 462.704 679.79 467.314 665.283 C 471.924 650.775 483.72 649.283 483.72 649.283 C 483.72 649.283 490.635 542.848 485.889 519.663 C 485.889 519.663 448.061 526.985 430.706 549.627 C 430.706 549.627 426.638 576.202 433.689 578.779 C 440.739 581.355 470.433 565.355 470.433 565.355 C 470.433 565.355 470.433 644.131 451.993 651.317 C 433.553 658.503 420.944 593.964 420.401 589.49 C 419.859 585.015 410.232 498.511 418.368 470.038 C 426.503 441.565 437.35 444.955 441.553 448.616 C 445.756 452.276 453.484 465.971 456.06 486.851 C 458.637 507.731 482.5 474.852 482.5 474.852 L 482.5 474.852 Z " fill="rgb(244,242,243)"/><path d=" M 482.5 474.852 C 482.5 474.852 481.347 412.346 453.756 400.008 C 426.164 387.67 406.029 406.719 399.114 447.395 C 392.199 488.071 390.843 564.813 398.979 610.235 C 407.114 655.656 419.045 705.687 439.519 711.789 C 459.992 717.89 473.144 686.841 473.144 686.841 C 473.144 686.841 462.704 679.79 467.314 665.283 C 471.924 650.775 483.72 649.283 483.72 649.283 C 483.72 649.283 490.635 542.848 485.889 519.663 C 485.889 519.663 448.061 526.985 430.706 549.627 C 430.706 549.627 426.638 576.202 433.689 578.779 C 440.739 581.355 470.433 565.355 470.433 565.355 C 470.433 565.355 470.433 644.131 451.993 651.317 C 433.553 658.503 420.944 593.964 420.401 589.49 C 419.859 585.015 410.232 498.511 418.368 470.038 C 426.503 441.565 437.35 444.955 441.553 448.616 C 445.756 452.276 453.484 465.971 456.06 486.851 C 458.637 507.731 482.5 474.852 482.5 474.852 L 482.5 474.852 Z " fill="rgb(244,242,243)" mask="url(#_mask_ZaliGHGdrtM0BbU6SswSxYxSOiFAFvZD)" vector-effect="non-scaling-stroke" stroke-width="2" stroke="rgb(216,138,32)" stroke-opacity="0.980392" stroke-linejoin="round" stroke-linecap="round" stroke-miterlimit="4"/><mask id="_mask_vGdVhpjIdlNcVIGZ5ojYINRZgP1lkL2I" x="-200%" y="-200%" width="400%" height="400%"><rect x="-200%" y="-200%" width="400%" height="400%" style="fill:white;"/><path d=" M 471.111 400.618 C 471.111 400.618 504.329 409.567 516.125 421.363 L 541.48 552.339 C 541.48 552.339 536.192 439.125 531.853 426.38 C 531.853 426.38 544.463 430.04 552.191 438.853 C 552.191 438.853 567.512 659.995 565.75 665.418 C 563.987 670.842 551.378 679.79 547.581 679.248 L 521.684 540.95 C 521.684 540.95 530.362 684.671 528.599 691.044 C 526.837 697.417 489.144 707.314 486.703 706.772 L 487.788 691.722 C 487.788 691.722 502.295 688.197 505.007 678.028 C 507.719 667.859 505.55 656.605 492.94 648.605 C 492.94 648.605 509.075 449.972 471.111 400.618 Z " fill="black" stroke="none"/></mask><path d=" M 471.111 400.618 C 471.111 400.618 504.329 409.567 516.125 421.363 L 541.48 552.339 C 541.48 552.339 536.192 439.125 531.853 426.38 C 531.853 426.38 544.463 430.04 552.191 438.853 C 552.191 438.853 567.512 659.995 565.75 665.418 C 563.987 670.842 551.378 679.79 547.581 679.248 L 521.684 540.95 C 521.684 540.95 530.362 684.671 528.599 691.044 C 526.837 697.417 489.144 707.314 486.703 706.772 L 487.788 691.722 C 487.788 691.722 502.295 688.197 505.007 678.028 C 507.719 667.859 505.55 656.605 492.94 648.605 C 492.94 648.605 509.075 449.972 471.111 400.618 Z " fill="rgb(244,242,243)"/><path d=" M 471.111 400.618 C 471.111 400.618 504.329 409.567 516.125 421.363 L 541.48 552.339 C 541.48 552.339 536.192 439.125 531.853 426.38 C 531.853 426.38 544.463 430.04 552.191 438.853 C 552.191 438.853 567.512 659.995 565.75 665.418 C 563.987 670.842 551.378 679.79 547.581 679.248 L 521.684 540.95 C 521.684 540.95 530.362 684.671 528.599 691.044 C 526.837 697.417 489.144 707.314 486.703 706.772 L 487.788 691.722 C 487.788 691.722 502.295 688.197 505.007 678.028 C 507.719 667.859 505.55 656.605 492.94 648.605 C 492.94 648.605 509.075 449.972 471.111 400.618 Z " fill="rgb(244,242,243)" mask="url(#_mask_vGdVhpjIdlNcVIGZ5ojYINRZgP1lkL2I)" vector-effect="non-scaling-stroke" stroke-width="2" stroke="rgb(216,138,32)" stroke-opacity="0.980392" stroke-linejoin="round" stroke-linecap="round" stroke-miterlimit="4"/><mask id="_mask_f4v17N4zfqfXDoFDi600n509xZF5RqHS" x="-200%" y="-200%" width="400%" height="400%"><rect x="-200%" y="-200%" width="400%" height="400%" style="fill:white;"/><path d=" M 562.691 442.988 C 562.691 442.988 598.931 457.465 603.342 467.532 L 599.507 487.09 C 599.507 487.09 587.139 482.105 585.03 482.009 L 585.988 520.55 L 600.561 520.262 L 597.493 550.367 L 583.304 549.696 L 582.441 587.278 C 582.441 587.278 594.617 585.84 599.123 578.937 L 594.713 642.118 C 594.713 642.118 580.14 658.704 572.95 660.526 L 562.691 442.988 Z " fill="black" stroke="none"/></mask><path d=" M 562.691 442.988 C 562.691 442.988 598.931 457.465 603.342 467.532 L 599.507 487.09 C 599.507 487.09 587.139 482.105 585.03 482.009 L 585.988 520.55 L 600.561 520.262 L 597.493 550.367 L 583.304 549.696 L 582.441 587.278 C 582.441 587.278 594.617 585.84 599.123 578.937 L 594.713 642.118 C 594.713 642.118 580.14 658.704 572.95 660.526 L 562.691 442.988 Z " fill="rgb(244,242,243)"/><path d=" M 562.691 442.988 C 562.691 442.988 598.931 457.465 603.342 467.532 L 599.507 487.09 C 599.507 487.09 587.139 482.105 585.03 482.009 L 585.988 520.55 L 600.561 520.262 L 597.493 550.367 L 583.304 549.696 L 582.441 587.278 C 582.441 587.278 594.617 585.84 599.123 578.937 L 594.713 642.118 C 594.713 642.118 580.14 658.704 572.95 660.526 L 562.691 442.988 Z " fill="rgb(244,242,243)" mask="url(#_mask_f4v17N4zfqfXDoFDi600n509xZF5RqHS)" vector-effect="non-scaling-stroke" stroke-width="2" stroke="rgb(216,138,32)" stroke-opacity="0.980392" stroke-linejoin="round" stroke-linecap="round" stroke-miterlimit="4"/><mask id="_mask_Bolei294bYU97H3F1OsKYvjjSMK1bVyn" x="-200%" y="-200%" width="400%" height="400%"><rect x="-200%" y="-200%" width="400%" height="400%" style="fill:white;"/><path d=" M 609.476 472.14 C 609.476 472.14 631.916 483.665 648.864 505.359 L 644.254 526.713 L 633.272 518.578 C 633.272 518.578 625.001 614.844 622.493 620.2 C 619.984 625.556 598.697 639.386 598.697 639.386 L 617.476 510.104 L 605.748 504.003 L 609.476 472.14 Z " fill="black" stroke="none"/></mask><path d=" M 609.476 472.14 C 609.476 472.14 631.916 483.665 648.864 505.359 L 644.254 526.713 L 633.272 518.578 C 633.272 518.578 625.001 614.844 622.493 620.2 C 619.984 625.556 598.697 639.386 598.697 639.386 L 617.476 510.104 L 605.748 504.003 L 609.476 472.14 Z " fill="rgb(244,242,243)"/><path d=" M 609.476 472.14 C 609.476 472.14 631.916 483.665 648.864 505.359 L 644.254 526.713 L 633.272 518.578 C 633.272 518.578 625.001 614.844 622.493 620.2 C 619.984 625.556 598.697 639.386 598.697 639.386 L 617.476 510.104 L 605.748 504.003 L 609.476 472.14 Z " fill="rgb(244,242,243)" mask="url(#_mask_Bolei294bYU97H3F1OsKYvjjSMK1bVyn)" vector-effect="non-scaling-stroke" stroke-width="2" stroke="rgb(216,138,32)" stroke-opacity="0.980392" stroke-linejoin="round" stroke-linecap="round" stroke-miterlimit="4"/><mask id="_mask_GVM5bbhKaYRnRbuwFyceifvUHrxSeO7l" x="-200%" y="-200%" width="400%" height="400%"><rect x="-200%" y="-200%" width="400%" height="400%" style="fill:white;"/><path d=" M 651.837 508.697 C 651.837 508.697 698.64 534.164 702.284 556.119 C 705.927 578.074 629.698 617.043 629.698 617.043 L 651.837 508.697 Z " fill="black" stroke="none"/></mask><path d=" M 651.837 508.697 C 651.837 508.697 698.64 534.164 702.284 556.119 C 705.927 578.074 629.698 617.043 629.698 617.043 L 651.837 508.697 Z " fill="rgb(244,242,243)"/><path d=" M 651.837 508.697 C 651.837 508.697 698.64 534.164 702.284 556.119 C 705.927 578.074 629.698 617.043 629.698 617.043 L 651.837 508.697 Z " fill="rgb(244,242,243)" mask="url(#_mask_GVM5bbhKaYRnRbuwFyceifvUHrxSeO7l)" vector-effect="non-scaling-stroke" stroke-width="2" stroke="rgb(216,138,32)" stroke-opacity="0.980392" stroke-linejoin="round" stroke-linecap="round" stroke-miterlimit="4"/><mask id="_mask_DAIlmb2iRqTEFUwt5VjLXh81lhYXR3YV" x="-200%" y="-200%" width="400%" height="400%"><rect x="-200%" y="-200%" width="400%" height="400%" style="fill:white;"/><path d=" M 186.786 473.292 L 226.377 645.351 C 226.377 645.351 125.365 562.101 123.467 529.29 C 121.569 496.478 186.786 473.292 186.786 473.292 Z " fill="black" stroke="none"/></mask><path d=" M 186.786 473.292 L 226.377 645.351 C 226.377 645.351 125.365 562.101 123.467 529.29 C 121.569 496.478 186.786 473.292 186.786 473.292 Z " fill="rgb(244,242,243)"/><path d=" M 186.786 473.292 L 226.377 645.351 C 226.377 645.351 125.365 562.101 123.467 529.29 C 121.569 496.478 186.786 473.292 186.786 473.292 Z " fill="rgb(244,242,243)" mask="url(#_mask_DAIlmb2iRqTEFUwt5VjLXh81lhYXR3YV)" vector-effect="non-scaling-stroke" stroke-width="2" stroke="rgb(216,138,32)" stroke-opacity="0.980392" stroke-linejoin="round" stroke-linecap="round" stroke-miterlimit="4"/><circle vector-effect="non-scaling-stroke" cx="486.5689499999994" cy="670.859169999999" r="14.68453199999999" fill="rgb(244,242,243)" stroke-width="0.92" stroke="rgb(216,138,32)" stroke-opacity="0.980392" stroke-linejoin="round" stroke-linecap="round" stroke-miterlimit="4"/></g></g><g style="opacity:0.3;" filter="url(#71c11zTlWl5i9JT6C1v1ivnusZNb1WTE)"><path d=" M 52.27 246.513 C 82.56 176.226 261.418 97.794 349.402 100.189 C 439.542 102.643 541.164 123.449 630.023 203.595 C 666.788 236.756 720.923 273.18 696.128 321.448 C 694.629 324.366 692.001 327.846 688.314 331.853" fill="none"/><g clip-path="url(#_clipPath_pr4TtmcCyMkwY4CoDSnfQPOpox35LVzS)"><text transform="matrix(0.787,-0.617,0.617,0.787,121.753,300.944)" style="font-family:'Akronim';font-weight:400;font-size:210px;font-style:normal;letter-spacing:-1;fill:#656256;stroke:none;">F</text><text transform="matrix(0.911,-0.413,0.413,0.911,179.97,253.758)" style="font-family:'Akronim';font-weight:400;font-size:200px;font-style:normal;letter-spacing:-1;fill:#656256;stroke:none;">R</text><text transform="matrix(0.987,-0.161,0.161,0.987,280.833,207.792)" style="font-family:'Akronim';font-weight:400;font-size:200px;font-style:normal;letter-spacing:-1;fill:#656256;stroke:none;">E</text><text transform="matrix(0.982,0.186,-0.186,0.982,372.295,197.154)" style="font-family:'Akronim';font-weight:400;font-size:200px;font-style:normal;letter-spacing:-9;fill:#656256;stroke:none;">S</text><text transform="matrix(0.906,0.423,-0.423,0.906,439.032,204.224)" style="font-family:'Akronim';font-weight:400;font-size:200px;font-style:normal;letter-spacing:-9;fill:#656256;stroke:none;">H</text></g><defs><clipPath id="_clipPath_pr4TtmcCyMkwY4CoDSnfQPOpox35LVzS"><rect x="0" y="0" width="561.195" height="242.356" transform="matrix(1,0,0,1,52.289,100.149)"/></clipPath></defs></g><defs><filter id="71c11zTlWl5i9JT6C1v1ivnusZNb1WTE" x="-200%" y="-200%" width="400%" height="400%" filterUnits="objectBoundingBox" color-interpolation-filters="sRGB"><feGaussianBlur xmlns="http://www.w3.org/2000/svg" stdDeviation="3.04846243461571"/></filter></defs><g><path d=" M 73.812 385.378 C 104.102 315.091 282.96 236.659 370.945 239.054 C 461.084 241.508 562.707 262.314 651.565 342.461 C 688.331 375.622 742.466 412.045 717.671 460.313 C 716.172 463.231 713.544 466.711 709.857 470.718" fill="none"/><g clip-path="url(#_clipPath_HKuEM16x8nKT5eoke83mE44onGDmpaMG)"><text transform="matrix(0.845,-0.535,0.535,0.845,158.811,411.691)" style="font-family:'Akronim';font-weight:400;font-size:190px;font-style:normal;font-variant-ligatures:none;letter-spacing:1;fill:#290903;stroke:none;">F</text><text transform="matrix(0.927,-0.375,0.375,0.927,216.674,373.013)" style="font-family:'Akronim';font-weight:400;font-size:180px;font-style:normal;font-variant-ligatures:none;letter-spacing:1;fill:#290903;stroke:none;">R</text><text transform="matrix(0.991,-0.131,0.131,0.991,310.616,334.112)" style="font-family:'Akronim';font-weight:400;font-size:180px;font-style:normal;font-variant-ligatures:none;letter-spacing:1;fill:#290903;stroke:none;">E</text><text transform="matrix(0.983,0.186,-0.186,0.983,395.086,326.167)" style="font-family:'Akronim';font-weight:400;font-size:180px;font-style:normal;font-variant-ligatures:none;letter-spacing:1;fill:#290903;stroke:none;">S</text><text transform="matrix(0.92,0.392,-0.392,0.92,463.485,335.602)" style="font-family:'Akronim';font-weight:400;font-size:180px;font-style:normal;font-variant-ligatures:none;letter-spacing:1;fill:#290903;stroke:none;">H</text></g><defs><clipPath id="_clipPath_HKuEM16x8nKT5eoke83mE44onGDmpaMG"><rect x="0" y="0" width="502.718" height="211.068" transform="matrix(1,0,0,1,73.87,238.505)"/></clipPath></defs></g></g></svg>