<?xml version="1.0" encoding="UTF-8" standalone="no"?><!-- Generator: Gravit.io --><svg xmlns="http://www.w3.org/2000/svg" xmlns:xlink="http://www.w3.org/1999/xlink" style="isolation:isolate" viewBox="0 0 800 900" width="800pt" height="900pt"><defs><clipPath id="_clipPath_w6mM2lmNmPCJrOZaXY2s2KO8c9yjejDS"><rect width="800" height="900"/></clipPath></defs><g clip-path="url(#_clipPath_w6mM2lmNmPCJrOZaXY2s2KO8c9yjejDS)"><g><path d=" M 104.047 626 C 114.126 595.217 138.863 578.007 206.918 538 C 256.25 509 359.645 460.602 411 462 C 501.139 464.454 594.89 488.287 683.748 568.434 C 720.514 601.595 774.649 638.019 749.853 686.286 C 737.456 710.42 654.63 759.319 596 807 C 537.37 854.681 466.25 905 330.454 853.181 C 260.785 836.053 80.624 697.544 104.047 626 Z " fill="rgb(216,138,32)"/></g><g><linearGradient id="_lgradient_5" x1="0.6278849957937176" y1="0.16687869664258836" x2="0.449789215869538" y2="0.9664517062349348" gradientTransform="matrix(653.724,0,0,323.85,101.962,551.22)" gradientUnits="userSpaceOnUse"><stop offset="2.083333333333337%" stop-opacity="1" style="stop-color:rgb(216,138,32)"/><stop offset="100%" stop-opacity="1" style="stop-color:rgb(174,85,13)"/></linearGradient><path d=" M 104.047 626 C 233 450 715.979 640.01 717 639 C 750 606.333 764.805 657.181 749.853 686.286 C 737.456 710.42 654.63 759.319 596 807 C 537.37 854.681 466.25 905 330.454 853.181 C 260.785 836.053 80.624 697.544 104.047 626 Z " fill="url(#_lgradient_5)"/></g><g><g><path d=" M 266.274 530.15 C 265.429 530.151 264.571 530.21 263.699 530.328 C 235.79 534.103 232.601 559.694 232.601 559.694 C 232.601 559.694 231.373 552.821 229.166 552.781 C 226.959 552.741 210.972 561.488 210.972 561.488 L 254.609 743.562 L 270.876 742.096 L 270.73 740.085 C 270.73 740.085 296.308 769.361 310.037 758.56 C 323.766 747.759 323.29 706.149 313.381 678.395 C 303.473 650.642 283.846 648.165 283.846 648.165 C 283.846 648.165 299.056 650.466 302.145 617.109 C 305.137 584.794 292.443 530.105 266.274 530.15 L 266.274 530.15 Z  M 259.168 563.53 C 259.947 563.534 260.755 563.688 261.573 563.996 C 262.391 564.305 263.219 564.768 264.035 565.394 C 264.851 566.019 265.655 566.806 266.429 567.76 C 267.203 568.714 267.946 569.835 268.638 571.131 C 269.33 572.426 269.971 573.894 270.541 575.543 C 271.111 577.192 271.611 579.021 272.019 581.035 C 272.426 583.049 272.742 585.248 272.948 587.64 C 273.153 590.032 273.246 592.618 273.208 595.4 C 273.171 598.182 272.899 600.747 272.452 603.105 C 272.004 605.463 271.379 607.615 270.64 609.571 C 269.9 611.527 269.045 613.289 268.132 614.864 C 267.22 616.44 266.249 617.83 265.282 619.047 C 264.315 620.264 263.352 621.308 262.448 622.188 C 261.545 623.069 260.703 623.788 259.983 624.353 C 258.541 625.483 257.582 626.004 257.582 626.004 L 246.002 573.837 C 246.002 573.837 247.734 571.252 250.246 568.671 C 251.502 567.38 252.953 566.09 254.48 565.125 C 255.243 564.643 256.026 564.242 256.813 563.962 C 257.599 563.683 258.388 563.525 259.168 563.53 L 259.168 563.53 Z  M 272.338 670.536 C 272.754 670.519 273.19 670.511 273.646 670.516 C 275.469 670.536 277.59 670.749 279.853 671.344 C 280.984 671.641 282.151 672.034 283.333 672.546 C 284.516 673.057 285.714 673.689 286.908 674.462 C 288.103 675.235 289.28 676.364 290.419 677.772 C 291.558 679.181 292.659 680.867 293.698 682.752 C 294.737 684.637 295.713 686.72 296.607 688.924 C 297.501 691.128 298.312 693.454 299.016 695.819 C 299.72 698.184 300.318 700.588 300.787 702.956 C 301.257 705.324 301.598 707.652 301.788 709.864 C 301.978 712.077 302.017 714.172 301.883 716.071 C 301.748 717.97 301.443 719.673 300.939 721.1 C 300.687 721.814 300.373 722.432 300.004 722.963 C 299.635 723.493 299.21 723.936 298.74 724.298 C 298.27 724.66 297.753 724.942 297.199 725.149 C 296.644 725.357 296.051 725.491 295.427 725.558 C 294.18 725.692 292.812 725.56 291.388 725.218 C 289.964 724.877 288.483 724.324 287.012 723.621 C 285.541 722.918 284.078 722.063 282.69 721.113 C 281.301 720.162 279.986 719.116 278.81 718.032 C 277.634 716.947 276.598 715.825 275.764 714.721 C 274.93 713.617 274.3 712.53 273.938 711.52 L 267.548 671.212 C 267.548 671.212 268.161 671.027 269.229 670.849 C 270.031 670.715 271.089 670.585 272.338 670.536 L 272.338 670.536 Z " fill="rgb(244,242,243)"/><path d=" M 280.45 521.465 C 280.45 521.465 322.539 494.411 341.962 492.577 L 348.661 533.743 C 348.661 533.743 329.166 532.701 324.966 533.479 L 338.046 610.831 L 359.536 599.738 L 363.757 645.282 C 363.757 645.282 358.956 648.856 341.709 649.483 L 342.147 689.56 C 342.147 689.56 351.571 690.569 367.353 685.087 L 359.5 791.74 C 359.5 791.74 320.023 777.969 317.872 772.556 C 317.872 772.556 331.902 724.345 323.914 692.899 C 315.926 661.452 298.413 647.797 298.413 647.797 C 298.413 647.797 312.045 621.75 306.737 593.88 C 301.429 566.01 287.983 527.317 280.45 521.465 L 280.45 521.465 Z " fill="rgb(244,242,243)"/><path d=" M 403.083 510.276 C 401.141 522.018 391.133 530.727 379.234 531.028 C 369.512 531.274 360.444 529.511 356.194 520.763 C 361.521 565.672 370.253 611.025 374.678 656.226 C 379.019 702.726 368.649 793.234 368.649 793.234 C 368.649 793.234 380.096 799.699 396.173 800.787 C 412.25 801.875 426.741 800.787 426.741 800.787 C 421.144 791.818 410.517 685.338 406.985 659.437 C 403.696 608.849 403.395 553.446 403.083 510.276 Z " fill="rgb(244,242,243)"/><path d=" M 359.498 502.93 C 359.239 492.652 367.372 484.096 377.65 483.836 C 387.928 483.576 396.484 491.71 396.744 501.988 C 397.003 512.266 388.87 520.822 378.592 521.081 C 368.314 521.341 359.758 513.208 359.498 502.93 Z " fill="rgb(244,242,243)"/><path d=" M 499.449 559.119 C 499.449 559.119 496.717 496.662 468.822 485.025 C 440.927 473.388 421.28 492.941 415.396 533.779 C 409.511 574.616 410.095 651.368 419.376 696.569 C 428.657 741.771 441.849 791.484 462.47 797.066 C 483.092 802.648 495.454 771.276 495.454 771.276 C 495.454 771.276 484.839 764.492 489.081 749.872 C 493.323 735.253 505.077 733.464 505.077 733.464 C 505.077 733.464 509.3 626.888 503.97 603.83 C 503.97 603.83 466.338 612.105 449.561 635.18 C 449.561 635.18 446.167 661.849 453.28 664.246 C 460.393 666.643 489.673 649.898 489.673 649.898 C 489.673 649.898 491.664 728.649 473.412 736.299 C 455.16 743.949 440.923 679.749 440.268 675.29 C 439.612 670.831 427.802 584.597 435.215 555.928 C 442.628 527.258 453.557 530.373 457.852 533.926 C 462.146 537.479 470.218 550.974 473.321 571.782 C 476.424 592.591 499.449 559.119 499.449 559.119 L 499.449 559.119 Z " fill="rgb(244,242,243)"/><path d=" M 486.187 485.197 C 486.187 485.197 519.621 493.303 531.711 504.797 L 560.368 635.091 C 560.368 635.091 552.221 522.046 547.561 509.414 C 547.561 509.414 560.259 512.755 568.208 521.37 C 568.208 521.37 589.114 742.054 587.489 747.52 C 585.864 752.986 573.485 762.251 569.676 761.805 L 540.291 624.205 C 540.291 624.205 552.599 767.662 550.998 774.077 C 549.397 780.492 511.966 791.339 509.512 790.859 L 510.216 775.786 C 510.216 775.786 524.63 771.895 527.084 761.661 C 529.538 751.427 527.085 740.231 514.277 732.553 C 514.277 732.553 525.386 533.575 486.187 485.197 Z " fill="rgb(244,242,243)"/><path d=" M 578.809 525.238 C 578.809 525.238 615.404 538.794 620.067 548.747 L 616.727 568.396 C 616.727 568.396 604.238 563.724 602.127 563.682 L 604.059 602.187 L 618.62 601.531 L 616.314 631.703 L 602.112 631.391 L 602.2 668.983 C 602.2 668.983 614.335 667.238 618.666 660.223 L 615.854 723.495 C 615.854 723.495 601.705 740.445 594.563 742.447 L 578.809 525.238 Z " fill="rgb(244,242,243)"/><path d=" M 626.316 553.198 C 626.316 553.198 649.04 564.152 666.531 585.411 L 662.462 606.875 L 651.278 599.02 C 651.278 599.02 645.443 695.465 643.071 700.882 C 640.698 706.299 619.768 720.663 619.768 720.663 L 635.273 590.948 L 623.394 585.145 L 626.316 553.198 Z " fill="rgb(244,242,243)"/><path d=" M 669.588 588.673 C 669.588 588.673 717.019 612.949 721.216 634.805 C 725.413 656.661 650.194 697.544 650.194 697.544 L 669.588 588.673 Z " fill="rgb(244,242,243)"/><path d=" M 203.79 565.034 L 247.717 736.038 C 247.717 736.038 144.634 655.367 141.907 622.614 C 139.18 589.861 203.79 565.034 203.79 565.034 Z " fill="rgb(244,242,243)"/><path d=" M 493.791 755.332 C 493.586 747.23 499.998 740.486 508.1 740.281 C 516.202 740.076 522.946 746.487 523.151 754.589 C 523.355 762.691 516.944 769.436 508.842 769.64 C 500.74 769.845 493.996 763.434 493.791 755.332 Z " fill="rgb(244,242,243)"/></g></g><g style="opacity:0.2;" filter="url(#HdqauYMgx83cGHJP8NhUzVT7VtKqUrNT)"><path d=" M 82.782 396.524 C 113.072 326.237 291.93 247.805 379.915 250.2 C 470.054 252.655 571.677 273.46 660.535 353.607 C 697.3 386.768 751.436 423.192 726.64 471.459 C 725.141 474.377 722.513 477.857 718.826 481.864" fill="none"/><g clip-path="url(#_clipPath_kHuV4nbDh6VUVOHBfdxmO5sOa82dADaw)"><text transform="matrix(0.871,-0.491,0.491,0.871,167.461,415.999)" style="font-family:'Akronim';font-weight:400;font-size:210px;font-style:normal;font-variant-ligatures:none;letter-spacing:5;fill:#656256;stroke:none;">F</text><text transform="matrix(0.956,-0.295,0.295,0.956,237.135,374.731)" style="font-family:'Akronim';font-weight:400;font-size:200px;font-style:normal;font-variant-ligatures:none;letter-spacing:5;fill:#656256;stroke:none;">R</text><text transform="matrix(0.993,0.115,-0.115,0.993,349.586,342.813)" style="font-family:'Akronim';font-weight:400;font-size:200px;font-style:normal;font-variant-ligatures:none;letter-spacing:5;fill:#656256;stroke:none;">E</text><text transform="matrix(0.935,0.355,-0.355,0.935,447,354.752)" style="font-family:'Akronim';font-weight:400;font-size:200px;font-style:normal;font-variant-ligatures:none;letter-spacing:5;fill:#656256;stroke:none;">S</text><text transform="matrix(0.76,0.65,-0.65,0.76,523.718,381.367)" style="font-family:'Akronim';font-weight:400;font-size:200px;font-style:normal;font-variant-ligatures:none;letter-spacing:5;fill:#656256;stroke:none;">H</text></g><defs><clipPath id="_clipPath_kHuV4nbDh6VUVOHBfdxmO5sOa82dADaw"><rect x="0" y="0" width="583.032" height="239.079" transform="matrix(1,0,0,1,61.129,247.058)"/></clipPath></defs></g><defs><filter id="HdqauYMgx83cGHJP8NhUzVT7VtKqUrNT" x="-200%" y="-200%" width="400%" height="400%" filterUnits="objectBoundingBox" color-interpolation-filters="sRGB"><feGaussianBlur xmlns="http://www.w3.org/2000/svg" stdDeviation="3.04846243461571"/></filter></defs><g style="opacity:0.2;" filter="url(#BOG7yMDikdEdMrDv88uBZdsxqxjRe2Zn)"><path d=" M 82.486 214.652 C 115.099 138.975 307.673 54.528 402.406 57.107 C 499.458 59.749 608.874 82.15 704.547 168.443 C 744.132 204.147 802.419 243.365 775.722 295.334 C 774.108 298.476 771.278 302.222 767.308 306.537" fill="none"/><g clip-path="url(#_clipPath_7VaZB4q1riHAzTtcT145p4bJdHckk445)"><text transform="matrix(0.791,-0.731,0.731,0.791,153.06,288.69)" style="font-family:'Akronim';font-weight:400;font-size:220px;font-style:normal;font-variant-ligatures:none;letter-spacing:22;fill:#656256;stroke:none;">F</text><text transform="matrix(0.998,-0.403,0.403,0.998,236.535,218.155)" style="font-family:'Akronim';font-weight:400;font-size:210px;font-style:normal;font-variant-ligatures:none;letter-spacing:22;fill:#656256;stroke:none;">R</text><text transform="matrix(1.073,0.094,-0.094,1.073,377.676,165.181)" style="font-family:'Akronim';font-weight:400;font-size:210px;font-style:normal;font-variant-ligatures:none;letter-spacing:22;fill:#656256;stroke:none;">E</text><text transform="matrix(0.983,0.439,-0.439,0.983,506.222,179.079)" style="font-family:'Akronim';font-weight:400;font-size:210px;font-style:normal;font-variant-ligatures:none;letter-spacing:22;fill:#656256;stroke:none;">S</text><text transform="matrix(0.816,0.703,-0.703,0.816,602.922,227.655)" style="font-family:'Akronim';font-weight:400;font-size:210px;font-style:normal;font-variant-ligatures:none;letter-spacing:22;fill:#656256;stroke:none;">H</text></g><defs><clipPath id="_clipPath_7VaZB4q1riHAzTtcT145p4bJdHckk445"><rect x="0" y="0" width="667.876" height="270.486" transform="matrix(1.077,0,0,1.077,82.488,57.049)"/></clipPath></defs></g><defs><filter id="BOG7yMDikdEdMrDv88uBZdsxqxjRe2Zn" x="-200%" y="-200%" width="400%" height="400%" filterUnits="objectBoundingBox" color-interpolation-filters="sRGB"><feGaussianBlur xmlns="http://www.w3.org/2000/svg" stdDeviation="6.440413594258542"/></filter></defs><g><path d=" M 93.812 465.378 C 124.102 395.091 302.96 316.659 390.945 319.054 C 481.084 321.508 582.707 342.314 671.565 422.461 C 708.331 455.622 762.466 492.045 737.671 540.313 C 736.172 543.231 733.544 546.711 729.857 550.718" fill="none"/><defs><filter id="h50A9uYxIO5wmW5odBJabeuuSFFCsnCH" x="-200%" y="-200%" width="400%" height="400%" filterUnits="objectBoundingBox" color-interpolation-filters="sRGB"><feGaussianBlur xmlns="http://www.w3.org/2000/svg" stdDeviation="0.8587218125678057"/></filter></defs><g filter="url(#h50A9uYxIO5wmW5odBJabeuuSFFCsnCH)"><g clip-path="url(#_clipPath_NFnKZHYgiTA26ZQM38syDYDOuACawl3G)"><text transform="matrix(0.893,-0.451,0.451,0.893,213.646,467.835)" style="font-family:'Akronim';font-weight:400;font-size:190px;font-style:normal;fill:#656256;stroke:none;">F</text><text transform="matrix(0.955,-0.295,0.295,0.955,274.044,435.366)" style="font-family:'Akronim';font-weight:400;font-size:180px;font-style:normal;fill:#656256;stroke:none;">R</text><text transform="matrix(0.997,0.077,-0.077,0.997,370.539,405.787)" style="font-family:'Akronim';font-weight:400;font-size:180px;font-style:normal;fill:#656256;stroke:none;">E</text><text transform="matrix(0.964,0.267,-0.267,0.964,454.086,411.965)" style="font-family:'Akronim';font-weight:400;font-size:180px;font-style:normal;fill:#656256;stroke:none;">S</text><text transform="matrix(0.857,0.516,-0.516,0.857,520.773,426.969)" style="font-family:'Akronim';font-weight:400;font-size:180px;font-style:normal;fill:#656256;stroke:none;">H</text></g><defs><clipPath id="_clipPath_NFnKZHYgiTA26ZQM38syDYDOuACawl3G"><rect x="0" y="0" width="503.742" height="192.415" transform="matrix(1,0,0,1,93.765,318.838)"/></clipPath></defs></g></g></g></svg>