<?xml version="1.0" encoding="UTF-8" standalone="no"?><!-- Generator: Gravit.io --><svg xmlns="http://www.w3.org/2000/svg" xmlns:xlink="http://www.w3.org/1999/xlink" style="isolation:isolate" viewBox="0 0 660 670" width="660pt" height="670pt"><defs><clipPath id="_clipPath_ix4NTZQdfgq3vOroyxGoXagNxCZrCG8m"><rect width="660" height="670"/></clipPath></defs><g clip-path="url(#_clipPath_ix4NTZQdfgq3vOroyxGoXagNxCZrCG8m)"><g><path d=" M 5.047 417 C 15.126 386.217 39.863 369.007 107.918 329 C 157.25 300 260.645 251.602 312 253 C 402.139 255.454 495.89 279.287 584.748 359.434 C 621.514 392.595 675.649 429.019 650.853 477.286 C 638.456 501.42 555.63 550.319 497 598 C 438.37 645.681 367.25 696 231.454 644.181 C 161.785 627.053 -18.376 488.544 5.047 417 Z " fill="rgb(216,138,32)"/></g><defs><filter id="5oxGPpm9yjxZEQ0YC9cjBRfnuAc9x91l" x="-200%" y="-200%" width="400%" height="400%" filterUnits="objectBoundingBox" color-interpolation-filters="sRGB"><feOffset xmlns="http://www.w3.org/2000/svg" in="SourceGraphic" dx="0" dy="0"/><feGaussianBlur xmlns="http://www.w3.org/2000/svg" stdDeviation="2.146804531419514" result="pf_100_offsetBlur"/><feComposite xmlns="http://www.w3.org/2000/svg" in="SourceGraphic" in2="pf_100_offsetBlur" result="pf_100_inverse" operator="out"/><feFlood xmlns="http://www.w3.org/2000/svg" flood-color="#000000" flood-opacity="0.5" result="pf_100_color"/><feComposite xmlns="http://www.w3.org/2000/svg" in="pf_100_color" in2="pf_100_inverse" operator="in" result="pf_100_shadow"/><feComposite xmlns="http://www.w3.org/2000/svg" in="pf_100_shadow" in2="SourceGraphic" operator="over"/></filter></defs><g filter="url(#5oxGPpm9yjxZEQ0YC9cjBRfnuAc9x91l)"><path d=" M 142.075 267.077 L 142.075 267.077 L 142.075 267.077 Q 139.68 262.401 137.262 257.256 L 137.262 257.256 L 137.262 257.256 Q 134.844 252.111 133.078 246.84 L 133.078 246.84 L 133.078 246.84 Q 132.243 247.069 129.333 248.107 L 129.333 248.107 L 129.333 248.107 Q 126.423 249.145 123.759 250.406 L 123.759 250.406 L 123.759 250.406 Q 121.278 251.563 121.102 252.747 L 121.102 252.747 L 121.102 252.747 Q 120.926 253.931 121.98 256.229 L 121.98 256.229 L 121.98 256.229 Q 126.324 266.073 133.126 274.291 L 133.126 274.291 L 133.126 274.291 Q 139.928 282.508 147.893 287.659 L 147.893 287.659 L 147.893 287.659 Q 148.569 288.002 148.592 288.471 L 148.592 288.471 L 148.592 288.471 Q 148.615 288.94 147.757 288.7 L 147.757 288.7 L 147.757 288.7 Q 137.597 284.787 131.226 278.616 L 131.226 278.616 L 131.226 278.616 Q 124.855 272.445 119.746 264.238 L 119.746 264.238 L 119.746 264.238 Q 117.501 260.683 117.486 256.594 L 117.486 256.594 L 117.486 256.594 Q 117.47 252.505 120.201 248.796 L 120.201 248.796 L 120.201 248.796 Q 124.793 242.833 131.035 239.796 L 131.035 239.796 L 131.035 239.796 Q 137.278 236.759 144.275 233.779 L 144.275 233.779 L 144.275 233.779 Q 148.322 231.979 152.775 229.831 L 152.775 229.831 L 152.775 229.831 Q 157.228 227.682 160.301 223.299 L 160.301 223.299 L 160.301 223.299 Q 160.644 222.623 160.93 222.703 L 160.93 222.703 L 160.93 222.703 Q 161.216 222.783 161.239 223.252 L 161.239 223.252 L 161.239 223.252 Q 161.262 223.721 161.285 224.19 L 161.285 224.19 L 161.285 224.19 Q 161.289 228.044 158.81 231.129 L 158.81 231.129 L 158.81 231.129 Q 156.331 234.214 152.879 236.642 L 152.879 236.642 L 152.879 236.642 Q 149.427 239.07 145.757 240.898 L 145.757 240.898 L 145.757 240.898 Q 142.087 242.725 139.709 244.066 L 139.709 244.066 L 139.709 244.066 Q 141.156 250.481 142.008 256.268 L 142.008 256.268 L 142.008 256.268 Q 142.86 262.055 143.848 266.8 L 143.848 266.8 L 143.848 266.8 Q 144.457 269.591 143.988 269.614 L 143.988 269.614 L 143.988 269.614 Q 143.519 269.637 143.055 268.814 L 143.055 268.814 L 143.055 268.814 Q 142.591 267.991 142.075 267.077 L 142.075 267.077 L 142.075 267.077 L 142.075 267.077 L 142.075 267.077 Z  M 74.541 187.04 L 74.541 187.04 L 74.541 187.04 Q 74.897 188.527 74.261 188.041 L 74.261 188.041 L 74.261 188.041 Q 73.626 187.555 73.5 186.904 L 73.5 186.904 L 73.5 186.904 Q 70.702 179.803 71.051 173.581 L 71.051 173.581 L 71.051 173.581 Q 71.4 167.358 73.826 162.255 L 73.826 162.255 L 73.826 162.255 Q 76.252 157.151 80.234 153.099 L 80.234 153.099 L 80.234 153.099 Q 84.216 149.046 88.869 146.182 L 88.869 146.182 L 88.869 146.182 Q 95.168 142.39 101.747 139.525 L 101.747 139.525 L 101.747 139.525 Q 108.327 136.659 114.581 133.857 L 114.581 133.857 L 114.581 133.857 Q 120.835 131.055 126.179 127.921 L 126.179 127.921 L 126.179 127.921 Q 131.524 124.788 135.351 120.461 L 135.351 120.461 L 135.351 120.461 Q 135.797 119.969 136.003 120.335 L 136.003 120.335 L 135.867 121.376 L 135.867 121.376 Q 133.483 128.263 128.431 132.557 L 128.431 132.557 L 128.431 132.557 Q 123.38 136.851 117.097 140.031 L 117.097 140.031 L 117.097 140.031 Q 110.815 143.211 103.949 145.997 L 103.949 145.997 L 103.949 145.997 Q 97.084 148.782 91.071 152.654 L 91.071 152.654 L 91.071 152.654 Q 87.15 155.105 83.665 158.757 L 83.665 158.757 L 83.665 158.757 Q 80.18 162.409 77.81 166.758 L 77.81 166.758 L 77.81 166.758 Q 75.441 171.106 74.474 176.231 L 74.474 176.231 L 74.474 176.231 Q 73.506 181.356 74.541 187.04 L 74.541 187.04 L 74.541 187.04 L 74.541 187.04 L 74.541 187.04 Z  M 123.643 149.719 L 123.643 149.719 L 123.643 149.719 Q 117.584 152.652 110.289 155.318 L 110.289 155.318 L 110.289 155.318 Q 102.994 157.984 96.316 159.821 L 96.316 159.821 L 96.316 159.821 Q 95.95 160.027 94.738 160.228 L 94.738 160.228 L 94.738 160.228 Q 93.526 160.429 93.216 159.881 L 93.216 159.881 L 93.216 159.881 Q 93.01 159.515 93.679 158.776 L 93.679 158.776 L 93.679 158.776 Q 94.347 158.038 94.713 157.832 L 94.713 157.832 L 94.713 157.832 Q 95.787 156.744 97.553 155.387 L 97.553 155.387 L 97.553 155.387 Q 99.319 154.03 101.319 152.662 L 101.319 152.662 L 101.319 152.662 Q 103.32 151.293 105.332 150.159 L 105.332 150.159 L 105.332 150.159 Q 107.344 149.024 108.807 148.2 L 108.807 148.2 L 108.807 148.2 Q 111.654 146.836 115.952 144.413 L 115.952 144.413 L 115.952 144.413 Q 120.25 141.99 124.382 139.058 L 124.382 139.058 L 124.382 139.058 Q 128.515 136.126 131.8 133.189 L 131.8 133.189 L 131.8 133.189 Q 135.086 130.252 136.273 127.655 L 136.273 127.655 L 136.273 127.655 Q 136.672 126.225 137.084 126.956 L 137.084 126.956 L 137.084 126.956 Q 137.291 127.322 137.223 127.842 L 137.223 127.842 L 137.223 127.842 Q 137.154 128.363 137.178 128.832 L 137.178 128.832 L 137.178 128.832 Q 137.158 132.218 135.863 135.479 L 135.863 135.479 L 135.863 135.479 Q 134.568 138.739 132.597 141.658 L 132.597 141.658 L 132.597 141.658 Q 130.627 144.576 128.284 146.62 L 128.284 146.62 L 128.284 146.62 Q 125.941 148.664 123.643 149.719 L 123.643 149.719 L 123.643 149.719 L 123.643 149.719 L 123.643 149.719 Z  M 151.761 227.39 L 151.761 227.39 L 151.761 227.39 Q 146.799 229.705 141.047 231.26 L 141.047 231.26 L 141.047 231.26 Q 135.295 232.815 129.612 233.85 L 129.612 233.85 L 129.612 233.85 Q 129.429 233.953 128.582 233.948 L 128.582 233.948 L 128.582 233.948 Q 127.736 233.943 127.427 233.394 L 127.427 233.394 L 127.427 233.394 Q 127.22 233.028 127.929 232.147 L 127.929 232.147 L 127.929 232.147 Q 128.637 231.266 129.448 230.567 L 129.448 230.567 L 129.448 230.567 Q 130.705 229.377 133.294 227.556 L 133.294 227.556 L 133.294 227.556 Q 135.883 225.735 138.468 224.76 L 138.468 224.76 L 138.468 224.76 Q 141.6 223.476 145.127 221.608 L 145.127 221.608 L 145.127 221.608 Q 148.654 219.741 151.506 217.531 L 151.506 217.531 L 151.506 217.531 Q 154.357 215.32 156.299 212.779 L 156.299 212.779 L 156.299 212.779 Q 158.242 210.238 158.594 207.87 L 158.594 207.87 L 158.594 207.87 Q 158.467 207.219 159.016 206.909 L 159.016 206.909 L 159.199 206.806 L 159.199 206.806 Q 159.588 207.069 159.806 207.669 L 159.806 207.669 L 159.806 207.669 Q 160.024 208.269 160.047 208.738 L 160.047 208.738 L 160.047 208.738 Q 161.025 215.177 158.182 220.395 L 158.182 220.395 L 158.182 220.395 Q 155.339 225.614 151.761 227.39 L 151.761 227.39 L 151.761 227.39 L 151.761 227.39 L 151.761 227.39 Z  M 111.983 206.427 L 111.983 206.427 L 111.983 206.427 Q 111.651 205.409 110.955 201.824 L 110.955 201.824 L 110.955 201.824 Q 110.26 198.239 109.169 193.31 L 109.169 193.31 L 109.169 193.31 Q 108.078 188.381 106.483 182.773 L 106.483 182.773 L 106.483 182.773 Q 104.888 177.164 102.652 171.916 L 102.652 171.916 L 98.445 174.287 L 98.445 174.287 Q 103.478 186.636 106.116 200.936 L 106.116 200.936 L 106.116 200.936 Q 108.755 215.237 112.371 229.348 L 112.371 229.348 L 112.371 229.348 Q 113.421 227.791 114.484 226.469 L 114.484 226.469 L 114.484 226.469 Q 115.546 225.147 116.803 223.956 L 116.803 223.956 L 116.803 223.956 Q 115.45 219.417 114.136 214.734 L 114.136 214.734 L 114.136 214.734 Q 112.822 210.052 111.983 206.427 L 111.983 206.427 L 111.983 206.427 L 111.983 206.427 L 111.983 206.427 Z  M 114.254 187.792 L 114.254 187.792 L 114.254 187.792 Q 116.572 196.609 118.495 204.082 L 118.495 204.082 L 118.495 204.082 Q 120.418 211.554 121.799 220.418 L 121.799 220.418 L 122.347 220.108 L 122.347 220.108 Q 122.896 219.799 123.536 219.438 L 123.536 219.438 L 123.536 219.438 Q 124.176 219.077 125.297 218.927 L 125.297 218.927 L 125.297 218.927 Q 124.379 215.588 123.798 212.421 L 123.798 212.421 L 123.798 212.421 Q 123.218 209.253 122.38 205.628 L 122.38 205.628 L 122.38 205.628 Q 120.244 196.708 117.691 187.904 L 117.691 187.904 L 117.691 187.904 Q 115.138 179.099 109.786 167.895 L 109.786 167.895 L 106.128 169.957 L 106.128 169.957 Q 108.499 174.164 110.957 179.166 L 110.957 179.166 L 110.957 179.166 Q 113.415 184.167 114.254 187.792 L 114.254 187.792 L 114.254 187.792 L 114.254 187.792 L 114.254 187.792 Z  M 143.18 274.167 L 143.18 274.167 L 143.18 274.167 Q 145.481 276.967 148.097 279.47 L 148.097 279.47 L 148.097 279.47 Q 150.713 281.972 153.564 284.463 L 153.564 284.463 L 153.564 284.463 Q 153.953 284.726 154.405 285.314 L 154.405 285.314 L 154.405 285.314 Q 154.857 285.903 154.492 286.109 L 154.492 286.109 L 154.492 286.109 Q 154.126 286.315 153.371 286.259 L 153.371 286.259 L 153.371 286.259 Q 152.616 286.202 152.044 286.043 L 152.044 286.043 L 152.044 286.043 Q 148.302 284.536 145.59 282.932 L 145.59 282.932 L 145.59 282.932 Q 142.878 281.327 138.973 276.539 L 138.973 276.539 L 138.973 276.539 Q 137.473 274.733 135.629 271.675 L 135.629 271.675 L 135.629 271.675 Q 133.784 268.617 132.317 265.587 L 132.317 265.587 L 132.317 265.587 Q 130.851 262.558 130.174 260.288 L 130.174 260.288 L 130.174 260.288 Q 129.497 258.018 130.228 257.606 L 130.228 257.606 L 130.228 257.606 Q 130.411 257.502 131.201 258.262 L 131.201 258.262 L 131.201 258.262 Q 131.991 259.022 132.844 260.108 L 132.844 260.108 L 132.844 260.108 Q 133.697 261.194 134.459 262.331 L 134.459 262.331 L 134.459 262.331 Q 135.221 263.469 135.427 263.834 L 135.427 263.834 L 135.427 263.834 Q 137.546 266.738 139.367 269.327 L 139.367 269.327 L 139.367 269.327 Q 141.188 271.916 143.18 274.167 L 143.18 274.167 L 143.18 274.167 L 143.18 274.167 L 143.18 274.167 Z  M 79.968 180.847 L 79.968 180.847 L 79.968 180.847 Q 79.536 183.501 79.326 185.909 L 79.326 185.909 L 79.326 185.909 Q 79.117 188.317 79.337 190.844 L 79.337 190.844 L 79.337 190.844 Q 79.36 191.313 78.943 191.428 L 78.943 191.428 L 78.943 191.428 Q 78.525 191.543 77.883 189.976 L 77.883 189.976 L 77.883 189.976 Q 76.496 186.661 75.911 184.339 L 75.911 184.339 L 75.911 184.339 Q 75.325 182.018 76.443 178.014 L 76.443 178.014 L 76.443 178.014 Q 76.738 176.401 77.818 174.467 L 77.818 174.467 L 77.818 174.467 Q 78.897 172.533 79.947 170.976 L 79.947 170.976 L 79.947 170.976 Q 80.998 169.42 82.084 168.567 L 82.084 168.567 L 82.084 168.567 Q 83.17 167.713 83.765 168.342 L 83.765 168.342 L 83.765 168.342 Q 84.257 168.788 83.607 170.841 L 83.607 170.841 L 83.607 170.841 Q 82.957 172.895 82.432 173.673 L 82.432 173.673 L 82.432 173.673 Q 80.743 177.518 79.968 180.847 L 79.968 180.847 L 79.968 180.847 L 79.968 180.847 L 79.968 180.847 Z  M 115.349 259.003 L 115.349 259.003 L 115.349 259.003 Q 115.396 259.941 114.824 259.782 L 114.824 259.782 L 114.824 259.782 Q 114.538 259.702 113.793 257.953 L 113.793 257.953 L 113.793 257.953 Q 113.081 254.979 112.809 252.36 L 112.809 252.36 L 112.809 252.36 Q 112.538 249.741 113.416 246.595 L 113.416 246.595 L 113.416 246.595 Q 113.735 245.451 114.877 243.843 L 114.877 243.843 L 114.877 243.843 Q 116.02 242.235 117.134 241.004 L 117.134 241.004 L 117.134 241.004 Q 118.248 239.774 119.111 239.167 L 119.111 239.167 L 119.111 239.167 Q 119.974 238.56 119.917 239.315 L 119.917 239.315 L 119.917 239.315 Q 119.645 241.397 118.835 244.022 L 118.835 244.022 L 118.835 244.022 Q 118.025 246.648 117.319 249.457 L 117.319 249.457 L 117.319 249.457 Q 116.612 252.265 115.986 254.788 L 115.986 254.788 L 115.986 254.788 Q 115.359 257.311 115.349 259.003 L 115.349 259.003 L 115.349 259.003 L 115.349 259.003 L 115.349 259.003 Z  M 202.11 189.85 L 202.11 189.85 L 202.11 189.85 Q 203.654 196.666 204.336 204.682 L 204.336 204.682 L 204.336 204.682 Q 205.018 212.698 204.588 220.032 L 204.588 220.032 L 204.588 220.032 Q 204.763 220.392 204.709 221.42 L 204.709 221.42 L 204.709 221.42 Q 204.654 222.449 203.934 222.8 L 203.934 222.8 L 203.934 222.8 Q 203.575 222.975 202.958 221.94 L 202.958 221.94 L 202.958 221.94 Q 202.342 220.905 202.346 220.458 L 202.346 220.458 L 202.346 220.458 Q 200.943 217.58 199.338 212.463 L 199.338 212.463 L 199.338 212.463 Q 197.732 207.347 197.32 203.763 L 197.32 203.763 L 197.32 203.763 Q 197.154 202.509 195.945 197.977 L 195.945 197.977 L 195.945 197.977 Q 194.737 193.446 192.866 188.014 L 192.866 188.014 L 192.866 188.014 Q 190.996 182.581 188.761 177.772 L 188.761 177.772 L 188.761 177.772 Q 186.526 172.962 184.127 171.238 L 184.127 171.238 L 183.776 170.519 L 183.776 170.519 Q 184.232 169.628 185.57 170.089 L 185.57 170.089 L 185.57 170.089 Q 188.873 170.927 191.625 173.146 L 191.625 173.146 L 191.625 173.146 Q 194.378 175.366 196.542 178.206 L 196.542 178.206 L 196.542 178.206 Q 198.707 181.046 200.108 184.147 L 200.108 184.147 L 200.108 184.147 Q 201.51 187.249 202.11 189.85 L 202.11 189.85 L 202.11 189.85 L 202.11 189.85 L 202.11 189.85 Z  M 208.773 185.709 L 208.773 185.709 L 208.773 185.709 Q 209.524 182.226 210.796 180.27 L 210.796 180.27 L 210.796 180.27 Q 212.068 178.314 213.515 176.717 L 213.515 176.717 L 213.515 176.717 Q 213.695 176.63 214.327 176.099 L 214.327 176.099 L 214.327 176.099 Q 214.958 175.568 215.581 175.932 L 215.581 175.932 L 215.581 175.932 Q 216.204 176.296 216.016 177.279 L 216.016 177.279 L 216.016 177.279 Q 215.827 178.261 215.643 178.797 L 215.643 178.797 L 215.643 178.797 Q 214.998 180.669 214.215 182.944 L 214.215 182.944 L 214.215 182.944 Q 213.432 185.218 212.875 187.271 L 212.875 187.271 L 212.875 187.271 Q 212.041 190.126 212.234 193.26 L 212.234 193.26 L 212.234 193.26 Q 212.427 196.394 213.203 199.355 L 213.203 199.355 L 213.203 199.355 Q 214.682 194.627 216.066 190.39 L 216.066 190.39 L 216.066 190.39 Q 217.45 186.152 219.459 182.056 L 219.459 182.056 L 219.459 182.056 Q 222.104 176.981 222.793 170.634 L 222.793 170.634 L 222.793 170.634 Q 223.481 164.287 220.179 154.321 L 220.179 154.321 L 220.179 154.321 Q 220.1 153.246 220.552 152.803 L 220.552 152.803 L 220.552 152.803 Q 221.003 152.36 221.705 153.799 L 221.705 153.799 L 221.705 153.799 Q 227.333 163.967 227.618 171.397 L 227.618 171.397 L 227.618 171.397 Q 227.902 178.828 224.525 185.596 L 224.525 185.596 L 224.525 185.596 Q 222.7 189.157 221.051 193.079 L 221.051 193.079 L 221.051 193.079 Q 219.401 197 218.285 201.329 L 218.285 201.329 L 218.285 201.329 Q 217.168 205.659 217.028 210.848 L 217.028 210.848 L 217.028 210.848 Q 216.887 216.037 217.9 222.221 L 217.9 222.221 L 217.9 222.221 Q 218.659 226.972 219.199 231.273 L 219.199 231.273 L 219.199 231.273 Q 219.738 235.573 219.966 239.692 L 219.966 239.692 L 219.966 239.692 Q 220.22 241.127 219.501 241.477 L 219.501 241.477 L 219.501 241.477 Q 218.874 241.561 218.084 239.942 L 218.084 239.942 L 218.084 239.942 Q 212.974 231.748 210.876 222.197 L 210.876 222.197 L 210.876 222.197 Q 208.777 212.646 207.181 202.07 L 207.181 202.07 L 207.181 202.07 Q 206.247 196.96 205.762 191.631 L 205.762 191.631 L 205.762 191.631 Q 205.278 186.301 202.291 180.634 L 202.291 180.634 L 202.291 180.634 Q 201.326 178.656 201.892 175.708 L 201.892 175.708 L 201.892 175.708 Q 202.457 172.761 203.874 169.732 L 203.874 169.732 L 203.874 169.732 Q 205.291 166.703 207.151 164.126 L 207.151 164.126 L 207.151 164.126 Q 209.011 161.549 210.546 160.132 L 210.546 160.132 L 210.546 160.132 Q 211.902 158.803 212.253 159.523 L 212.253 159.523 L 212.253 159.523 Q 212.603 160.242 212.051 161.848 L 212.051 161.848 L 212.051 161.848 Q 209.941 167.107 208.355 173.669 L 208.355 173.669 L 208.355 173.669 Q 206.769 180.231 208.773 185.709 L 208.773 185.709 L 208.773 185.709 L 208.773 185.709 L 208.773 185.709 Z  M 222.602 253.768 L 222.602 253.768 L 222.602 253.768 Q 222.51 254.036 222.376 253.99 L 222.376 253.99 L 222.376 253.99 Q 222.242 253.944 221.08 253.843 L 221.08 253.843 L 221.08 253.843 Q 213.754 252.518 208.416 249.333 L 208.416 249.333 L 208.416 249.333 Q 203.078 246.148 199.317 241.861 L 199.317 241.861 L 199.317 241.861 Q 195.556 237.573 193.323 232.54 L 193.323 232.54 L 193.323 232.54 Q 191.091 227.506 189.889 222.304 L 189.889 222.304 L 189.889 222.304 Q 188.258 215.308 187.299 208.094 L 187.299 208.094 L 187.299 208.094 Q 186.341 200.881 185.289 194.159 L 185.289 194.159 L 185.289 194.159 Q 184.236 187.437 182.372 181.333 L 182.372 181.333 L 182.372 181.333 Q 180.508 175.229 177.065 170.453 L 177.065 170.453 L 177.065 170.453 Q 176.89 170.093 177.341 169.65 L 177.341 169.65 L 177.341 169.65 Q 177.521 169.562 177.833 169.744 L 177.833 169.744 L 177.833 169.744 Q 178.144 169.926 178.412 170.018 L 178.412 170.018 L 178.412 170.018 Q 184.636 174.107 187.574 180.131 L 187.574 180.131 L 187.574 180.131 Q 190.513 186.156 191.921 193.15 L 191.921 193.15 L 191.921 193.15 Q 193.329 200.144 194.015 207.713 L 194.015 207.713 L 194.015 207.713 Q 194.701 215.282 196.42 222.458 L 196.42 222.458 L 196.42 222.458 Q 198.657 231.608 204.747 240.214 L 204.747 240.214 L 204.747 240.214 Q 210.838 248.82 221.268 252.86 L 221.268 252.86 L 221.268 252.86 Q 221.891 253.224 222.339 253.229 L 222.339 253.229 L 222.339 253.229 Q 222.786 253.233 222.602 253.768 L 222.602 253.768 L 222.602 253.768 L 222.602 253.768 L 222.602 253.768 Z  M 228.085 251.316 L 228.085 251.316 L 228.085 251.316 Q 227.725 251.492 227.278 251.487 L 227.278 251.487 L 226.383 251.478 L 226.383 251.478 Q 223.076 251.088 220.176 250.165 L 220.176 250.165 L 220.176 250.165 Q 217.277 249.241 214.084 246.346 L 214.084 246.346 L 214.084 246.346 Q 212.93 245.35 211.562 243.458 L 211.562 243.458 L 211.562 243.458 Q 210.193 241.565 209.226 239.81 L 209.226 239.81 L 209.226 239.81 Q 208.259 238.056 207.915 236.665 L 207.915 236.665 L 207.915 236.665 Q 207.57 235.275 208.377 235.104 L 208.377 235.104 L 208.377 235.104 Q 208.917 234.841 210.248 235.972 L 210.248 235.972 L 210.248 235.972 Q 211.579 237.104 212.641 238.367 L 212.641 238.367 L 212.641 238.367 Q 213.965 240.17 215.292 241.749 L 215.292 241.749 L 215.292 241.749 Q 216.619 243.328 218.04 244.416 L 218.04 244.416 L 218.04 244.416 Q 222.211 247.947 227.466 250.505 L 227.466 250.505 L 227.466 250.505 Q 228.265 251.229 228.085 251.316 L 228.085 251.316 L 228.085 251.316 L 228.085 251.316 L 228.085 251.316 Z  M 218.012 156.268 L 218.012 156.268 L 218.012 156.268 Q 219.854 160.045 219.099 163.975 L 219.099 163.975 L 219.099 163.975 Q 218.345 167.905 216.253 171.375 L 216.253 171.375 L 216.253 171.375 Q 215.888 171.998 215.489 171.636 L 215.489 171.636 L 215.489 171.636 Q 215.09 171.274 215.002 171.094 L 215.002 171.094 L 215.002 171.094 Q 214.476 170.015 214.63 168.048 L 214.63 168.048 L 214.63 168.048 Q 214.783 166.08 215.119 163.802 L 215.119 163.802 L 215.119 163.802 Q 215.455 161.523 215.656 159.198 L 215.656 159.198 L 215.656 159.198 Q 215.858 156.874 215.516 155.259 L 215.516 155.259 L 215.516 155.259 Q 215.617 154.097 216.595 154.733 L 216.595 154.733 L 216.595 154.733 Q 217.573 155.369 218.012 156.268 L 218.012 156.268 L 218.012 156.268 L 218.012 156.268 L 218.012 156.268 Z  M 303.582 138.4 L 303.582 138.4 L 303.582 138.4 Q 305.433 140.169 306.724 143.022 L 306.724 143.022 L 306.724 143.022 Q 308.014 145.874 308.282 149.368 L 308.282 149.368 L 308.282 149.368 Q 308.549 152.863 307.668 156.814 L 307.668 156.814 L 307.668 156.814 Q 306.786 160.765 304.293 164.731 L 304.293 164.731 L 304.293 164.731 Q 299.451 172.239 293.107 176.823 L 293.107 176.823 L 293.107 176.823 Q 286.763 181.406 281.215 182.151 L 281.215 182.151 L 281.215 182.151 Q 277.847 182.604 281.055 180.962 L 281.055 180.962 L 281.055 180.962 Q 282.759 180.129 285.063 178.508 L 285.063 178.508 L 285.063 178.508 Q 287.367 176.888 289.888 174.633 L 289.888 174.633 L 289.888 174.633 Q 292.409 172.378 294.937 169.416 L 294.937 169.416 L 294.937 169.416 Q 297.464 166.454 299.39 162.766 L 299.39 162.766 L 299.39 162.766 Q 302.608 156.686 302.596 151.342 L 302.596 151.342 L 302.596 151.342 Q 302.585 145.998 299.438 143.596 L 299.438 143.596 L 299.438 143.596 Q 296.741 141.538 293.531 141.666 L 293.531 141.666 L 293.531 141.666 Q 290.32 141.795 284.485 146.411 L 284.485 146.411 L 284.485 146.411 Q 279.191 150.551 275.299 156.117 L 275.299 156.117 L 275.299 156.117 Q 271.406 161.682 268.188 167.763 L 268.188 167.763 L 268.188 167.763 Q 266.381 170.829 265.688 170.923 L 265.688 170.923 L 265.688 170.923 Q 264.994 171.016 265.704 167.289 L 265.704 167.289 L 265.704 167.289 Q 267.151 160.035 270.613 153.518 L 270.613 153.518 L 270.613 153.518 Q 274.075 147.002 279.461 142.043 L 279.461 142.043 L 279.461 142.043 Q 283.421 138.485 286.927 136.804 L 286.927 136.804 L 286.927 136.804 Q 290.433 135.123 293.531 134.909 L 293.531 134.909 L 293.531 134.909 Q 296.629 134.694 299.18 135.663 L 299.18 135.663 L 299.18 135.663 Q 301.73 136.632 303.582 138.4 L 303.582 138.4 L 303.582 138.4 L 303.582 138.4 Z  M 316.144 150.834 L 316.144 150.834 L 316.144 150.834 Q 315.99 155.696 314.745 159.192 L 314.745 159.192 L 314.745 159.192 Q 313.499 162.687 311.725 165.246 L 311.725 165.246 L 311.725 165.246 Q 309.95 167.804 308.056 169.47 L 308.056 169.47 L 308.056 169.47 Q 306.162 171.136 304.736 172.538 L 304.736 172.538 L 304.736 172.538 Q 304.023 173.239 303.574 172.896 L 303.574 172.896 L 303.574 172.896 Q 303.124 172.553 303.982 171.429 L 303.982 171.429 L 303.982 171.429 Q 307.15 167.978 310.137 162.433 L 310.137 162.433 L 310.137 162.433 Q 313.124 156.888 312.498 150.719 L 312.498 150.719 L 312.498 150.719 Q 311.088 140.217 305.191 135.36 L 305.191 135.36 L 305.191 135.36 Q 299.294 130.504 291.659 132.235 L 291.659 132.235 L 291.659 132.235 Q 284.024 133.966 276.421 140.434 L 276.421 140.434 L 276.421 140.434 Q 271.523 144.52 268.059 149.524 L 268.059 149.524 L 268.059 149.524 Q 264.596 154.528 262.302 159.98 L 262.302 159.98 L 262.302 159.98 Q 260.008 165.432 258.844 171.035 L 258.844 171.035 L 258.844 171.035 Q 257.68 176.637 257.606 182.094 L 257.606 182.094 L 257.606 182.094 Q 257.505 187.352 257.61 193.39 L 257.61 193.39 L 257.61 193.39 Q 257.714 199.427 259.179 205.08 L 259.179 205.08 L 259.179 205.08 Q 260.644 210.734 264.322 215.586 L 264.322 215.586 L 264.322 215.586 Q 267.999 220.437 274.845 223.351 L 274.845 223.351 L 274.845 223.351 Q 275.916 223.812 277.032 223.864 L 277.032 223.864 L 277.032 223.864 Q 278.149 223.916 278.175 224.114 L 278.175 224.114 L 278.175 224.114 Q 278.229 224.51 277.251 224.743 L 277.251 224.743 L 277.251 224.743 Q 276.274 224.975 275.032 224.738 L 275.032 224.738 L 275.032 224.738 Q 269.945 224.412 266.065 221.807 L 266.065 221.807 L 266.065 221.807 Q 262.185 219.201 259.473 215.531 L 259.473 215.531 L 259.473 215.531 Q 256.761 211.86 254.987 207.661 L 254.987 207.661 L 254.987 207.661 Q 253.213 203.461 252.536 199.921 L 252.536 199.921 L 252.536 199.921 Q 249.245 184.427 252.745 168.424 L 252.745 168.424 L 252.745 168.424 Q 253.508 165.094 254.858 160.879 L 254.858 160.879 L 254.858 160.879 Q 256.209 156.663 258.437 152.228 L 258.437 152.228 L 258.437 152.228 Q 260.666 147.794 263.912 143.424 L 263.912 143.424 L 263.912 143.424 Q 267.158 139.055 271.514 135.444 L 271.514 135.444 L 271.514 135.444 Q 275.699 132.058 280.467 130.006 L 280.467 130.006 L 280.467 130.006 Q 285.234 127.954 290.201 127.388 L 290.201 127.388 L 290.201 127.388 Q 295.168 126.822 299.754 127.921 L 299.754 127.921 L 299.754 127.921 Q 304.339 129.02 308.16 131.936 L 308.16 131.936 L 308.16 131.936 Q 311.558 134.707 313.907 139.435 L 313.907 139.435 L 313.907 139.435 Q 316.257 144.162 316.144 150.834 L 316.144 150.834 L 316.144 150.834 L 316.144 150.834 Z  M 303.66 209.598 L 303.66 209.598 L 303.66 209.598 Q 302.539 211.765 300.712 213.927 L 300.712 213.927 L 300.712 213.927 Q 298.884 216.089 296.408 217.934 L 296.408 217.934 L 296.408 217.934 Q 293.933 219.779 291.193 221.156 L 291.193 221.156 L 291.193 221.156 Q 288.452 222.533 285.48 222.932 L 285.48 222.932 L 285.48 222.932 Q 280.328 223.623 275.564 221.943 L 275.564 221.943 L 275.564 221.943 Q 270.8 220.263 267.491 213.647 L 267.491 213.647 L 267.491 213.647 Q 266.988 212.908 266.895 212.214 L 266.895 212.214 L 266.895 212.214 Q 266.802 211.521 267.198 211.468 L 267.198 211.468 L 267.198 211.468 Q 267.937 210.965 268.85 211.75 L 268.85 211.75 L 268.85 211.75 Q 269.762 212.535 270.688 213.42 L 270.688 213.42 L 270.688 213.42 Q 273.213 215.703 276.947 217.219 L 276.947 217.219 L 276.947 217.219 Q 280.681 218.735 283.851 218.309 L 283.851 218.309 L 283.851 218.309 Q 289.795 217.511 293.915 215.142 L 293.915 215.142 L 293.915 215.142 Q 298.035 212.774 301.599 209.269 L 301.599 209.269 L 301.599 209.269 Q 302.51 208.542 303.718 207.774 L 303.718 207.774 L 303.718 207.774 Q 304.926 207.007 303.66 209.598 L 303.66 209.598 L 303.66 209.598 L 303.66 209.598 Z  M 293.117 152.111 L 293.117 152.111 L 293.117 152.111 Q 292.112 150.632 287.717 155.458 L 287.717 155.458 L 287.717 155.458 Q 283.638 159.637 281.589 164.652 L 281.589 164.652 L 281.589 164.652 Q 279.539 169.668 278.302 175.482 L 278.302 175.482 L 278.302 175.482 Q 281.828 173.193 284.692 170.489 L 284.692 170.489 L 284.692 170.489 Q 287.557 167.785 290.038 165.232 L 290.038 165.232 L 290.038 165.232 Q 292.664 162.257 293.493 157.91 L 293.493 157.91 L 293.493 157.91 Q 294.321 153.563 293.117 152.111 L 293.117 152.111 L 293.117 152.111 L 293.117 152.111 Z  M 304.323 12.829 L 304.323 12.829 L 304.323 12.829 Q 309.412 9.648 317.219 7.422 L 317.219 7.422 L 317.219 7.422 Q 325.027 5.195 331.801 6.976 L 331.801 6.976 L 331.801 6.976 Q 336.19 7.771 331.992 8.979 L 331.992 8.979 L 331.992 8.979 Q 328.112 10.697 323.708 11.858 L 323.708 11.858 L 323.708 11.858 Q 319.303 13.019 314.977 15.723 L 314.977 15.723 L 314.977 15.723 Q 299.044 25.328 297.725 39.067 L 297.725 39.067 L 297.725 39.067 Q 296.406 52.807 304.294 67.691 L 304.294 67.691 L 304.294 67.691 Q 309.732 78.09 317 87.17 L 317 87.17 L 317 87.17 Q 324.268 96.25 331.837 104.964 L 331.837 104.964 L 331.837 104.964 Q 339.407 113.678 346.595 122.63 L 346.595 122.63 L 346.595 122.63 Q 353.783 131.583 358.968 142.141 L 358.968 142.141 L 358.968 142.141 Q 360.462 145.099 360.399 145.846 L 360.399 145.846 L 360.399 145.846 Q 360.335 146.594 359.477 146.069 L 359.477 146.069 L 359.477 146.069 Q 358.618 145.544 357.361 144.383 L 357.361 144.383 L 357.361 144.383 Q 356.105 143.223 355.215 142.364 L 355.215 142.364 L 355.215 142.364 Q 347.327 133.141 338.596 124.268 L 338.596 124.268 L 338.596 124.268 Q 329.866 115.395 321.31 106.236 L 321.31 106.236 L 321.31 106.236 Q 312.755 97.077 305.089 87.361 L 305.089 87.361 L 305.089 87.361 Q 297.424 77.645 291.763 66.323 L 291.763 66.323 L 291.763 66.323 Q 288.232 58.977 287.039 51.408 L 287.039 51.408 L 287.039 51.408 Q 285.846 43.838 287.261 36.762 L 287.261 36.762 L 287.261 36.762 Q 288.676 29.686 292.938 23.484 L 292.938 23.484 L 292.938 23.484 Q 297.199 17.282 304.323 12.829 L 304.323 12.829 L 304.323 12.829 Z  M 280.027 74.72 L 280.027 74.72 L 280.027 74.72 Q 276.497 67.374 274.922 58.628 L 274.922 58.628 L 274.922 58.628 Q 273.348 49.882 274.476 41.215 L 274.476 41.215 L 274.476 41.215 Q 275.605 32.548 280.2 24.899 L 280.2 24.899 L 280.2 24.899 Q 284.796 17.25 293.192 12.002 L 293.192 12.002 L 293.192 12.002 Q 293.446 11.843 294.671 11.255 L 294.671 11.255 L 294.671 11.255 Q 295.895 10.666 296.944 10.364 L 296.944 10.364 L 296.944 10.364 Q 297.994 10.062 298.026 10.396 L 298.026 10.396 L 298.026 10.396 Q 298.058 10.73 296.436 12.098 L 296.436 12.098 L 296.436 12.098 Q 290.361 17.664 286.577 24.629 L 286.577 24.629 L 286.577 24.629 Q 282.793 31.594 281.489 39.132 L 281.489 39.132 L 281.489 39.132 Q 280.185 46.669 281.251 54.318 L 281.251 54.318 L 281.251 54.318 Q 282.317 61.967 285.784 68.645 L 285.784 68.645 L 285.784 68.645 Q 292.399 81.494 302.148 92.561 L 302.148 92.561 L 302.148 92.561 Q 311.896 103.629 322.201 114.171 L 322.201 114.171 L 322.201 114.171 Q 332.506 124.714 342.127 135.861 L 342.127 135.861 L 342.127 135.861 Q 351.748 147.008 358.364 159.856 L 358.364 159.856 L 358.364 159.856 Q 360.877 165.008 362.435 171.464 L 362.435 171.464 L 362.435 171.464 Q 363.994 177.92 363.931 184.329 L 363.931 184.329 L 363.931 184.329 Q 363.867 190.737 361.53 196.621 L 361.53 196.621 L 361.53 196.621 Q 359.193 202.505 354.327 206.608 L 354.327 206.608 L 354.327 206.608 Q 350.574 209.661 350.654 208.373 L 350.654 208.373 L 350.654 208.373 Q 350.733 207.085 352.228 204.382 L 352.228 204.382 L 352.228 204.382 Q 358.206 193.568 357.347 184.552 L 357.347 184.552 L 357.347 184.552 Q 356.488 175.535 351.145 164.722 L 351.145 164.722 L 351.145 164.722 Q 344.847 152.383 335.305 141.363 L 335.305 141.363 L 335.305 141.363 Q 325.764 130.343 315.586 119.721 L 315.586 119.721 L 315.586 119.721 Q 305.408 109.099 295.946 98.207 L 295.946 98.207 L 295.946 98.207 Q 286.484 87.314 280.027 74.72 L 280.027 74.72 L 280.027 74.72 Z  M 361.261 219.965 L 361.261 219.965 L 361.261 219.965 Q 371.946 213.286 376.86 204.731 L 376.86 204.731 L 376.86 204.731 Q 381.773 196.175 382.552 186.666 L 382.552 186.666 L 382.552 186.666 Q 383.331 177.156 380.547 167.043 L 380.547 167.043 L 380.547 167.043 Q 377.764 156.929 372.802 147.293 L 372.802 147.293 L 372.802 147.293 Q 366.664 135.208 357.981 124.713 L 357.981 124.713 L 357.981 124.713 Q 349.298 114.218 340.313 104.089 L 340.313 104.089 L 340.313 104.089 Q 331.328 93.959 322.645 83.465 L 322.645 83.465 L 322.645 83.465 Q 313.962 72.97 307.664 60.63 L 307.664 60.63 L 307.664 60.63 Q 301.367 48.29 303.306 37.525 L 303.306 37.525 L 303.306 37.525 Q 305.246 26.759 317.713 18.966 L 317.713 18.966 L 317.713 18.966 Q 322.038 16.263 329.734 13.575 L 329.734 13.575 L 329.734 13.575 Q 337.431 10.887 343.505 10.983 L 343.505 10.983 L 343.505 10.983 Q 349.993 11.173 343.855 13.241 L 343.855 13.241 L 343.855 13.241 Q 340.325 14.386 334.855 16.39 L 334.855 16.39 L 334.855 16.39 Q 329.385 18.393 326.841 19.984 L 326.841 19.984 L 326.841 19.984 Q 316.918 26.186 312.498 34.964 L 312.498 34.964 L 312.498 34.964 Q 308.077 43.742 313.898 55.318 L 313.898 55.318 L 313.898 55.318 Q 319.941 67.817 328.958 78.28 L 328.958 78.28 L 328.958 78.28 Q 337.975 88.743 347.58 99.016 L 347.58 99.016 L 347.58 99.016 Q 357.185 109.288 366.154 119.958 L 366.154 119.958 L 366.154 119.958 Q 375.123 130.628 381.421 142.967 L 381.421 142.967 L 381.421 142.967 Q 386.701 153.112 389.373 164.18 L 389.373 164.18 L 389.373 164.18 Q 392.045 175.248 391.059 186.125 L 391.059 186.125 L 391.059 186.125 Q 390.074 197.002 384.588 206.623 L 384.588 206.623 L 384.588 206.623 Q 379.102 216.244 367.908 223.241 L 367.908 223.241 L 367.908 223.241 Q 364.855 225.149 359.384 227.153 L 359.384 227.153 L 359.384 227.153 Q 353.914 229.157 348.046 230.525 L 348.046 230.525 L 348.046 230.525 Q 342.179 231.893 336.47 232.1 L 336.47 232.1 L 336.47 232.1 Q 330.761 232.306 326.976 230.78 L 326.976 230.78 L 326.976 230.78 Q 323.096 229.667 327.708 228.554 L 327.708 228.554 L 327.708 228.554 Q 333.464 228.14 341.765 227.551 L 341.765 227.551 L 341.765 227.551 Q 350.066 226.963 361.261 219.965 L 361.261 219.965 L 361.261 219.965 Z  M 354.168 212.015 L 354.168 212.015 L 354.168 212.015 Q 360.529 208.039 364.599 202.664 L 364.599 202.664 L 364.599 202.664 Q 368.67 197.289 372.2 190.483 L 372.2 190.483 L 372.677 191.246 L 372.677 191.246 Q 374.108 193.536 373.043 197.209 L 373.043 197.209 L 373.043 197.209 Q 371.978 200.883 369.529 204.89 L 369.529 204.89 L 369.529 204.89 Q 367.08 208.897 363.264 212.698 L 363.264 212.698 L 363.264 212.698 Q 359.448 216.499 354.868 219.361 L 354.868 219.361 L 354.868 219.361 Q 353.087 220.475 349.636 221.747 L 349.636 221.747 L 349.636 221.747 Q 346.186 223.019 342.29 223.862 L 342.29 223.862 L 342.29 223.862 Q 338.394 224.705 334.641 224.928 L 334.641 224.928 L 334.641 224.928 Q 330.888 225.151 328.598 223.751 L 328.598 223.751 L 328.598 223.751 Q 323.891 222.448 324.67 221.43 L 324.67 221.43 L 324.67 221.43 Q 325.449 220.412 328.026 220.571 L 328.026 220.571 L 328.026 220.571 Q 332.891 219.299 339.459 218.201 L 339.459 218.201 L 339.459 218.201 Q 346.026 217.104 354.168 212.015 L 354.168 212.015 L 354.168 212.015 Z  M 297.155 146.122 L 297.155 146.122 L 297.155 146.122 Q 299.905 148.577 298.907 154.662 L 298.907 154.662 L 298.907 154.662 Q 297.908 160.746 292.167 167.569 L 292.167 167.569 L 292.167 167.569 Q 289.053 171.416 285.964 173.949 L 285.964 173.949 L 285.964 173.949 Q 282.874 176.482 277.935 178.759 L 277.935 178.759 L 277.935 178.759 Q 276.767 186.581 277.157 193.993 L 277.157 193.993 L 277.157 193.993 Q 277.547 201.404 279.149 205.828 L 279.149 205.828 L 279.149 205.828 Q 279.587 207.585 280.903 209.123 L 280.903 209.123 L 280.903 209.123 Q 282.219 210.661 284.419 211.273 L 284.419 211.273 L 284.419 211.273 Q 286.619 211.886 289.961 211.235 L 289.961 211.235 L 289.961 211.235 Q 293.303 210.585 297.991 207.938 L 297.991 207.938 L 297.991 207.938 Q 299.298 207.157 299.635 207.415 L 299.635 207.415 L 299.635 207.415 Q 299.973 207.672 298.52 208.876 L 298.52 208.876 L 298.52 208.876 Q 295.326 212.129 291.509 213.751 L 291.509 213.751 L 291.509 213.751 Q 287.693 215.373 284.172 215.442 L 284.172 215.442 L 284.172 215.442 Q 280.651 215.511 277.908 213.862 L 277.908 213.862 L 277.908 213.862 Q 275.165 212.213 273.92 208.951 L 273.92 208.951 L 273.92 208.951 Q 271.404 202.229 270.591 194.672 L 270.591 194.672 L 270.591 194.672 Q 269.778 187.116 270.875 179.505 L 270.875 179.505 L 270.875 179.505 Q 271.971 171.894 274.97 164.936 L 274.97 164.936 L 274.97 164.936 Q 277.969 157.977 283.104 152.648 L 283.104 152.648 L 283.104 152.648 Q 292.66 142.691 297.155 146.122 L 297.155 146.122 L 297.155 146.122 L 297.155 146.122 Z  M 111.341 254.032 L 111.341 254.032 L 111.341 254.032 Q 111.514 255.621 110.959 254.85 L 110.959 254.85 L 110.959 254.85 Q 110.403 254.078 110.38 253.609 L 110.38 253.609 L 110.38 253.609 Q 107.639 245.754 109.006 239.199 L 109.006 239.199 L 109.006 239.199 Q 106.231 232.567 104.182 224.443 L 104.182 224.443 L 104.182 224.443 Q 102.133 216.318 100.307 207.947 L 100.307 207.947 L 100.307 207.947 Q 98.48 199.576 96.717 191.532 L 96.717 191.532 L 96.717 191.532 Q 94.954 183.487 93.118 176.809 L 93.118 176.809 L 93.118 176.809 Q 88.911 179.18 84.76 180.797 L 84.76 180.797 L 84.76 180.797 Q 83.091 181.256 83.091 181.256 L 83.091 181.256 L 83.091 181.256 Q 82.599 180.81 83.65 179.254 L 83.65 179.254 L 83.65 179.254 Q 88.721 171.574 96.797 166.66 L 96.797 166.66 L 96.797 166.66 Q 104.873 161.746 113.517 157.837 L 113.517 157.837 L 113.517 157.837 Q 119.027 155.213 124.435 152.406 L 124.435 152.406 L 124.435 152.406 Q 129.842 149.598 134.664 144.47 L 134.664 144.47 L 134.664 144.47 Q 135.476 143.771 135.785 144.32 L 135.785 144.32 L 135.785 144.32 Q 135.991 144.686 135.752 145.544 L 135.752 145.544 L 135.752 145.544 Q 135.08 149.056 132.55 152.049 L 132.55 152.049 L 132.55 152.049 Q 130.019 155.043 126.487 157.757 L 126.487 157.757 L 126.487 157.757 Q 122.955 160.471 119.023 162.688 L 119.023 162.688 L 119.023 162.688 Q 115.09 164.904 111.615 166.864 L 111.615 166.864 L 111.615 166.864 Q 115.004 170.738 118.069 176.603 L 118.069 176.603 L 118.069 176.603 Q 121.134 182.467 123.817 189.15 L 123.817 189.15 L 123.817 189.15 Q 126.5 195.833 128.634 202.826 L 128.634 202.826 L 128.634 202.826 Q 130.767 209.818 132.477 215.844 L 132.477 215.844 L 132.477 215.844 Q 139.943 212.84 146.512 209.74 L 146.512 209.74 L 146.512 209.74 Q 153.08 206.64 156.551 200.827 L 156.551 200.827 L 156.551 200.827 Q 156.997 200.334 157.203 200.7 L 157.203 200.7 L 157.203 200.7 Q 157.513 201.249 157.536 201.718 L 157.536 201.718 L 157.536 201.718 Q 156.718 207.964 153.285 211.707 L 153.285 211.707 L 153.285 211.707 Q 149.851 215.45 145.124 217.754 L 145.124 217.754 L 145.124 217.754 Q 140.396 220.057 134.942 221.927 L 134.942 221.927 L 134.942 221.927 Q 129.488 223.796 124.915 226.374 L 124.915 226.374 L 124.915 226.374 Q 119.062 229.673 114.842 236.511 L 114.842 236.511 L 114.842 236.511 Q 110.622 243.349 111.341 254.032 L 111.341 254.032 L 111.341 254.032 L 111.341 254.032 L 111.341 254.032 Z  M 460.501 146.382 L 460.501 146.382 L 460.501 146.382 Q 454.34 157.005 447.16 167.992 L 447.16 167.992 L 447.16 167.992 Q 439.98 178.979 432.849 188.535 L 432.849 188.535 L 432.849 188.535 Q 432.51 189.069 431.248 190.403 L 431.248 190.403 L 431.248 190.403 Q 429.987 191.737 429.453 191.397 L 429.453 191.397 L 429.453 191.397 Q 429.065 191.3 429.429 189.433 L 429.429 189.433 L 429.429 189.433 Q 429.793 187.565 430.23 186.643 L 430.23 186.643 L 430.23 186.643 Q 431.249 184.218 432.947 180.725 L 432.947 180.725 L 432.947 180.725 Q 434.644 177.233 436.488 173.57 L 436.488 173.57 L 436.488 173.57 Q 438.331 169.908 440.126 166.44 L 440.126 166.44 L 440.126 166.44 Q 441.921 162.971 443.571 160.497 L 443.571 160.497 L 443.571 160.497 Q 444.25 159.43 446.19 155.792 L 446.19 155.792 L 446.19 155.792 Q 448.131 152.154 450.654 147.012 L 450.654 147.012 L 450.654 147.012 Q 453.176 141.87 455.99 135.976 L 455.99 135.976 L 455.99 135.976 Q 458.804 130.082 461.132 124.479 L 461.132 124.479 L 461.132 124.479 Q 463.461 118.877 465.062 114.123 L 465.062 114.123 L 465.062 114.123 Q 466.663 109.369 466.712 106.701 L 466.712 106.701 L 466.712 106.701 Q 466.615 104.615 467.197 104.761 L 467.197 104.761 L 467.197 104.761 Q 467.585 104.858 467.755 105.415 L 467.755 105.415 L 467.755 105.415 Q 467.924 105.973 468.215 106.458 L 468.215 106.458 L 468.215 106.458 Q 469.282 110.436 469.088 115.748 L 469.088 115.748 L 469.088 115.748 Q 468.894 121.06 467.73 126.541 L 467.73 126.541 L 467.73 126.541 Q 466.565 132.023 464.625 137.31 L 464.625 137.31 L 464.625 137.31 Q 462.684 142.598 460.501 146.382 L 460.501 146.382 Z  M 463.947 99.618 L 463.947 99.618 L 463.947 99.618 Q 463.995 110.145 460.017 120.696 L 460.017 120.696 L 460.017 120.696 Q 456.039 131.246 450.12 141.724 L 450.12 141.724 L 450.12 141.724 Q 444.202 152.202 437.434 162.777 L 437.434 162.777 L 437.434 162.777 Q 430.667 173.352 425.039 184.315 L 425.039 184.315 L 425.039 184.315 Q 421.449 191.252 418.417 198.843 L 418.417 198.843 L 418.417 198.843 Q 415.385 206.435 413.469 214.099 L 413.469 214.099 L 413.469 214.099 Q 411.552 221.764 411.043 229.161 L 411.043 229.161 L 411.043 229.161 Q 410.533 236.559 412.231 242.962 L 412.231 242.962 L 412.231 242.962 Q 412.425 243.836 412.231 244.199 L 412.231 244.199 L 412.231 244.199 Q 412.037 244.563 411.261 242.72 L 411.261 242.72 L 411.261 242.72 Q 407.671 235.637 407.089 227.658 L 407.089 227.658 L 407.089 227.658 Q 406.508 219.678 408.157 211.431 L 408.157 211.431 L 408.157 211.431 Q 409.807 203.185 413.154 194.744 L 413.154 194.744 L 413.154 194.744 Q 416.502 186.303 420.722 178.494 L 420.722 178.494 L 420.722 178.494 Q 426.544 167.579 432.947 157.223 L 432.947 157.223 L 432.947 157.223 Q 439.351 146.866 445.221 136.994 L 445.221 136.994 L 445.221 136.994 Q 451.091 127.123 455.724 117.664 L 455.724 117.664 L 455.724 117.664 Q 460.357 108.204 462.685 98.891 L 462.685 98.891 L 462.685 98.891 Q 462.928 97.921 463.122 97.969 L 463.122 97.969 L 463.122 97.969 Q 463.898 98.163 463.947 99.618 L 463.947 99.618 Z  M 462.486 255.528 L 462.486 255.528 L 462.486 255.528 Q 456.132 250.434 453.61 242.382 L 453.61 242.382 L 453.61 242.382 Q 451.087 234.329 452.397 224.967 L 452.397 224.967 L 452.397 224.967 Q 453.659 215.798 456.109 210.123 L 456.109 210.123 L 456.109 210.123 Q 458.559 204.447 461.373 198.966 L 461.373 198.966 L 461.373 198.966 Q 461.761 198.238 462.804 196.54 L 462.804 196.54 L 462.804 196.54 Q 463.847 194.843 464.623 192.975 L 464.623 192.975 L 464.623 192.975 Q 465.399 191.107 465.472 189.579 L 465.472 189.579 L 465.472 189.579 Q 465.545 188.051 464.283 187.324 L 464.283 187.324 L 464.283 187.324 Q 461.712 186.062 457.468 188.197 L 457.468 188.197 L 457.468 188.197 Q 453.223 190.331 448.906 193.993 L 448.906 193.993 L 448.906 193.993 Q 444.588 197.656 440.78 201.755 L 440.78 201.755 L 440.78 201.755 Q 436.972 205.853 435.517 208.376 L 435.517 208.376 L 435.517 208.376 Q 432.363 213.566 429.162 218.126 L 429.162 218.126 L 429.162 218.126 Q 425.96 222.686 423.146 227.343 L 423.146 227.343 L 423.146 227.343 Q 422.03 229.332 421.691 229.041 L 421.691 229.041 L 421.691 229.041 Q 421.303 228.944 421.4 228.143 L 421.4 228.143 L 421.4 228.143 Q 421.497 227.343 421.739 226.373 L 421.739 226.373 L 421.739 226.373 Q 423.68 218.611 426.809 211.044 L 426.809 211.044 L 426.809 211.044 Q 429.938 203.476 433.916 196.224 L 433.916 196.224 L 433.916 196.224 Q 437.894 188.972 442.357 181.841 L 442.357 181.841 L 442.357 181.841 Q 446.82 174.711 451.138 167.337 L 451.138 167.337 L 451.138 167.337 Q 456.717 158.218 462.102 148.637 L 462.102 148.637 L 462.102 148.637 Q 467.487 139.057 471.416 127.463 L 471.416 127.463 L 471.416 127.463 Q 471.659 126.493 471.683 126.396 L 471.683 126.396 L 471.683 126.396 Q 471.707 126.299 471.901 126.347 L 471.901 126.347 L 471.901 126.347 Q 472.484 126.493 472.483 128.142 L 472.483 128.142 L 472.483 128.142 Q 472.823 130.907 471.586 135.443 L 471.586 135.443 L 471.586 135.443 Q 470.349 139.979 468.311 145.242 L 468.311 145.242 L 468.311 145.242 Q 466.274 150.505 463.605 155.817 L 463.605 155.817 L 463.605 155.817 Q 460.937 161.128 458.463 165.252 L 458.463 165.252 L 458.463 165.252 Q 463.12 162.293 468.699 161.42 L 468.699 161.42 L 468.699 161.42 Q 474.277 160.547 481.02 163.263 L 481.02 163.263 L 481.02 163.263 Q 488.684 166.417 491.813 172.044 L 491.813 172.044 L 491.813 172.044 Q 494.942 177.671 494.893 184.463 L 494.893 184.463 L 494.893 184.463 Q 494.844 191.254 492.346 198.361 L 492.346 198.361 L 492.346 198.361 Q 489.847 205.467 486.403 211.822 L 486.403 211.822 L 486.403 211.822 Q 483.541 216.673 481.188 220.311 L 481.188 220.311 L 481.188 220.311 Q 478.835 223.949 476.652 226.908 L 476.652 226.908 L 476.652 226.908 Q 474.469 229.867 472.771 232.535 L 472.771 232.535 L 472.771 232.535 Q 471.073 235.203 469.666 238.356 L 469.666 238.356 L 469.666 238.356 Q 468.745 240.393 468.357 240.296 L 468.357 240.296 L 468.357 240.296 Q 467.969 240.199 467.872 239.35 L 467.872 239.35 L 467.872 239.35 Q 467.775 238.501 467.775 237.677 L 467.775 237.677 L 467.775 237.677 Q 467.678 233.117 470.297 227.174 L 470.297 227.174 L 470.297 227.174 Q 472.917 221.232 476.386 214.78 L 476.386 214.78 L 476.386 214.78 Q 479.854 208.329 483.08 201.61 L 483.08 201.61 L 483.08 201.61 Q 486.307 194.892 487.519 188.804 L 487.519 188.804 L 487.519 188.804 Q 488.732 182.716 486.962 177.428 L 486.962 177.428 L 486.962 177.428 Q 485.192 172.141 478.643 168.648 L 478.643 168.648 L 478.643 168.648 Q 475.926 167.144 472.458 166.586 L 472.458 166.586 L 472.458 166.586 Q 468.99 166.028 465.667 166.537 L 465.667 166.537 L 465.667 166.537 Q 462.344 167.047 459.433 168.793 L 459.433 168.793 L 459.433 168.793 Q 456.522 170.539 454.97 173.45 L 454.97 173.45 L 454.97 173.45 Q 459.627 170.491 466.079 169.424 L 466.079 169.424 L 466.079 169.424 Q 472.531 168.357 477.527 171.461 L 477.527 171.461 L 477.527 171.461 Q 482.184 174.275 483.299 178.884 L 483.299 178.884 L 483.299 178.884 Q 484.415 183.492 484.027 186.694 L 484.027 186.694 L 484.027 186.694 Q 483.105 193.679 480.073 198.797 L 480.073 198.797 L 480.073 198.797 Q 477.041 203.914 473.645 208.426 L 473.645 208.426 L 473.645 208.426 Q 473.112 208.911 472.02 209.978 L 472.02 209.978 L 472.02 209.978 Q 470.929 211.045 470.589 210.754 L 470.589 210.754 L 470.589 210.754 Q 470.201 210.657 470.589 209.105 L 470.589 209.105 L 470.589 209.105 Q 470.977 207.552 471.365 206.825 L 471.365 206.825 L 471.365 206.825 Q 472.433 205.03 473.864 200.955 L 473.864 200.955 L 473.864 200.955 Q 475.295 196.88 476.314 192.393 L 476.314 192.393 L 476.314 192.393 Q 477.333 187.906 477.236 183.759 L 477.236 183.759 L 477.236 183.759 Q 477.139 179.611 475.15 177.671 L 475.15 177.671 L 475.15 177.671 Q 472.822 175.439 468.771 175.148 L 468.771 175.148 L 468.771 175.148 Q 464.72 174.857 459.239 177.816 L 459.239 177.816 L 459.239 177.816 Q 454.485 180.338 450.628 184.219 L 450.628 184.219 L 450.628 184.219 Q 446.771 188.099 442.988 194.988 L 442.988 194.988 L 442.988 194.988 Q 444.685 193.144 448.178 189.894 L 448.178 189.894 L 448.178 189.894 Q 451.671 186.644 455.746 183.952 L 455.746 183.952 L 455.746 183.952 Q 459.821 181.26 463.92 180.12 L 463.92 180.12 L 463.92 180.12 Q 468.019 178.98 470.929 181.357 L 470.929 181.357 L 470.929 181.357 Q 472.773 183.055 472.748 186.038 L 472.748 186.038 L 472.748 186.038 Q 472.724 189.022 471.56 192.442 L 471.56 192.442 L 471.56 192.442 Q 470.395 195.862 468.794 198.966 L 468.794 198.966 L 468.794 198.966 Q 467.194 202.071 466.126 203.866 L 466.126 203.866 L 466.126 203.866 Q 462.536 209.153 460.038 215.847 L 460.038 215.847 L 460.038 215.847 Q 457.54 222.541 456.763 229.357 L 456.763 229.357 L 456.763 229.357 Q 455.987 236.173 457.442 242.721 L 457.442 242.721 L 457.442 242.721 Q 458.897 249.27 463.505 254.752 L 463.505 254.752 L 463.505 254.752 Q 465.009 256.159 463.942 255.892 L 463.942 255.892 L 463.942 255.892 Q 462.875 255.625 462.486 255.528 L 462.486 255.528 Z  M 467.92 255.237 L 467.92 255.237 L 467.92 255.237 Q 465.591 253.006 463.602 250.653 L 463.602 250.653 L 463.602 250.653 Q 461.614 248.3 460.546 242.673 L 460.546 242.673 L 460.546 242.673 Q 460.061 240.49 460.401 237.07 L 460.401 237.07 L 460.401 237.07 Q 460.741 233.65 461.396 230.618 L 461.396 230.618 L 461.396 230.618 Q 462.051 227.587 462.948 225.646 L 462.948 225.646 L 462.948 225.646 Q 463.846 223.706 464.379 224.045 L 464.379 224.045 L 464.379 224.045 Q 464.767 224.142 464.937 225.113 L 464.937 225.113 L 464.937 225.113 Q 465.107 226.083 465.01 227.296 L 465.01 227.296 L 465.01 227.296 Q 464.913 228.508 464.84 229.624 L 464.84 229.624 L 464.84 229.624 Q 464.767 230.74 464.67 231.128 L 464.67 231.128 L 464.67 231.128 Q 464.379 235.591 464.452 237.774 L 464.452 237.774 L 464.452 237.774 Q 464.524 239.957 464.912 242.528 L 464.912 242.528 L 464.912 242.528 Q 465.688 246.02 466.61 248.931 L 466.61 248.931 L 466.61 248.931 Q 467.532 251.841 469.326 254.558 L 469.326 254.558 L 469.326 254.558 Q 470.102 255.577 469.52 255.844 L 469.52 255.844 L 469.52 255.844 Q 468.938 256.11 467.92 255.237 L 467.92 255.237 Z  M 418.44 244.515 L 418.44 244.515 L 418.44 244.515 Q 418.634 244.564 418.101 244.636 L 418.101 244.636 L 418.101 244.636 Q 417.567 244.709 416.306 243.981 L 416.306 243.981 L 416.306 243.981 Q 414.947 242.817 413.832 240.27 L 413.832 240.27 L 413.832 240.27 Q 412.716 237.723 413.299 231.272 L 413.299 231.272 L 413.299 231.272 Q 413.541 228.652 414.439 225.063 L 414.439 225.063 L 414.439 225.063 Q 415.336 221.473 416.428 218.344 L 416.428 218.344 L 416.428 218.344 Q 417.519 215.215 418.684 213.032 L 418.684 213.032 L 418.684 213.032 Q 419.848 210.849 420.576 211.238 L 420.576 211.238 L 420.576 211.238 Q 420.77 211.286 420.673 212.499 L 420.673 212.499 L 420.673 212.499 Q 420.576 213.711 420.406 215.215 L 420.406 215.215 L 420.406 215.215 Q 420.236 216.719 419.872 218.174 L 419.872 218.174 L 419.872 218.174 Q 419.508 219.63 419.363 220.212 L 419.363 220.212 L 419.363 220.212 Q 418.489 224.529 418.271 226.639 L 418.271 226.639 L 418.271 226.639 Q 418.053 228.749 417.761 232.388 L 417.761 232.388 L 417.761 232.388 Q 417.422 236.22 417.446 239.421 L 417.446 239.421 L 417.446 239.421 Q 417.47 242.623 418.44 244.515 L 418.44 244.515 Z " fill-rule="evenodd" fill="rgb(101,98,86)"/></g><g><linearGradient id="_lgradient_0" x1="0.6278852346511953" y1="0.16687952673518192" x2="0.44978953243457753" y2="0.5629818668264903" gradientTransform="matrix(653.724,0,0,323.85,2.962,342.22)" gradientUnits="userSpaceOnUse"><stop offset="2.083333333333337%" stop-opacity="1" style="stop-color:rgb(216,138,32)"/><stop offset="100%" stop-opacity="1" style="stop-color:rgb(174,85,13)"/></linearGradient><path d=" M 5.047 417 C 134 241 616.979 431.01 618 430 C 651 397.333 665.805 448.181 650.853 477.286 C 638.456 501.42 555.63 550.319 497 598 C 438.37 645.681 367.25 696 231.454 644.181 C 161.785 627.053 -18.376 488.544 5.047 417 Z " fill="url(#_lgradient_0)"/></g><g><path d=" M 167.274 321.15 C 166.429 321.151 165.571 321.21 164.699 321.328 C 136.79 325.103 133.601 350.694 133.601 350.694 C 133.601 350.694 132.373 343.821 130.166 343.781 C 127.959 343.741 111.972 352.488 111.972 352.488 L 155.609 534.562 L 171.876 533.096 L 171.73 531.085 C 171.73 531.085 197.308 560.361 211.037 549.56 C 224.766 538.759 224.29 497.149 214.381 469.395 C 204.473 441.642 184.846 439.165 184.846 439.165 C 184.846 439.165 200.056 441.466 203.145 408.109 C 206.137 375.794 193.443 321.105 167.274 321.15 L 167.274 321.15 Z  M 160.168 354.53 C 160.947 354.534 161.755 354.688 162.573 354.996 C 163.391 355.305 164.219 355.768 165.035 356.394 C 165.851 357.019 166.655 357.806 167.429 358.76 C 168.203 359.714 168.946 360.835 169.638 362.131 C 170.33 363.426 170.971 364.894 171.541 366.543 C 172.111 368.192 172.611 370.021 173.019 372.035 C 173.426 374.049 173.742 376.248 173.948 378.64 C 174.153 381.032 174.246 383.618 174.208 386.4 C 174.171 389.182 173.899 391.747 173.452 394.105 C 173.004 396.463 172.379 398.615 171.64 400.571 C 170.9 402.527 170.045 404.289 169.132 405.864 C 168.22 407.44 167.249 408.83 166.282 410.047 C 165.315 411.264 164.352 412.308 163.448 413.188 C 162.545 414.069 161.703 414.788 160.983 415.353 C 159.541 416.483 158.582 417.004 158.582 417.004 L 147.002 364.837 C 147.002 364.837 148.734 362.252 151.246 359.671 C 152.502 358.38 153.953 357.09 155.48 356.125 C 156.243 355.643 157.026 355.242 157.813 354.962 C 158.599 354.683 159.388 354.525 160.168 354.53 L 160.168 354.53 Z  M 173.338 461.536 C 173.754 461.519 174.19 461.511 174.646 461.516 C 176.469 461.536 178.59 461.749 180.853 462.344 C 181.984 462.641 183.151 463.034 184.333 463.546 C 185.516 464.057 186.714 464.689 187.908 465.462 C 189.103 466.235 190.28 467.364 191.419 468.772 C 192.558 470.181 193.659 471.867 194.698 473.752 C 195.737 475.637 196.713 477.72 197.607 479.924 C 198.501 482.128 199.312 484.454 200.016 486.819 C 200.72 489.184 201.318 491.588 201.787 493.956 C 202.257 496.324 202.598 498.652 202.788 500.864 C 202.978 503.077 203.017 505.172 202.883 507.071 C 202.748 508.97 202.443 510.673 201.939 512.1 C 201.687 512.814 201.373 513.432 201.004 513.963 C 200.635 514.493 200.21 514.936 199.74 515.298 C 199.27 515.66 198.753 515.942 198.199 516.149 C 197.644 516.357 197.051 516.491 196.427 516.558 C 195.18 516.692 193.812 516.56 192.388 516.218 C 190.964 515.877 189.483 515.324 188.012 514.621 C 186.541 513.918 185.078 513.063 183.69 512.113 C 182.301 511.162 180.986 510.116 179.81 509.032 C 178.634 507.947 177.598 506.825 176.764 505.721 C 175.93 504.617 175.3 503.53 174.938 502.52 L 168.548 462.212 C 168.548 462.212 169.161 462.027 170.229 461.849 C 171.031 461.715 172.089 461.585 173.338 461.536 L 173.338 461.536 Z " fill="rgb(244,242,243)"/><path d=" M 181.45 312.465 C 181.45 312.465 223.539 285.411 242.962 283.577 L 249.661 324.743 C 249.661 324.743 230.166 323.701 225.966 324.479 L 239.046 401.831 L 260.536 390.738 L 264.757 436.282 C 264.757 436.282 259.956 439.856 242.709 440.483 L 243.147 480.56 C 243.147 480.56 252.571 481.569 268.353 476.087 L 260.5 582.74 C 260.5 582.74 221.023 568.969 218.872 563.556 C 218.872 563.556 232.902 515.345 224.914 483.899 C 216.926 452.452 199.413 438.797 199.413 438.797 C 199.413 438.797 213.045 412.75 207.737 384.88 C 202.429 357.01 188.983 318.317 181.45 312.465 L 181.45 312.465 Z " fill="rgb(244,242,243)"/><path d=" M 304.083 301.276 C 302.141 313.018 292.133 321.727 280.234 322.028 C 270.512 322.274 261.444 320.511 257.194 311.763 C 262.521 356.672 271.253 402.025 275.678 447.226 C 280.019 493.726 269.649 584.234 269.649 584.234 C 269.649 584.234 281.096 590.699 297.173 591.787 C 313.25 592.875 327.741 591.787 327.741 591.787 C 322.144 582.818 311.517 476.338 307.985 450.437 C 304.696 399.849 304.395 344.446 304.083 301.276 Z " fill="rgb(244,242,243)"/><path d=" M 260.498 293.93 C 260.239 283.652 268.372 275.096 278.65 274.836 C 288.928 274.576 297.484 282.71 297.744 292.988 C 298.003 303.266 289.87 311.822 279.592 312.081 C 269.314 312.341 260.758 304.208 260.498 293.93 Z " fill="rgb(244,242,243)"/><path d=" M 400.449 350.119 C 400.449 350.119 397.717 287.662 369.822 276.025 C 341.927 264.388 322.28 283.941 316.396 324.779 C 310.511 365.616 311.095 442.368 320.376 487.569 C 329.657 532.771 342.849 582.484 363.47 588.066 C 384.092 593.648 396.454 562.276 396.454 562.276 C 396.454 562.276 385.839 555.492 390.081 540.872 C 394.323 526.253 406.077 524.464 406.077 524.464 C 406.077 524.464 410.3 417.888 404.97 394.83 C 404.97 394.83 367.338 403.105 350.561 426.18 C 350.561 426.18 347.167 452.849 354.28 455.246 C 361.393 457.643 390.673 440.898 390.673 440.898 C 390.673 440.898 392.664 519.649 374.412 527.299 C 356.16 534.949 341.923 470.749 341.268 466.29 C 340.612 461.831 328.802 375.597 336.215 346.928 C 343.628 318.258 354.557 321.373 358.852 324.926 C 363.146 328.479 371.218 341.974 374.321 362.782 C 377.424 383.591 400.449 350.119 400.449 350.119 L 400.449 350.119 Z " fill="rgb(244,242,243)"/><path d=" M 387.187 276.197 C 387.187 276.197 420.621 284.303 432.711 295.797 L 461.368 426.091 C 461.368 426.091 453.221 313.046 448.561 300.414 C 448.561 300.414 461.259 303.755 469.208 312.37 C 469.208 312.37 490.114 533.054 488.489 538.52 C 486.864 543.986 474.485 553.251 470.676 552.805 L 441.291 415.205 C 441.291 415.205 453.599 558.662 451.998 565.077 C 450.397 571.492 412.966 582.339 410.512 581.859 L 411.216 566.786 C 411.216 566.786 425.63 562.895 428.084 552.661 C 430.538 542.427 428.085 531.231 415.277 523.553 C 415.277 523.553 426.386 324.575 387.187 276.197 Z " fill="rgb(244,242,243)"/><path d=" M 479.809 316.238 C 479.809 316.238 516.404 329.794 521.067 339.747 L 517.727 359.396 C 517.727 359.396 505.238 354.724 503.127 354.682 L 505.059 393.187 L 519.62 392.531 L 517.314 422.703 L 503.112 422.391 L 503.2 459.983 C 503.2 459.983 515.335 458.238 519.666 451.223 L 516.854 514.495 C 516.854 514.495 502.705 531.445 495.563 533.447 L 479.809 316.238 Z " fill="rgb(244,242,243)"/><path d=" M 527.316 344.198 C 527.316 344.198 550.04 355.152 567.531 376.411 L 563.462 397.875 L 552.278 390.02 C 552.278 390.02 546.443 486.465 544.071 491.882 C 541.698 497.299 520.768 511.663 520.768 511.663 L 536.273 381.948 L 524.394 376.145 L 527.316 344.198 Z " fill="rgb(244,242,243)"/><path d=" M 570.588 379.673 C 570.588 379.673 618.019 403.949 622.216 425.805 C 626.413 447.661 551.194 488.544 551.194 488.544 L 570.588 379.673 Z " fill="rgb(244,242,243)"/><path d=" M 104.79 356.034 L 148.717 527.038 C 148.717 527.038 45.634 446.367 42.907 413.614 C 40.18 380.861 104.79 356.034 104.79 356.034 Z " fill="rgb(244,242,243)"/><path d=" M 394.791 546.332 C 394.586 538.23 400.998 531.486 409.1 531.281 C 417.202 531.076 423.946 537.487 424.151 545.589 C 424.355 553.691 417.944 560.436 409.842 560.64 C 401.74 560.845 394.996 554.434 394.791 546.332 Z " fill="rgb(244,242,243)"/></g></g></svg>