<?xml version="1.0" encoding="UTF-8" standalone="no"?><!-- Generator: Gravit.io --><svg xmlns="http://www.w3.org/2000/svg" xmlns:xlink="http://www.w3.org/1999/xlink" style="isolation:isolate" viewBox="0 0 750 800" width="750pt" height="800pt"><defs><clipPath id="_clipPath_r96QNCLaF4AjLidiVYyrlShGnWianLdv"><rect width="750" height="800"/></clipPath></defs><g clip-path="url(#_clipPath_r96QNCLaF4AjLidiVYyrlShGnWianLdv)"><linearGradient id="_lgradient_0" x1="0.4999999999999999" y1="0" x2="0.5000000000000002" y2="1" gradientTransform="matrix(62.829,0,0,99.902,228.171,131.971)" gradientUnits="userSpaceOnUse"><stop offset="4.1666666666666625%" stop-opacity="1" style="stop-color:rgb(244,242,243)"/><stop offset="62.916666666666664%" stop-opacity="1" style="stop-color:rgb(101,98,86)"/></linearGradient><path d=" M 255.992 162.276 L 255.992 162.276 L 255.992 162.276 Q 254.32 169.382 251.29 177.219 L 251.29 177.219 L 251.29 177.219 Q 248.259 185.057 244.497 191.745 L 244.497 191.745 L 244.497 191.745 Q 244.497 192.163 243.975 193.103 L 243.975 193.103 L 243.975 193.103 Q 243.452 194.044 242.616 194.044 L 242.616 194.044 L 242.616 194.044 Q 242.198 194.044 242.094 192.79 L 242.094 192.79 L 242.094 192.79 Q 241.989 191.536 242.198 191.118 L 242.198 191.118 L 242.198 191.118 Q 242.198 187.774 243.034 182.235 L 243.034 182.235 L 243.034 182.235 Q 243.87 176.697 245.124 173.144 L 245.124 173.144 L 245.124 173.144 Q 245.542 171.89 246.483 167.083 L 246.483 167.083 L 246.483 167.083 Q 247.423 162.276 248.155 156.319 L 248.155 156.319 L 248.155 156.319 Q 248.886 150.363 248.991 144.824 L 248.991 144.824 L 248.991 144.824 Q 249.095 139.286 247.632 136.569 L 247.632 136.569 L 247.632 135.733 L 247.632 135.733 Q 248.468 135.106 249.513 136.151 L 249.513 136.151 L 249.513 136.151 Q 252.23 138.45 253.798 141.794 L 253.798 141.794 L 253.798 141.794 Q 255.365 145.138 256.097 148.795 L 256.097 148.795 L 256.097 148.795 Q 256.828 152.453 256.724 156.006 L 256.724 156.006 L 256.724 156.006 Q 256.619 159.559 255.992 162.276 Z  M 264.143 161.44 L 264.143 161.44 L 264.143 161.44 Q 266.442 158.514 268.532 157.26 L 268.532 157.26 L 268.532 157.26 Q 270.622 156.006 272.712 155.17 L 272.712 155.17 L 272.712 155.17 Q 272.921 155.17 273.757 154.961 L 273.757 154.961 L 273.757 154.961 Q 274.593 154.752 275.011 155.379 L 275.011 155.379 L 275.011 155.379 Q 275.429 156.006 274.802 156.842 L 274.802 156.842 L 274.802 156.842 Q 274.175 157.678 273.757 158.096 L 273.757 158.096 L 273.757 158.096 Q 272.294 159.559 270.518 161.335 L 270.518 161.335 L 270.518 161.335 Q 268.741 163.112 267.278 164.784 L 267.278 164.784 L 267.278 164.784 Q 265.188 167.083 263.934 170.113 L 263.934 170.113 L 263.934 170.113 Q 262.68 173.144 262.053 176.279 L 262.053 176.279 L 262.053 176.279 Q 265.606 172.517 268.846 169.173 L 268.846 169.173 L 268.846 169.173 Q 272.085 165.829 275.847 162.903 L 275.847 162.903 L 275.847 162.903 Q 280.654 159.35 284.207 153.707 L 284.207 153.707 L 284.207 153.707 Q 287.76 148.064 289.223 137.196 L 289.223 137.196 L 289.223 137.196 Q 289.641 136.151 290.268 135.942 L 290.268 135.942 L 290.268 135.942 Q 290.895 135.733 290.895 137.405 L 290.895 137.405 L 290.895 137.405 Q 291.522 149.527 288.387 156.633 L 288.387 156.633 L 288.387 156.633 Q 285.252 163.739 278.982 168.546 L 278.982 168.546 L 278.982 168.546 Q 275.638 171.054 272.294 173.98 L 272.294 173.98 L 272.294 173.98 Q 268.95 176.906 265.92 180.459 L 265.92 180.459 L 265.92 180.459 Q 262.889 184.012 260.381 188.819 L 260.381 188.819 L 260.381 188.819 Q 257.873 193.626 255.992 199.896 L 255.992 199.896 L 255.992 199.896 Q 254.529 204.703 253.066 208.987 L 253.066 208.987 L 253.066 208.987 Q 251.603 213.272 249.931 217.243 L 249.931 217.243 L 249.931 217.243 Q 249.513 218.706 248.677 218.706 L 248.677 218.706 L 248.677 218.706 Q 248.05 218.497 248.05 216.616 L 248.05 216.616 L 248.05 216.616 Q 247.005 206.584 249.409 196.656 L 249.409 196.656 L 249.409 196.656 Q 251.812 186.729 255.156 176.07 L 255.156 176.07 L 255.156 176.07 Q 256.619 170.845 258.605 165.62 L 258.605 165.62 L 258.605 165.62 Q 260.59 160.395 260.381 153.707 L 260.381 153.707 L 260.381 153.707 Q 260.381 151.408 262.262 148.9 L 262.262 148.9 L 262.262 148.9 Q 264.143 146.392 266.86 144.197 L 266.86 144.197 L 266.86 144.197 Q 269.577 142.003 272.503 140.435 L 272.503 140.435 L 272.503 140.435 Q 275.429 138.868 277.519 138.241 L 277.519 138.241 L 277.519 138.241 Q 279.4 137.614 279.4 138.45 L 279.4 138.45 L 279.4 138.45 Q 279.4 139.286 278.146 140.54 L 278.146 140.54 L 278.146 140.54 Q 273.757 144.511 269.264 149.945 L 269.264 149.945 L 269.264 149.945 Q 264.77 155.379 264.143 161.44 Z  M 245.96 231.664 L 245.96 231.664 L 245.96 231.664 Q 245.751 231.873 245.647 231.768 L 245.647 231.768 L 245.647 231.768 Q 245.542 231.664 244.497 231.037 L 244.497 231.037 L 244.497 231.037 Q 238.227 226.439 234.674 221.005 L 234.674 221.005 L 234.674 221.005 Q 231.121 215.571 229.554 209.823 L 229.554 209.823 L 229.554 209.823 Q 227.986 204.076 228.195 198.328 L 228.195 198.328 L 228.195 198.328 Q 228.404 192.581 229.658 187.147 L 229.658 187.147 L 229.658 187.147 Q 231.33 179.832 233.734 172.621 L 233.734 172.621 L 233.734 172.621 Q 236.137 165.411 238.227 158.618 L 238.227 158.618 L 238.227 158.618 Q 240.317 151.826 241.362 145.242 L 241.362 145.242 L 241.362 145.242 Q 242.407 138.659 241.362 132.598 L 241.362 132.598 L 241.362 132.598 Q 241.362 132.18 241.989 131.971 L 241.989 131.971 L 241.989 131.971 Q 242.198 131.971 242.407 132.284 L 242.407 132.284 L 242.407 132.284 Q 242.616 132.598 242.825 132.807 L 242.825 132.807 L 242.825 132.807 Q 246.796 139.495 246.796 146.496 L 246.796 146.496 L 246.796 146.496 Q 246.796 153.498 244.915 160.708 L 244.915 160.708 L 244.915 160.708 Q 243.034 167.919 240.213 175.338 L 240.213 175.338 L 240.213 175.338 Q 237.391 182.758 235.719 190.282 L 235.719 190.282 L 235.719 190.282 Q 233.629 199.896 235.406 210.764 L 235.406 210.764 L 235.406 210.764 Q 237.182 221.632 245.124 230.201 L 245.124 230.201 L 245.124 230.201 Q 245.542 230.828 245.96 231.037 L 245.96 231.037 L 245.96 231.037 Q 246.378 231.246 245.96 231.664 Z  M 252.23 231.873 L 252.23 231.873 L 252.23 231.873 Q 251.812 231.873 251.394 231.664 L 251.394 231.664 L 250.558 231.246 L 250.558 231.246 Q 247.632 229.365 245.333 227.17 L 245.333 227.17 L 245.333 227.17 Q 243.034 224.976 241.362 220.796 L 241.362 220.796 L 241.362 220.796 Q 240.735 219.333 240.317 216.929 L 240.317 216.929 L 240.317 216.929 Q 239.899 214.526 239.795 212.436 L 239.795 212.436 L 239.795 212.436 Q 239.69 210.346 240.004 208.883 L 240.004 208.883 L 240.004 208.883 Q 240.317 207.42 241.153 207.629 L 241.153 207.629 L 241.153 207.629 Q 241.78 207.629 242.512 209.301 L 242.512 209.301 L 242.512 209.301 Q 243.243 210.973 243.661 212.645 L 243.661 212.645 L 243.661 212.645 Q 244.079 214.944 244.602 217.034 L 244.602 217.034 L 244.602 217.034 Q 245.124 219.124 245.96 220.796 L 245.96 220.796 L 245.96 220.796 Q 248.259 226.021 252.021 230.828 L 252.021 230.828 L 252.021 230.828 Q 252.439 231.873 252.23 231.873 Z  M 286.297 138.032 L 286.297 138.032 L 286.297 138.032 Q 286.297 142.421 283.789 145.765 L 283.789 145.765 L 283.789 145.765 Q 281.281 149.109 277.728 151.408 L 277.728 151.408 L 277.728 151.408 Q 277.101 151.826 276.892 151.303 L 276.892 151.303 L 276.892 151.303 Q 276.683 150.781 276.683 150.572 L 276.683 150.572 L 276.683 150.572 Q 276.683 149.318 277.728 147.541 L 277.728 147.541 L 277.728 147.541 Q 278.773 145.765 280.132 143.779 L 280.132 143.779 L 280.132 143.779 Q 281.49 141.794 282.744 139.704 L 282.744 139.704 L 282.744 139.704 Q 283.998 137.614 284.416 135.942 L 284.416 135.942 L 284.416 135.942 Q 285.043 134.897 285.67 135.942 L 285.67 135.942 L 285.67 135.942 Q 286.297 136.987 286.297 138.032 Z " fill="url(#_lgradient_0)"/><linearGradient id="_lgradient_1" x1="0.4999999999999999" y1="0" x2="0.5000000000000002" y2="1" gradientTransform="matrix(73.34,0,0,99.094,326.248,110.496)" gradientUnits="userSpaceOnUse"><stop offset="4.1666666666666625%" stop-opacity="1" style="stop-color:rgb(244,242,243)"/><stop offset="62.916666666666664%" stop-opacity="1" style="stop-color:rgb(101,98,86)"/></linearGradient><path d=" M 387.915 123.775 L 387.915 123.775 L 387.915 123.775 Q 389.587 125.865 390.528 129 L 390.528 129 L 390.528 129 Q 391.468 132.135 391.259 135.792 L 391.259 135.792 L 391.259 135.792 Q 391.05 139.45 389.587 143.421 L 389.587 143.421 L 389.587 143.421 Q 388.124 147.392 384.989 151.154 L 384.989 151.154 L 384.989 151.154 Q 378.928 158.26 371.718 162.126 L 371.718 162.126 L 371.718 162.126 Q 364.507 165.993 358.655 165.993 L 358.655 165.993 L 358.655 165.993 Q 355.102 165.993 358.655 164.739 L 358.655 164.739 L 358.655 164.739 Q 360.536 164.112 363.149 162.753 L 363.149 162.753 L 363.149 162.753 Q 365.761 161.395 368.687 159.409 L 368.687 159.409 L 368.687 159.409 Q 371.613 157.424 374.644 154.707 L 374.644 154.707 L 374.644 154.707 Q 377.674 151.99 380.182 148.437 L 380.182 148.437 L 380.182 148.437 Q 384.362 142.585 385.094 137.046 L 385.094 137.046 L 385.094 137.046 Q 385.825 131.508 382.899 128.582 L 382.899 128.582 L 382.899 128.582 Q 380.391 126.074 377.047 125.76 L 377.047 125.76 L 377.047 125.76 Q 373.703 125.447 367.015 129.418 L 367.015 129.418 L 367.015 129.418 Q 360.954 132.971 356.147 138.196 L 356.147 138.196 L 356.147 138.196 Q 351.34 143.421 347.16 149.273 L 347.16 149.273 L 347.16 149.273 Q 344.861 152.199 344.13 152.199 L 344.13 152.199 L 344.13 152.199 Q 343.398 152.199 344.652 148.437 L 344.652 148.437 L 344.652 148.437 Q 347.16 141.122 351.654 134.852 L 351.654 134.852 L 351.654 134.852 Q 356.147 128.582 362.417 124.193 L 362.417 124.193 L 362.417 124.193 Q 367.015 121.058 370.882 119.804 L 370.882 119.804 L 370.882 119.804 Q 374.748 118.55 377.988 118.759 L 377.988 118.759 L 377.988 118.759 Q 381.227 118.968 383.735 120.326 L 383.735 120.326 L 383.735 120.326 Q 386.243 121.685 387.915 123.775 Z  M 399.201 138.405 L 399.201 138.405 L 399.201 138.405 Q 398.365 143.421 396.589 146.869 L 396.589 146.869 L 396.589 146.869 Q 394.812 150.318 392.618 152.721 L 392.618 152.721 L 392.618 152.721 Q 390.423 155.125 388.229 156.588 L 388.229 156.588 L 388.229 156.588 Q 386.034 158.051 384.362 159.305 L 384.362 159.305 L 384.362 159.305 Q 383.526 159.932 383.108 159.514 L 383.108 159.514 L 383.108 159.514 Q 382.69 159.096 383.735 158.051 L 383.735 158.051 L 383.735 158.051 Q 387.497 154.916 391.364 149.586 L 391.364 149.586 L 391.364 149.586 Q 395.23 144.257 395.439 137.778 L 395.439 137.778 L 395.439 137.778 Q 395.439 126.701 390.005 120.849 L 390.005 120.849 L 390.005 120.849 Q 384.571 114.997 376.42 115.728 L 376.42 115.728 L 376.42 115.728 Q 368.269 116.46 359.491 122.103 L 359.491 122.103 L 359.491 122.103 Q 353.848 125.656 349.564 130.358 L 349.564 130.358 L 349.564 130.358 Q 345.279 135.061 342.144 140.39 L 342.144 140.39 L 342.144 140.39 Q 339.009 145.72 337.024 151.363 L 337.024 151.363 L 337.024 151.363 Q 335.038 157.006 334.202 162.649 L 334.202 162.649 L 334.202 162.649 Q 333.366 168.083 332.635 174.353 L 332.635 174.353 L 332.635 174.353 Q 331.903 180.623 332.635 186.684 L 332.635 186.684 L 332.635 186.684 Q 333.366 192.745 336.501 198.283 L 336.501 198.283 L 336.501 198.283 Q 339.636 203.822 346.324 207.793 L 346.324 207.793 L 346.324 207.793 Q 347.369 208.42 348.519 208.629 L 348.519 208.629 L 348.519 208.629 Q 349.668 208.838 349.668 209.047 L 349.668 209.047 L 349.668 209.047 Q 349.668 209.465 348.623 209.569 L 348.623 209.569 L 348.623 209.569 Q 347.578 209.674 346.324 209.256 L 346.324 209.256 L 346.324 209.256 Q 341.099 208.211 337.442 204.971 L 337.442 204.971 L 337.442 204.971 Q 333.784 201.732 331.485 197.552 L 331.485 197.552 L 331.485 197.552 Q 329.186 193.372 327.932 188.774 L 327.932 188.774 L 327.932 188.774 Q 326.678 184.176 326.469 180.414 L 326.469 180.414 L 326.469 180.414 Q 325.215 163.903 331.067 147.81 L 331.067 147.81 L 331.067 147.81 Q 332.321 144.466 334.307 140.286 L 334.307 140.286 L 334.307 140.286 Q 336.292 136.106 339.218 131.821 L 339.218 131.821 L 339.218 131.821 Q 342.144 127.537 346.115 123.461 L 346.115 123.461 L 346.115 123.461 Q 350.086 119.386 355.102 116.251 L 355.102 116.251 L 355.102 116.251 Q 359.909 113.325 365.134 111.862 L 365.134 111.862 L 365.134 111.862 Q 370.359 110.399 375.584 110.503 L 375.584 110.503 L 375.584 110.503 Q 380.809 110.608 385.407 112.384 L 385.407 112.384 L 385.407 112.384 Q 390.005 114.161 393.558 117.714 L 393.558 117.714 L 393.558 117.714 Q 396.693 121.058 398.47 126.283 L 398.47 126.283 L 398.47 126.283 Q 400.246 131.508 399.201 138.405 Z  M 380.182 130.881 L 380.182 130.881 L 380.182 130.881 Q 382.69 133.807 380.809 139.972 L 380.809 139.972 L 380.809 139.972 Q 378.928 146.138 372.031 152.408 L 372.031 152.408 L 372.031 152.408 Q 368.269 155.961 364.716 158.155 L 364.716 158.155 L 364.716 158.155 Q 361.163 160.35 355.729 162.022 L 355.729 162.022 L 355.729 162.022 Q 353.43 169.964 352.803 177.697 L 352.803 177.697 L 352.803 177.697 Q 352.176 185.43 353.221 190.237 L 353.221 190.237 L 353.221 190.237 Q 353.43 192.118 354.58 193.894 L 354.58 193.894 L 354.58 193.894 Q 355.729 195.671 357.924 196.611 L 357.924 196.611 L 357.924 196.611 Q 360.118 197.552 363.671 197.343 L 363.671 197.343 L 363.671 197.343 Q 367.224 197.134 372.449 195.044 L 372.449 195.044 L 372.449 195.044 Q 373.912 194.417 374.226 194.73 L 374.226 194.73 L 374.226 194.73 Q 374.539 195.044 372.867 196.089 L 372.867 196.089 L 372.867 196.089 Q 369.105 199.015 364.925 200.164 L 364.925 200.164 L 364.925 200.164 Q 360.745 201.314 357.088 200.896 L 357.088 200.896 L 357.088 200.896 Q 353.43 200.478 350.818 198.388 L 350.818 198.388 L 350.818 198.388 Q 348.205 196.298 347.369 192.745 L 347.369 192.745 L 347.369 192.745 Q 345.697 185.43 345.906 177.488 L 345.906 177.488 L 345.906 177.488 Q 346.115 169.546 348.31 161.813 L 348.31 161.813 L 348.31 161.813 Q 350.504 154.08 354.58 147.287 L 354.58 147.287 L 354.58 147.287 Q 358.655 140.495 364.716 135.688 L 364.716 135.688 L 364.716 135.688 Q 376.002 126.701 380.182 130.881 Z  M 378.092 197.552 L 378.092 197.552 L 378.092 197.552 Q 376.629 199.642 374.435 201.627 L 374.435 201.627 L 374.435 201.627 Q 372.24 203.613 369.419 205.18 L 369.419 205.18 L 369.419 205.18 Q 366.597 206.748 363.567 207.793 L 363.567 207.793 L 363.567 207.793 Q 360.536 208.838 357.401 208.838 L 357.401 208.838 L 357.401 208.838 Q 351.967 208.838 347.265 206.434 L 347.265 206.434 L 347.265 206.434 Q 342.562 204.031 340.054 196.716 L 340.054 196.716 L 340.054 196.716 Q 339.636 195.88 339.636 195.148 L 339.636 195.148 L 339.636 195.148 Q 339.636 194.417 340.054 194.417 L 340.054 194.417 L 340.054 194.417 Q 340.89 193.999 341.726 194.939 L 341.726 194.939 L 341.726 194.939 Q 342.562 195.88 343.398 196.925 L 343.398 196.925 L 343.398 196.925 Q 345.697 199.642 349.355 201.732 L 349.355 201.732 L 349.355 201.732 Q 353.012 203.822 356.356 203.822 L 356.356 203.822 L 356.356 203.822 Q 362.626 203.822 367.224 201.941 L 367.224 201.941 L 367.224 201.941 Q 371.822 200.06 376.002 196.925 L 376.002 196.925 L 376.002 196.925 Q 377.047 196.298 378.406 195.671 L 378.406 195.671 L 378.406 195.671 Q 379.764 195.044 378.092 197.552 Z  M 375.166 136.524 L 375.166 136.524 L 375.166 136.524 Q 374.33 134.852 369.105 139.241 L 369.105 139.241 L 369.105 139.241 Q 364.298 143.003 361.477 147.914 L 361.477 147.914 L 361.477 147.914 Q 358.655 152.826 356.565 158.678 L 356.565 158.678 L 356.565 158.678 Q 360.536 156.797 363.88 154.393 L 363.88 154.393 L 363.88 154.393 Q 367.224 151.99 370.15 149.691 L 370.15 149.691 L 370.15 149.691 Q 373.285 146.974 374.748 142.585 L 374.748 142.585 L 374.748 142.585 Q 376.211 138.196 375.166 136.524 Z " fill="url(#_lgradient_1)"/><linearGradient id="_lgradient_2" x1="0.4999999999999999" y1="0" x2="0.5000000000000002" y2="1" gradientTransform="matrix(69.93,-22.725,34.542,106.296,404.636,138.435)" gradientUnits="userSpaceOnUse"><stop offset="4.1666666666666625%" stop-opacity="1" style="stop-color:rgb(244,242,243)"/><stop offset="62.916666666666664%" stop-opacity="1" style="stop-color:rgb(101,98,86)"/></linearGradient><path d=" M 445.108 153.325 L 445.108 153.325 L 445.108 153.325 Q 444.725 151.471 444.911 148.664 L 444.911 148.664 L 444.911 148.664 Q 445.098 145.856 446.045 143.021 L 446.045 143.021 L 446.045 143.021 Q 446.991 140.186 448.763 137.523 L 448.763 137.523 L 448.763 137.523 Q 450.534 134.86 453.322 133.294 L 453.322 133.294 L 453.322 133.294 Q 459.295 130.035 464.115 130.666 L 464.115 130.666 L 464.115 130.666 Q 468.935 131.297 471.962 133.171 L 471.962 133.171 L 471.962 133.171 Q 473.144 134.105 473.01 134.368 L 473.01 134.368 L 473.01 134.368 Q 472.742 134.895 471.554 134.622 L 471.554 134.622 L 471.554 134.622 Q 470.103 134.214 467.226 134.49 L 467.226 134.49 L 467.226 134.49 Q 464.349 134.766 461.365 136.065 L 461.365 136.065 L 461.365 136.065 Q 458.381 137.364 456.015 139.891 L 456.015 139.891 L 456.015 139.891 Q 453.65 142.418 453.024 146.577 L 453.024 146.577 L 453.024 146.577 Q 452.532 150.473 453.098 154.244 L 453.098 154.244 L 453.098 154.244 Q 453.664 158.016 454.566 161.129 L 454.566 161.129 L 454.566 161.129 Q 455.468 164.242 456.377 166.364 L 456.377 166.364 L 456.377 166.364 Q 457.286 168.486 457.545 169.281 L 457.545 169.281 L 457.545 169.281 Q 458.653 171.338 460.017 174.521 L 460.017 174.521 L 460.017 174.521 Q 461.381 177.704 462.479 181.083 L 462.479 181.083 L 462.479 181.083 Q 463.577 184.462 464.444 187.806 L 464.444 187.806 L 464.444 187.806 Q 465.311 191.151 465.49 193.73 L 465.49 193.73 L 465.49 193.73 Q 465.485 194.391 465.639 195.879 L 465.639 195.879 L 465.639 195.879 Q 465.793 197.367 465.395 197.496 L 465.395 197.496 L 465.395 197.496 Q 464.401 197.819 463.949 196.428 L 463.949 196.428 L 463.949 196.428 Q 463.497 195.037 463.303 194.44 L 463.303 194.44 L 463.303 194.44 Q 461.291 189.6 458.65 184.855 L 458.65 184.855 L 458.65 184.855 Q 456.009 180.109 453.37 175.033 L 453.37 175.033 L 453.37 175.033 Q 450.732 169.957 448.558 164.62 L 448.558 164.62 L 448.558 164.62 Q 446.384 159.283 445.108 153.325 Z  M 450.94 194.942 L 450.94 194.942 L 450.94 194.942 Q 449.847 190.902 446.595 183.937 L 446.595 183.937 L 446.595 183.937 Q 443.343 176.973 440.441 167.367 L 440.441 167.367 L 440.441 167.367 Q 439.025 162.334 438.108 156.808 L 438.108 156.808 L 438.108 156.808 Q 437.192 151.282 438.494 145.145 L 438.494 145.145 L 438.494 145.145 Q 439.866 138.546 443.863 134.28 L 443.863 134.28 L 443.863 134.28 Q 447.861 130.015 451.504 129.051 L 451.504 129.051 L 451.504 129.051 Q 452.1 128.857 452.696 128.663 L 452.696 128.663 L 452.696 128.663 Q 453.293 128.469 453.357 128.668 L 453.357 128.668 L 453.357 128.668 Q 453.486 129.066 453.255 129.031 L 453.255 129.031 L 453.255 129.031 Q 453.024 128.996 451.961 129.781 L 451.961 129.781 L 451.961 129.781 Q 448.706 131.938 446.666 135.128 L 446.666 135.128 L 446.666 135.128 Q 444.626 138.318 443.607 141.945 L 443.607 141.945 L 443.607 141.945 Q 442.588 145.573 442.429 149.141 L 442.429 149.141 L 442.429 149.141 Q 442.27 152.709 442.911 155.357 L 442.911 155.357 L 442.911 155.357 Q 445.271 166.677 449.311 174.374 L 449.311 174.374 L 449.311 174.374 Q 452.436 180.611 455.325 187.473 L 455.325 187.473 L 455.325 187.473 Q 458.215 194.336 459.027 200.555 L 459.027 200.555 L 459.027 200.555 Q 459.839 206.774 458.018 211.651 L 458.018 211.651 L 458.018 211.651 Q 456.196 216.528 449.965 218.992 L 449.965 218.992 L 449.965 218.992 Q 449.369 219.186 448.442 219.377 L 448.442 219.377 L 448.442 219.377 Q 447.515 219.569 447.386 219.171 L 447.386 219.171 L 447.386 219.171 Q 447.257 218.774 448.723 217.198 L 448.723 217.198 L 448.723 217.198 Q 453.116 213.134 453.22 208.045 L 453.22 208.045 L 453.22 208.045 Q 453.325 202.957 450.94 194.942 Z  M 437.492 225.243 L 437.492 225.243 L 437.492 225.243 Q 441.696 228.712 448.437 228.829 L 448.437 228.829 L 448.437 228.829 Q 455.177 228.946 462.751 223.848 L 462.751 223.848 L 462.751 223.848 Q 466.537 221.299 468.749 217.284 L 468.749 217.284 L 468.749 217.284 Q 470.96 213.269 471.852 208.913 L 471.852 208.913 L 471.852 208.913 Q 472.744 204.558 472.546 200.227 L 472.546 200.227 L 472.546 200.227 Q 472.347 195.897 471.448 192.453 L 471.448 192.453 L 471.448 192.453 Q 469.838 186.823 467.597 181.617 L 467.597 181.617 L 467.597 181.617 Q 465.356 176.412 463.013 171.57 L 463.013 171.57 L 463.013 171.57 Q 460.67 166.727 458.623 162.118 L 458.623 162.118 L 458.623 162.118 Q 456.576 157.509 455.488 152.808 L 455.488 152.808 L 455.488 152.808 Q 454.271 147.71 455.816 144.351 L 455.816 144.351 L 455.816 144.351 Q 457.362 140.992 460.614 139.166 L 460.614 139.166 L 460.614 139.166 Q 463.867 137.34 468.031 137.305 L 468.031 137.305 L 468.031 137.305 Q 472.195 137.27 476.215 138.821 L 476.215 138.821 L 476.215 138.821 Q 477.139 138.96 477.134 139.621 L 477.134 139.621 L 477.134 139.621 Q 477.263 140.019 476.801 139.949 L 476.801 139.949 L 476.801 139.949 Q 476.339 139.879 475.877 139.81 L 475.877 139.81 L 475.877 139.81 Q 467.747 139.814 463.996 142.132 L 463.996 142.132 L 463.996 142.132 Q 460.244 144.45 461.849 150.741 L 461.849 150.741 L 461.849 150.741 Q 463.776 158.026 468.4 167.182 L 468.4 167.182 L 468.4 167.182 Q 473.023 176.338 476.437 188.194 L 476.437 188.194 L 476.437 188.194 Q 477.927 192.105 478.514 197.628 L 478.514 197.628 L 478.514 197.628 Q 479.1 203.152 478.198 208.829 L 478.198 208.829 L 478.198 208.829 Q 477.296 214.506 474.448 219.607 L 474.448 219.607 L 474.448 219.607 Q 471.601 224.708 466.358 227.51 L 466.358 227.51 L 466.358 227.51 Q 456.34 232.524 449.175 231.775 L 449.175 231.775 L 449.175 231.775 Q 442.009 231.027 437.353 226.167 L 437.353 226.167 L 437.353 226.167 Q 436.568 225.104 436.503 224.905 L 436.503 224.905 L 436.702 224.841 L 436.702 224.841 Q 436.702 224.841 437.492 225.243 Z  M 446.238 222.401 L 446.238 222.401 L 446.238 222.401 Q 450.338 222.168 455.64 220.225 L 455.64 220.225 L 455.64 220.225 Q 457.364 219.445 459.69 217.81 L 459.69 217.81 L 459.69 217.81 Q 462.015 216.175 462.343 216.508 L 462.343 216.508 L 462.343 216.508 Q 463.198 217.109 461.797 218.883 L 461.797 218.883 L 461.797 218.883 Q 460.395 220.657 457.903 222.456 L 457.903 222.456 L 457.903 222.456 Q 455.411 224.255 452.526 225.522 L 452.526 225.522 L 452.526 225.522 Q 449.642 226.789 447.396 226.64 L 447.396 226.64 L 447.396 226.64 Q 443.102 226.277 440.799 224.938 L 440.799 224.938 L 440.799 224.938 Q 438.496 223.598 436.2 221.268 L 436.2 221.268 L 435.545 220.602 L 435.545 220.602 Q 434.889 219.936 435.023 219.673 L 435.023 219.673 L 435.023 219.673 Q 435.157 219.409 435.619 219.479 L 435.619 219.479 L 435.619 219.479 Q 435.882 219.613 435.947 219.812 L 435.947 219.812 L 435.947 219.812 Q 439.043 221.223 441.088 221.767 L 441.088 221.767 L 441.088 221.767 Q 443.132 222.312 446.238 222.401 Z " fill="url(#_lgradient_2)"/><linearGradient id="_lgradient_3" x1="0.4999999999999999" y1="0" x2="0.5000000000000002" y2="1" gradientTransform="matrix(105.25,12.796,-20.874,171.69,513.358,118.155)" gradientUnits="userSpaceOnUse"><stop offset="4.1666666666666625%" stop-opacity="1" style="stop-color:rgb(244,242,243)"/><stop offset="62.916666666666664%" stop-opacity="1" style="stop-color:rgb(101,98,86)"/></linearGradient><path d=" M 558.142 179.107 L 558.142 179.107 L 558.142 179.107 Q 553.126 190.919 547.102 203.24 L 547.102 203.24 L 547.102 203.24 Q 541.077 215.561 534.918 226.392 L 534.918 226.392 L 534.918 226.392 Q 534.635 226.989 533.499 228.535 L 533.499 228.535 L 533.499 228.535 Q 532.364 230.081 531.767 229.798 L 531.767 229.798 L 531.767 229.798 Q 531.352 229.748 531.488 227.764 L 531.488 227.764 L 531.488 227.764 Q 531.624 225.781 531.957 224.768 L 531.957 224.768 L 531.957 224.768 Q 532.7 222.122 534.009 218.281 L 534.009 218.281 L 534.009 218.281 Q 535.318 214.44 536.757 210.404 L 536.757 210.404 L 536.757 210.404 Q 538.195 206.368 539.608 202.539 L 539.608 202.539 L 539.608 202.539 Q 541.02 198.711 542.411 195.932 L 542.411 195.932 L 542.411 195.932 Q 542.977 194.738 544.519 190.715 L 544.519 190.715 L 544.519 190.715 Q 546.061 186.691 548.012 181.033 L 548.012 181.033 L 548.012 181.033 Q 549.963 175.376 552.119 168.9 L 552.119 168.9 L 552.119 168.9 Q 554.275 162.425 555.965 156.315 L 555.965 156.315 L 555.965 156.315 Q 557.655 150.204 558.701 145.068 L 558.701 145.068 L 558.701 145.068 Q 559.746 139.931 559.452 137.158 L 559.452 137.158 L 559.452 137.158 Q 559.082 135.008 559.704 135.084 L 559.704 135.084 L 559.704 135.084 Q 560.119 135.134 560.367 135.691 L 560.367 135.691 L 560.367 135.691 Q 560.615 136.247 560.98 136.712 L 560.98 136.712 L 560.98 136.712 Q 562.6 140.699 563.086 146.232 L 563.086 146.232 L 563.086 146.232 Q 563.571 151.765 563.072 157.6 L 563.072 157.6 L 563.072 157.6 Q 562.573 163.434 561.245 169.168 L 561.245 169.168 L 561.245 169.168 Q 559.916 174.901 558.142 179.107 Z  M 555.669 130.172 L 555.669 130.172 L 555.669 130.172 Q 557.08 141.081 554.319 152.535 L 554.319 152.535 L 554.319 152.535 Q 551.558 163.99 546.775 175.62 L 546.775 175.62 L 546.775 175.62 Q 541.993 187.249 536.343 199.09 L 536.343 199.09 L 536.343 199.09 Q 530.692 210.93 526.274 223.025 L 526.274 223.025 L 526.274 223.025 Q 523.448 230.682 521.286 238.946 L 521.286 238.946 L 521.286 238.946 Q 519.123 247.21 518.127 255.405 L 518.127 255.405 L 518.127 255.405 Q 517.13 263.6 517.558 271.337 L 517.558 271.337 L 517.558 271.337 Q 517.986 279.073 520.574 285.494 L 520.574 285.494 L 520.574 285.494 Q 520.888 286.374 520.734 286.776 L 520.734 286.776 L 520.734 286.776 Q 520.58 287.179 519.537 285.367 L 519.537 285.367 L 519.537 285.367 Q 514.899 278.487 513.264 270.288 L 513.264 270.288 L 513.264 270.288 Q 511.63 262.089 512.274 253.325 L 512.274 253.325 L 512.274 253.325 Q 512.918 244.56 515.298 235.375 L 515.298 235.375 L 515.298 235.375 Q 517.678 226.191 521.045 217.547 L 521.045 217.547 L 521.045 217.547 Q 525.671 205.477 530.972 193.91 L 530.972 193.91 L 530.972 193.91 Q 536.273 182.343 541.084 171.348 L 541.084 171.348 L 541.084 171.348 Q 545.894 160.354 549.476 149.946 L 549.476 149.946 L 549.476 149.946 Q 553.057 139.539 554.267 129.58 L 554.267 129.58 L 554.267 129.58 Q 554.394 128.543 554.601 128.568 L 554.601 128.568 L 554.601 128.568 Q 555.431 128.669 555.669 130.172 Z  M 574.31 292.027 L 574.31 292.027 L 574.31 292.027 Q 567.062 287.566 563.406 279.542 L 563.406 279.542 L 563.406 279.542 Q 559.749 271.518 559.897 261.641 L 559.897 261.641 L 559.897 261.641 Q 560.02 251.971 561.827 245.769 L 561.827 245.769 L 561.827 245.769 Q 563.634 239.568 565.843 233.52 L 565.843 233.52 L 565.843 233.52 Q 566.151 232.715 567.013 230.82 L 567.013 230.82 L 567.013 230.82 Q 567.875 228.925 568.439 226.888 L 568.439 226.888 L 568.439 226.888 Q 569.002 224.851 568.88 223.257 L 568.88 223.257 L 568.88 223.257 Q 568.758 221.663 567.356 221.072 L 567.356 221.072 L 567.356 221.072 Q 564.527 220.096 560.402 222.858 L 560.402 222.858 L 560.402 222.858 Q 556.276 225.62 552.273 229.975 L 552.273 229.975 L 552.273 229.975 Q 548.269 234.331 544.851 239.074 L 544.851 239.074 L 544.851 239.074 Q 541.432 243.816 540.249 246.62 L 540.249 246.62 L 540.249 246.62 Q 537.65 252.41 534.919 257.552 L 534.919 257.552 L 534.919 257.552 Q 532.189 262.694 529.873 267.886 L 529.873 267.886 L 529.873 267.886 Q 528.973 270.093 528.584 269.835 L 528.584 269.835 L 528.584 269.835 Q 528.169 269.784 528.166 268.942 L 528.166 268.942 L 528.166 268.942 Q 528.163 268.099 528.289 267.062 L 528.289 267.062 L 528.289 267.062 Q 529.298 258.763 531.565 250.512 L 531.565 250.512 L 531.565 250.512 Q 533.831 242.26 537.018 234.226 L 537.018 234.226 L 537.018 234.226 Q 540.206 226.192 543.912 218.221 L 543.912 218.221 L 543.912 218.221 Q 547.618 210.25 551.142 202.047 L 551.142 202.047 L 551.142 202.047 Q 555.748 191.869 560.093 181.239 L 560.093 181.239 L 560.093 181.239 Q 564.438 170.609 567.014 158.079 L 567.014 158.079 L 567.014 158.079 Q 567.14 157.042 567.153 156.938 L 567.153 156.938 L 567.153 156.938 Q 567.166 156.834 567.373 156.859 L 567.373 156.859 L 567.373 156.859 Q 567.995 156.935 568.209 158.645 L 568.209 158.645 L 568.209 158.645 Q 568.918 161.468 568.222 166.331 L 568.222 166.331 L 568.222 166.331 Q 567.525 171.194 566.093 176.915 L 566.093 176.915 L 566.093 176.915 Q 564.66 182.636 562.58 188.489 L 562.58 188.489 L 562.58 188.489 Q 560.5 194.342 558.468 198.937 L 558.468 198.937 L 558.468 198.937 Q 562.914 195.267 568.586 193.641 L 568.586 193.641 L 568.586 193.641 Q 574.258 192.014 581.6 193.96 L 581.6 193.96 L 581.6 193.96 Q 589.955 196.239 593.927 201.669 L 593.927 201.669 L 593.927 201.669 Q 597.899 207.1 598.726 214.148 L 598.726 214.148 L 598.726 214.148 Q 599.553 221.196 597.881 228.888 L 597.881 228.888 L 597.881 228.888 Q 596.209 236.58 593.459 243.615 L 593.459 243.615 L 593.459 243.615 Q 591.118 249.015 589.149 253.091 L 589.149 253.091 L 589.149 253.091 Q 587.18 257.168 585.299 260.518 L 585.299 260.518 L 585.299 260.518 Q 583.417 263.869 582.002 266.855 L 582.002 266.855 L 582.002 266.855 Q 580.586 269.841 579.535 273.292 L 579.535 273.292 L 579.535 273.292 Q 578.842 275.524 578.427 275.474 L 578.427 275.474 L 578.427 275.474 Q 578.013 275.423 577.802 274.555 L 577.802 274.555 L 577.802 274.555 Q 577.592 273.688 577.485 272.832 L 577.485 272.832 L 577.485 272.832 Q 576.795 268.117 578.744 261.616 L 578.744 261.616 L 578.744 261.616 Q 580.692 255.116 583.455 247.978 L 583.455 247.978 L 583.455 247.978 Q 586.217 240.839 588.694 233.456 L 588.694 233.456 L 588.694 233.456 Q 591.171 226.072 591.641 219.603 L 591.641 219.603 L 591.641 219.603 Q 592.112 213.133 589.593 207.879 L 589.593 207.879 L 589.593 207.879 Q 587.074 202.625 579.832 199.85 L 579.832 199.85 L 579.832 199.85 Q 576.82 198.642 573.152 198.512 L 573.152 198.512 L 573.152 198.512 Q 569.483 198.382 566.103 199.339 L 566.103 199.339 L 566.103 199.339 Q 562.724 200.297 559.931 202.484 L 559.931 202.484 L 559.931 202.484 Q 557.139 204.671 555.905 207.889 L 555.905 207.889 L 555.905 207.889 Q 560.352 204.219 566.904 202.279 L 566.904 202.279 L 566.904 202.279 Q 573.456 200.338 579.038 202.912 L 579.038 202.912 L 579.038 202.912 Q 584.231 205.227 585.983 209.862 L 585.983 209.862 L 585.983 209.862 Q 587.736 214.496 587.747 217.866 L 587.747 217.866 L 587.747 217.866 Q 587.694 225.229 585.212 230.927 L 585.212 230.927 L 585.212 230.927 Q 582.729 236.626 579.791 241.743 L 579.791 241.743 L 579.791 241.743 Q 579.301 242.315 578.307 243.562 L 578.307 243.562 L 578.307 243.562 Q 577.313 244.81 576.923 244.552 L 576.923 244.552 L 576.923 244.552 Q 576.508 244.502 576.71 242.842 L 576.71 242.842 L 576.71 242.842 Q 576.912 241.182 577.22 240.377 L 577.22 240.377 L 577.22 240.377 Q 578.095 238.378 579.052 233.968 L 579.052 233.968 L 579.052 233.968 Q 580.01 229.558 580.486 224.773 L 580.486 224.773 L 580.486 224.773 Q 580.962 219.989 580.326 215.701 L 580.326 215.701 L 580.326 215.701 Q 579.689 211.413 577.376 209.658 L 577.376 209.658 L 577.376 209.658 Q 574.673 207.645 570.435 207.866 L 570.435 207.866 L 570.435 207.866 Q 566.198 208.088 560.896 211.865 L 560.896 211.865 L 560.896 211.865 Q 556.293 215.095 552.795 219.617 L 552.795 219.617 L 552.795 219.617 Q 549.298 224.14 546.265 231.771 L 546.265 231.771 L 546.265 231.771 Q 547.787 229.641 550.989 225.819 L 550.989 225.819 L 550.989 225.819 Q 554.19 221.997 558.068 218.679 L 558.068 218.679 L 558.068 218.679 Q 561.945 215.361 566.048 213.649 L 566.048 213.649 L 566.048 213.649 Q 570.151 211.937 573.476 214.026 L 573.476 214.026 L 573.476 214.026 Q 575.607 215.548 575.968 218.645 L 575.968 218.645 L 575.968 218.645 Q 576.328 221.741 575.563 225.438 L 575.563 225.438 L 575.563 225.438 Q 574.797 229.135 573.539 232.561 L 573.539 232.561 L 573.539 232.561 Q 572.28 235.987 571.405 237.986 L 571.405 237.986 L 571.405 237.986 Q 568.367 243.933 566.641 251.197 L 566.641 251.197 L 566.641 251.197 Q 564.916 258.461 564.992 265.629 L 564.992 265.629 L 564.992 265.629 Q 565.068 272.797 567.423 279.399 L 567.423 279.399 L 567.423 279.399 Q 569.779 286.002 575.266 291.09 L 575.266 291.09 L 575.266 291.09 Q 577.007 292.354 575.866 292.216 L 575.866 292.216 L 575.866 292.216 Q 574.725 292.077 574.31 292.027 Z  M 579.906 291.023 L 579.906 291.023 L 579.906 291.023 Q 577.203 289.01 574.836 286.827 L 574.836 286.827 L 574.836 286.827 Q 572.47 284.645 570.636 278.948 L 570.636 278.948 L 570.636 278.948 Q 569.851 276.747 569.761 273.157 L 569.761 273.157 L 569.761 273.157 Q 569.671 269.567 569.959 266.338 L 569.959 266.338 L 569.959 266.338 Q 570.246 263.11 570.926 260.982 L 570.926 260.982 L 570.926 260.982 Q 571.605 258.854 572.203 259.137 L 572.203 259.137 L 572.203 259.137 Q 572.618 259.187 572.919 260.171 L 572.919 260.171 L 572.919 260.171 Q 573.22 261.155 573.277 262.425 L 573.277 262.425 L 573.277 262.425 Q 573.333 263.696 573.401 264.862 L 573.401 264.862 L 573.401 264.862 Q 573.47 266.028 573.42 266.443 L 573.42 266.443 L 573.42 266.443 Q 573.695 271.108 574.052 273.363 L 574.052 273.363 L 574.052 273.363 Q 574.41 275.617 575.144 278.232 L 575.144 278.232 L 575.144 278.232 Q 576.401 281.754 577.733 284.653 L 577.733 284.653 L 577.733 284.653 Q 579.064 287.552 581.277 290.137 L 581.277 290.137 L 581.277 290.137 Q 582.213 291.093 581.644 291.444 L 581.644 291.444 L 581.644 291.444 Q 581.075 291.796 579.906 291.023 Z  M 527.213 286.301 L 527.213 286.301 L 527.213 286.301 Q 527.421 286.326 526.877 286.47 L 526.877 286.47 L 526.877 286.47 Q 526.333 286.615 524.931 286.023 L 524.931 286.023 L 524.931 286.023 Q 523.372 284.992 521.886 282.495 L 521.886 282.495 L 521.886 282.495 Q 520.4 279.998 520.17 273.233 L 520.17 273.233 L 520.17 273.233 Q 520.083 270.486 520.55 266.647 L 520.55 266.647 L 520.55 266.647 Q 521.016 262.809 521.744 259.424 L 521.744 259.424 L 521.744 259.424 Q 522.471 256.038 523.396 253.624 L 523.396 253.624 L 523.396 253.624 Q 524.321 251.21 525.126 251.519 L 525.126 251.519 L 525.126 251.519 Q 525.333 251.544 525.39 252.814 L 525.39 252.814 L 525.39 252.814 Q 525.446 254.084 525.464 255.665 L 525.464 255.665 L 525.464 255.665 Q 525.482 257.246 525.293 258.802 L 525.293 258.802 L 525.293 258.802 Q 525.104 260.358 525.028 260.981 L 525.028 260.981 L 525.028 260.981 Q 524.681 265.571 524.727 267.787 L 524.727 267.787 L 524.727 267.787 Q 524.773 270.003 524.942 273.813 L 524.942 273.813 L 524.942 273.813 Q 525.085 277.831 525.524 281.148 L 525.524 281.148 L 525.524 281.148 Q 525.963 284.464 527.213 286.301 Z " fill="url(#_lgradient_3)"/><g><linearGradient id="_lgradient_4" x1="0.4999999999999999" y1="0" x2="0.5000000000000002" y2="1" gradientTransform="matrix(108.396,0,0,209.92,110.604,95.447)" gradientUnits="userSpaceOnUse"><stop offset="4.1666666666666625%" stop-opacity="1" style="stop-color:rgb(244,242,243)"/><stop offset="62.916666666666664%" stop-opacity="1" style="stop-color:rgb(101,98,86)"/></linearGradient><path d=" M 151.829 194.651 Q 151.84 194.488 149.744 202.191 L 149.744 202.191 L 149.744 202.191 Q 147.648 209.895 145.871 215.136 L 145.871 215.136 L 127.953 272.025 L 127.953 272.025 Q 127.387 273.866 126.897 275.151 L 126.897 275.151 L 126.897 275.151 Q 126.407 276.435 126.977 276.278 L 126.977 276.278 L 126.977 276.278 Q 127.316 276.951 128.284 275.459 L 128.284 275.459 L 128.284 275.459 Q 129.253 273.966 130.08 272.513 L 130.08 272.513 L 130.08 272.513 Q 140.099 254.889 147.842 233.446 L 147.842 233.446 L 147.842 233.446 Q 154.499 218.735 158.829 195.472 L 158.829 195.472 L 158.829 195.472 Q 162.628 195.921 162.821 196.035 Q 162.543 198.961 160.799 207.274 L 160.799 207.274 L 160.799 207.274 Q 159.041 215.651 157.296 223.795 L 157.296 223.795 L 157.296 223.795 Q 157.09 224.158 156.897 225.131 L 156.897 225.131 L 156.897 225.131 Q 156.705 226.103 156.552 227.219 L 156.552 227.219 L 156.552 227.219 Q 156.399 228.334 156.492 229.228 L 156.492 229.228 L 156.492 229.228 Q 156.584 230.122 156.766 230.225 L 156.766 230.225 L 156.766 230.225 Q 156.948 230.328 157.27 229.55 L 157.27 229.55 L 157.27 229.55 Q 157.592 228.772 158.07 227.721 L 158.07 227.721 L 158.07 227.721 Q 158.547 226.67 159.024 225.619 L 159.024 225.619 L 159.024 225.619 Q 159.502 224.568 159.708 224.205 L 159.708 224.205 L 159.708 224.205 Q 162.237 218.911 164.992 210.259 L 164.992 210.259 L 164.992 210.259 Q 166.899 205.132 169.091 196.767 L 169.091 196.767 L 169.091 196.767 C 170.735 196.941 172.079 197.128 173.68 197.289 Q 172.861 203.269 170.722 210.752 L 170.722 210.752 L 170.722 210.752 Q 168.535 218.404 166.064 226.135 L 166.064 226.135 L 166.064 226.135 Q 162.278 237.446 157.052 248.539 L 157.052 248.539 L 157.052 248.539 Q 151.827 259.633 145.537 269.64 L 145.537 269.64 L 145.537 269.64 Q 139.246 279.647 132.045 288.296 L 132.045 288.296 L 132.045 288.296 Q 124.845 296.944 117.108 303.364 L 117.108 303.364 L 117.108 303.364 Q 116.228 304.066 115.594 304.547 L 115.594 304.547 L 115.594 304.547 Q 114.96 305.028 115.323 305.234 L 115.323 305.234 L 115.323 305.234 Q 115.868 305.544 116.826 305.127 L 116.826 305.127 L 116.826 305.127 Q 126.665 299.662 135.202 291.412 L 135.202 291.412 L 135.202 291.412 Q 143.739 283.163 150.857 272.545 L 150.857 272.545 L 150.857 272.545 Q 157.976 261.927 163.691 249.549 L 163.691 249.549 L 163.691 249.549 Q 169.406 237.171 173.68 223.733 L 173.68 223.733 L 173.68 223.733 C 176.648 214.852 178.901 207.095 180.816 198.095 Q 151.798 194.73 151.829 194.651 Z  M 110.649 301.615 L 110.649 301.615 L 110.649 301.615 Q 110.909 302.003 112.334 301.611 L 112.334 301.611 L 112.334 301.611 Q 112.904 301.455 113.292 301.195 L 113.292 301.195 L 113.292 301.195 Q 115.415 299.997 117.111 298.918 L 117.111 298.918 L 117.111 298.918 Q 118.807 297.838 120.618 296.344 L 120.618 296.344 L 120.618 296.344 Q 122.429 294.849 124.615 292.485 L 124.615 292.485 L 124.615 292.485 Q 126.8 290.122 129.721 286.253 L 129.721 286.253 L 129.721 286.253 Q 132.022 283.474 134.941 278.762 L 134.941 278.762 L 134.941 278.762 Q 137.86 274.051 140.442 269.509 L 140.442 269.509 L 140.442 269.509 Q 143.025 264.967 144.521 261.49 L 144.521 261.49 L 144.521 261.49 Q 146.017 258.013 145.472 257.703 L 145.472 257.703 L 145.472 257.703 Q 145.108 257.496 143.97 258.652 L 143.97 258.652 L 143.97 258.652 Q 142.832 259.808 141.617 261.522 L 141.617 261.522 L 141.617 261.522 Q 140.403 263.235 139.331 264.91 L 139.331 264.91 L 139.331 264.91 Q 138.258 266.584 137.845 267.311 L 137.845 267.311 L 126.707 283.097 L 126.707 283.097 Q 123.373 287.692 119.7 291.615 L 119.7 291.615 L 119.7 291.615 Q 116.028 295.537 112.173 299.356 L 112.173 299.356 L 112.173 299.356 Q 111.579 299.98 111.023 300.746 L 111.023 300.746 L 111.023 300.746 Q 110.467 301.512 110.649 301.615 L 110.649 301.615 L 110.649 301.615 Z  M 180.816 198.095 C 183.867 197.944 186.82 197.498 189.677 196.767 L 189.677 196.767 L 189.677 196.767 Q 194.171 195.617 196.47 192.064 L 196.47 192.064 L 196.47 192.064 Q 197.306 190.81 197.306 190.601 L 197.306 190.601 L 197.306 190.601 Q 197.306 190.183 196.47 190.601 L 196.47 190.601 L 196.47 190.601 Q 191.036 192.691 185.915 192.273 L 185.915 192.273 L 185.915 192.273 Q 180.795 191.855 175.988 191.019 L 175.988 191.019 L 175.988 191.019 Q 168.046 189.556 160.313 188.929 L 160.313 188.929 L 160.313 188.929 Q 152.58 188.302 145.056 191.019 L 145.056 191.019 L 145.056 191.019 Q 144.638 191.228 144.011 191.437 L 144.011 191.437 L 144.011 191.437 Q 143.384 191.646 143.384 192.064 L 143.384 192.064 L 143.384 192.064 Q 143.384 192.482 144.22 192.796 L 144.22 192.796 L 144.22 192.796 Q 145.056 193.109 145.474 193.318 L 145.474 193.318 L 145.474 193.318 Q 146.728 193.736 147.982 193.945 L 147.982 193.945 L 147.982 193.945 Q 149.236 194.154 150.908 194.572 L 150.908 194.572 L 150.908 194.572 Q 150.904 194.584 150.908 194.572 L 180.816 198.095 L 180.816 198.095 Z  M 204.621 176.389 L 204.621 176.389 L 204.621 176.389 Q 204.621 176.598 204.412 177.121 L 204.412 177.121 L 204.412 177.121 Q 204.203 177.643 203.994 178.061 L 203.994 178.061 L 203.994 178.061 Q 202.74 180.987 200.441 183.077 L 200.441 183.077 L 200.441 183.077 Q 198.142 185.167 195.634 186.63 L 195.634 186.63 L 195.634 186.63 Q 193.126 188.093 190.618 188.72 L 190.618 188.72 L 190.618 188.72 Q 188.11 189.347 186.229 189.138 L 186.229 189.138 L 186.229 189.138 Q 180.586 188.72 174.525 187.153 L 174.525 187.153 L 174.525 187.153 Q 168.464 185.585 163.03 183.495 L 163.03 183.495 L 163.03 183.495 Q 162.821 183.495 161.88 182.868 L 161.88 182.868 L 161.88 182.868 Q 160.94 182.241 160.94 181.823 L 160.94 181.823 L 160.94 181.823 Q 160.94 181.405 161.567 181.196 L 161.567 181.196 L 161.567 181.196 Q 162.194 180.987 162.612 180.778 L 162.612 180.778 L 162.612 180.778 Q 163.866 180.36 165.956 180.151 L 165.956 180.151 L 165.956 180.151 Q 168.046 179.942 170.24 179.942 L 170.24 179.942 L 170.24 179.942 Q 172.435 179.942 174.525 180.047 L 174.525 180.047 L 174.525 180.047 Q 176.615 180.151 178.078 180.36 L 178.078 180.36 L 178.078 180.36 Q 181.422 180.987 185.184 181.092 L 185.184 181.092 L 185.184 181.092 Q 188.946 181.196 192.499 180.778 L 192.499 180.778 L 192.499 180.778 Q 196.052 180.36 198.978 179.315 L 198.978 179.315 L 198.978 179.315 Q 201.904 178.27 203.576 176.389 L 203.576 176.389 L 203.576 176.389 Q 204.621 175.344 204.621 176.389 L 204.621 176.389 L 204.621 176.389 Z  M 206.293 170.119 L 206.293 170.119 L 205.666 170.955 L 205.666 170.955 Q 201.904 176.18 196.783 177.434 L 196.783 177.434 L 196.783 177.434 Q 191.663 178.688 186.02 178.061 L 186.02 178.061 L 186.02 178.061 Q 180.377 177.434 174.42 175.971 L 174.42 175.971 L 174.42 175.971 Q 168.464 174.508 162.821 174.299 L 162.821 174.299 L 162.821 174.299 Q 155.506 173.881 147.982 177.539 L 147.982 177.539 L 147.982 177.539 Q 140.458 181.196 135.024 190.601 L 135.024 190.601 L 135.024 190.601 Q 134.606 191.646 134.188 191.437 L 134.188 191.437 L 134.188 191.437 Q 133.979 191.437 134.083 190.706 L 134.083 190.706 L 134.083 190.706 Q 134.188 189.974 134.397 189.556 L 134.397 189.556 L 134.397 189.556 Q 136.487 183.286 139.622 179.106 L 139.622 179.106 L 139.622 179.106 Q 142.757 174.926 146.414 172.418 L 146.414 172.418 L 146.414 172.418 Q 150.072 169.91 153.938 168.865 L 153.938 168.865 L 153.938 168.865 Q 157.805 167.82 161.567 167.82 L 161.567 167.82 L 161.567 167.82 Q 172.017 145.666 186.124 127.483 L 186.124 127.483 L 186.124 127.483 Q 200.232 109.3 216.743 96.76 L 216.743 96.76 L 216.743 96.76 Q 217.37 96.342 217.892 95.82 L 217.892 95.82 L 217.892 95.82 Q 218.415 95.297 218.833 95.506 L 218.833 95.506 L 218.833 95.506 Q 219.251 95.506 218.624 96.447 L 218.624 96.447 L 218.624 96.447 Q 217.997 97.387 217.788 97.596 L 217.788 97.596 L 217.788 97.596 Q 204.412 112.017 191.767 129.887 L 191.767 129.887 L 191.767 129.887 Q 179.123 147.756 169.091 168.238 L 169.091 168.238 L 169.091 168.238 Q 169.927 168.656 170.867 168.656 L 170.867 168.656 L 170.867 168.656 Q 171.808 168.656 172.644 168.865 L 172.644 168.865 L 172.644 168.865 Q 174.943 163.64 177.764 157.684 L 177.764 157.684 L 177.764 157.684 Q 180.586 151.727 184.139 145.666 L 184.139 145.666 L 184.139 145.666 Q 187.692 139.187 191.976 133.231 L 191.976 133.231 L 191.976 133.231 Q 196.261 127.274 200.545 122.258 L 200.545 122.258 L 200.545 122.258 Q 204.83 117.242 208.383 113.271 L 208.383 113.271 L 208.383 113.271 Q 211.936 109.3 214.026 107.001 L 214.026 107.001 L 214.026 107.001 Q 214.862 106.165 215.593 105.538 L 215.593 105.538 L 215.593 105.538 Q 216.325 104.911 216.743 105.12 L 216.743 105.12 L 216.743 105.12 Q 217.161 105.329 216.743 106.165 L 216.743 106.165 L 216.743 106.165 Q 216.325 107.001 215.907 107.628 L 215.907 107.628 L 215.907 107.628 Q 213.399 112.644 209.741 119.228 L 209.741 119.228 L 209.741 119.228 Q 206.084 125.811 202.008 132.813 L 202.008 132.813 L 202.008 132.813 Q 197.933 139.814 193.962 146.816 L 193.962 146.816 L 193.962 146.816 Q 189.991 153.817 186.856 159.46 L 186.856 159.46 L 186.856 159.46 Q 185.393 162.177 183.825 164.79 L 183.825 164.79 L 183.825 164.79 Q 182.258 167.402 181.004 170.328 L 181.004 170.328 L 181.004 170.328 Q 182.467 170.328 184.139 170.955 L 184.139 170.955 L 184.139 170.955 Q 188.737 161.55 193.857 152.459 L 193.857 152.459 L 193.857 152.459 Q 198.978 143.367 205.039 134.171 L 205.039 134.171 L 205.039 134.171 Q 205.875 133.126 205.979 132.813 L 205.979 132.813 L 205.979 132.813 Q 206.084 132.499 206.502 132.917 L 206.502 132.917 L 206.502 132.917 Q 206.711 133.126 206.293 134.798 L 206.293 134.798 L 206.293 134.798 Q 203.994 140.859 199.5 150.891 L 199.5 150.891 L 199.5 150.891 Q 195.007 160.923 190.409 171.791 L 190.409 171.791 L 190.409 171.791 Q 194.589 172.209 198.351 171.791 L 198.351 171.791 L 198.351 171.791 Q 202.113 171.373 205.666 169.701 L 205.666 169.701 L 205.666 169.701 Q 205.875 169.701 206.084 169.597 L 206.084 169.597 L 206.084 169.597 Q 206.293 169.492 206.293 170.119 L 206.293 170.119 L 206.293 170.119 Z  M 150.699 182.45 L 150.699 182.45 L 150.699 182.45 Q 150.699 183.286 149.34 184.436 L 149.34 184.436 L 149.34 184.436 Q 147.982 185.585 147.564 185.794 L 147.564 185.794 L 141.712 189.765 L 141.712 189.765 Q 140.04 191.437 138.786 192.9 L 138.786 192.9 L 138.786 192.9 Q 137.532 194.363 136.069 196.453 L 136.069 196.453 L 136.069 196.453 Q 135.651 196.871 135.546 197.289 L 135.546 197.289 L 135.546 197.289 Q 135.442 197.707 135.024 197.707 L 135.024 197.707 L 135.024 197.707 Q 134.815 197.707 134.815 196.035 L 134.815 196.035 L 134.815 196.035 Q 134.815 195.199 135.024 194.363 L 135.024 194.363 L 135.024 194.363 Q 136.069 191.437 137.114 189.452 L 137.114 189.452 L 137.114 189.452 Q 138.159 187.466 140.876 185.167 L 140.876 185.167 L 140.876 185.167 Q 141.921 184.331 143.593 183.495 L 143.593 183.495 L 143.593 183.495 Q 145.265 182.659 146.832 182.137 L 146.832 182.137 L 146.832 182.137 Q 148.4 181.614 149.549 181.614 L 149.549 181.614 L 149.549 181.614 Q 150.699 181.614 150.699 182.45 L 150.699 182.45 L 150.699 182.45 Z " fill-rule="evenodd" fill="url(#_lgradient_4)"/></g><g><mask id="_mask_XVzaLXnnp4NALLwvnvPSXmSoI2boSBcF" x="-200%" y="-200%" width="400%" height="400%"><rect x="-200%" y="-200%" width="400%" height="400%" style="fill:white;"/><path d=" M 34.047 426.499 C 57.471 354.955 242.989 272.574 333.128 275.028 C 423.267 277.482 524.89 298.287 613.748 378.434 C 650.514 411.595 704.649 448.019 679.853 496.286 C 667.456 520.42 577.844 582.96 519.213 630.64 C 460.583 678.321 310.424 675.467 260.454 663.181 C 190.785 646.053 10.624 498.043 34.047 426.499 Z " fill="black" stroke="none"/></mask><path d=" M 34.047 426.499 C 57.471 354.955 242.989 272.574 333.128 275.028 C 423.267 277.482 524.89 298.287 613.748 378.434 C 650.514 411.595 704.649 448.019 679.853 496.286 C 667.456 520.42 577.844 582.96 519.213 630.64 C 460.583 678.321 310.424 675.467 260.454 663.181 C 190.785 646.053 10.624 498.043 34.047 426.499 Z " fill="rgb(216,138,32)"/><path d=" M 34.047 426.499 C 57.471 354.955 242.989 272.574 333.128 275.028 C 423.267 277.482 524.89 298.287 613.748 378.434 C 650.514 411.595 704.649 448.019 679.853 496.286 C 667.456 520.42 577.844 582.96 519.213 630.64 C 460.583 678.321 310.424 675.467 260.454 663.181 C 190.785 646.053 10.624 498.043 34.047 426.499 Z " fill="rgb(216,138,32)" mask="url(#_mask_XVzaLXnnp4NALLwvnvPSXmSoI2boSBcF)" vector-effect="non-scaling-stroke" stroke-width="10.847" stroke="rgb(216,138,32)" stroke-linejoin="round" stroke-linecap="round" stroke-miterlimit="4"/></g><g><g><path d=" M 200.131 329.999 C 199.287 329.979 198.428 330.016 197.553 330.112 C 169.558 333.18 165.723 358.682 165.723 358.682 C 165.723 358.682 164.669 351.78 162.463 351.684 C 160.258 351.588 144.055 359.928 144.055 359.928 L 183.077 543.047 L 199.376 541.993 L 199.28 539.979 C 199.28 539.979 224.11 569.892 238.108 559.442 C 252.106 548.992 252.681 507.382 243.477 479.387 C 234.273 451.392 214.715 448.421 214.715 448.421 C 214.715 448.421 229.863 451.105 233.794 417.837 C 237.602 385.608 226.294 330.615 200.131 329.999 L 200.131 329.999 Z  M 192.184 363.188 C 192.963 363.212 193.767 363.386 194.577 363.715 C 195.386 364.045 196.203 364.529 197.003 365.174 C 197.802 365.82 198.587 366.627 199.336 367.6 C 200.086 368.574 200.8 369.714 201.46 371.026 C 202.119 372.338 202.722 373.823 203.251 375.485 C 203.779 377.147 204.232 378.988 204.588 381.012 C 204.945 383.036 205.206 385.243 205.35 387.639 C 205.495 390.036 205.522 392.623 205.415 395.403 C 205.307 398.183 204.971 400.74 204.463 403.087 C 203.956 405.433 203.278 407.568 202.489 409.504 C 201.7 411.441 200.8 413.181 199.848 414.733 C 198.896 416.285 197.891 417.65 196.893 418.842 C 195.895 420.035 194.906 421.053 193.981 421.911 C 193.056 422.768 192.196 423.466 191.462 424.012 C 189.992 425.106 189.02 425.602 189.02 425.602 L 178.762 373.159 C 178.762 373.159 180.559 370.619 183.135 368.102 C 184.424 366.844 185.907 365.59 187.458 364.665 C 188.233 364.202 189.026 363.821 189.819 363.561 C 190.612 363.302 191.405 363.164 192.184 363.188 L 192.184 363.188 Z  M 202.645 470.493 C 203.061 470.487 203.498 470.49 203.954 470.506 C 205.775 470.572 207.89 470.839 210.137 471.491 C 211.261 471.817 212.417 472.239 213.586 472.78 C 214.756 473.321 215.937 473.983 217.112 474.786 C 218.286 475.589 219.435 476.748 220.538 478.184 C 221.641 479.621 222.699 481.334 223.69 483.245 C 224.681 485.155 225.604 487.263 226.442 489.489 C 227.28 491.715 228.032 494.06 228.676 496.442 C 229.32 498.824 229.857 501.243 230.266 503.622 C 230.676 506 230.958 508.337 231.092 510.553 C 231.226 512.77 231.212 514.866 231.03 516.76 C 230.848 518.655 230.499 520.35 229.96 521.764 C 229.69 522.471 229.359 523.081 228.977 523.602 C 228.595 524.123 228.159 524.555 227.68 524.905 C 227.201 525.255 226.678 525.524 226.118 525.717 C 225.558 525.911 224.962 526.029 224.336 526.081 C 223.086 526.183 221.722 526.017 220.307 525.639 C 218.892 525.262 217.426 524.672 215.973 523.932 C 214.52 523.192 213.08 522.301 211.715 521.315 C 210.351 520.33 209.063 519.251 207.915 518.137 C 206.766 517.024 205.759 515.875 204.954 514.751 C 204.148 513.626 203.545 512.523 203.21 511.505 L 197.84 471.047 C 197.84 471.047 198.457 470.878 199.53 470.727 C 200.334 470.614 201.396 470.51 202.645 470.493 L 202.645 470.493 Z " fill="rgb(244,242,243)" vector-effect="non-scaling-stroke" stroke-width="1" stroke="rgb(216,138,32)" stroke-opacity="0.980392" stroke-linejoin="round" stroke-linecap="round" stroke-miterlimit="4"/><mask id="_mask_mqMLMJHEB5JRaum99mfX0GT3VYoi0BKt" x="-200%" y="-200%" width="400%" height="400%"><rect x="-200%" y="-200%" width="400%" height="400%" style="fill:white;"/><path d=" M 214.523 321.675 C 214.523 321.675 257.283 295.693 276.745 294.351 L 282.402 335.672 C 282.402 335.672 262.939 334.138 258.721 334.81 L 269.842 412.468 L 291.606 401.921 L 294.674 447.557 C 294.674 447.557 289.784 451.009 272.527 451.201 L 271.951 491.276 C 271.951 491.276 281.347 492.522 297.262 487.441 L 286.716 593.861 C 286.716 593.861 247.599 579.097 245.586 573.632 C 245.586 573.632 260.83 525.791 253.639 494.152 C 246.449 462.514 229.287 448.42 229.287 448.42 C 229.287 448.42 243.573 422.726 238.971 394.731 C 234.369 366.736 221.905 327.715 214.523 321.675 L 214.523 321.675 Z " fill="black" stroke="none"/></mask><path d=" M 214.523 321.675 C 214.523 321.675 257.283 295.693 276.745 294.351 L 282.402 335.672 C 282.402 335.672 262.939 334.138 258.721 334.81 L 269.842 412.468 L 291.606 401.921 L 294.674 447.557 C 294.674 447.557 289.784 451.009 272.527 451.201 L 271.951 491.276 C 271.951 491.276 281.347 492.522 297.262 487.441 L 286.716 593.861 C 286.716 593.861 247.599 579.097 245.586 573.632 C 245.586 573.632 260.83 525.791 253.639 494.152 C 246.449 462.514 229.287 448.42 229.287 448.42 C 229.287 448.42 243.573 422.726 238.971 394.731 C 234.369 366.736 221.905 327.715 214.523 321.675 L 214.523 321.675 Z " fill="rgb(244,242,243)"/><path d=" M 214.523 321.675 C 214.523 321.675 257.283 295.693 276.745 294.351 L 282.402 335.672 C 282.402 335.672 262.939 334.138 258.721 334.81 L 269.842 412.468 L 291.606 401.921 L 294.674 447.557 C 294.674 447.557 289.784 451.009 272.527 451.201 L 271.951 491.276 C 271.951 491.276 281.347 492.522 297.262 487.441 L 286.716 593.861 C 286.716 593.861 247.599 579.097 245.586 573.632 C 245.586 573.632 260.83 525.791 253.639 494.152 C 246.449 462.514 229.287 448.42 229.287 448.42 C 229.287 448.42 243.573 422.726 238.971 394.731 C 234.369 366.736 221.905 327.715 214.523 321.675 L 214.523 321.675 Z " fill="rgb(244,242,243)" mask="url(#_mask_mqMLMJHEB5JRaum99mfX0GT3VYoi0BKt)" vector-effect="non-scaling-stroke" stroke-width="2" stroke="rgb(216,138,32)" stroke-opacity="0.980392" stroke-linejoin="round" stroke-linecap="round" stroke-miterlimit="4"/><mask id="_mask_14ZwnXh9pzlkbSt73mLuZIDaWBfb8jEk" x="-200%" y="-200%" width="400%" height="400%"><rect x="-200%" y="-200%" width="400%" height="400%" style="fill:white;"/><path d=" M 337.399 313.589 C 335.161 325.278 324.936 333.731 313.034 333.731 C 303.308 333.732 294.288 331.74 290.26 322.887 C 294.451 367.916 302.034 413.476 305.315 458.774 C 308.479 505.369 295.825 595.586 295.825 595.586 C 295.825 595.586 311.74 602.874 323.149 603.833 C 334.558 604.791 353.829 599.805 353.829 599.805 C 348.46 590.697 340.406 488.783 337.53 462.801 C 335.521 412.146 336.62 356.753 337.399 313.589 Z " fill="black" stroke="none"/></mask><path d=" M 337.399 313.589 C 335.161 325.278 324.936 333.731 313.034 333.731 C 303.308 333.732 294.288 331.74 290.26 322.887 C 294.451 367.916 302.034 413.476 305.315 458.774 C 308.479 505.369 295.825 595.586 295.825 595.586 C 295.825 595.586 311.74 602.874 323.149 603.833 C 334.558 604.791 353.829 599.805 353.829 599.805 C 348.46 590.697 340.406 488.783 337.53 462.801 C 335.521 412.146 336.62 356.753 337.399 313.589 Z " fill="rgb(244,242,243)"/><path d=" M 337.399 313.589 C 335.161 325.278 324.936 333.731 313.034 333.731 C 303.308 333.732 294.288 331.74 290.26 322.887 C 294.451 367.916 302.034 413.476 305.315 458.774 C 308.479 505.369 295.825 595.586 295.825 595.586 C 295.825 595.586 311.74 602.874 323.149 603.833 C 334.558 604.791 353.829 599.805 353.829 599.805 C 348.46 590.697 340.406 488.783 337.53 462.801 C 335.521 412.146 336.62 356.753 337.399 313.589 Z " fill="rgb(244,242,243)" mask="url(#_mask_14ZwnXh9pzlkbSt73mLuZIDaWBfb8jEk)" vector-effect="non-scaling-stroke" stroke-width="2" stroke="rgb(216,138,32)" stroke-opacity="0.980392" stroke-linejoin="round" stroke-linecap="round" stroke-miterlimit="4"/><circle vector-effect="non-scaling-stroke" cx="312.64306999999997" cy="305.14341" r="18.62854600000003" fill="rgb(244,242,243)" stroke-width="1.167" stroke="rgb(216,138,32)" stroke-opacity="0.980392" stroke-linejoin="round" stroke-linecap="round" stroke-miterlimit="4"/><mask id="_mask_yQKiWOMk52H8UBuEZKfm3q2aHuaxemIy" x="-200%" y="-200%" width="400%" height="400%"><rect x="-200%" y="-200%" width="400%" height="400%" style="fill:white;"/><path d=" M 432.5 364.852 C 432.5 364.852 431.347 302.346 403.756 290.008 C 376.164 277.67 356.029 296.719 349.114 337.395 C 342.199 378.071 340.843 454.813 348.979 500.235 C 357.114 545.656 369.045 595.687 389.519 601.789 C 409.992 607.89 423.144 576.841 423.144 576.841 C 423.144 576.841 412.704 569.79 417.314 555.283 C 421.924 540.775 433.72 539.283 433.72 539.283 C 433.72 539.283 440.635 432.848 435.889 409.663 C 435.889 409.663 398.061 416.985 380.706 439.627 C 380.706 439.627 376.638 466.202 383.689 468.779 C 390.739 471.355 420.433 455.355 420.433 455.355 C 420.433 455.355 420.433 534.131 401.993 541.317 C 383.553 548.503 370.944 483.964 370.401 479.49 C 369.859 475.015 360.232 388.511 368.368 360.038 C 376.503 331.565 387.35 334.955 391.553 338.616 C 395.756 342.276 403.484 355.971 406.06 376.851 C 408.637 397.731 432.5 364.852 432.5 364.852 L 432.5 364.852 Z " fill="black" stroke="none"/></mask><path d=" M 432.5 364.852 C 432.5 364.852 431.347 302.346 403.756 290.008 C 376.164 277.67 356.029 296.719 349.114 337.395 C 342.199 378.071 340.843 454.813 348.979 500.235 C 357.114 545.656 369.045 595.687 389.519 601.789 C 409.992 607.89 423.144 576.841 423.144 576.841 C 423.144 576.841 412.704 569.79 417.314 555.283 C 421.924 540.775 433.72 539.283 433.72 539.283 C 433.72 539.283 440.635 432.848 435.889 409.663 C 435.889 409.663 398.061 416.985 380.706 439.627 C 380.706 439.627 376.638 466.202 383.689 468.779 C 390.739 471.355 420.433 455.355 420.433 455.355 C 420.433 455.355 420.433 534.131 401.993 541.317 C 383.553 548.503 370.944 483.964 370.401 479.49 C 369.859 475.015 360.232 388.511 368.368 360.038 C 376.503 331.565 387.35 334.955 391.553 338.616 C 395.756 342.276 403.484 355.971 406.06 376.851 C 408.637 397.731 432.5 364.852 432.5 364.852 L 432.5 364.852 Z " fill="rgb(244,242,243)"/><path d=" M 432.5 364.852 C 432.5 364.852 431.347 302.346 403.756 290.008 C 376.164 277.67 356.029 296.719 349.114 337.395 C 342.199 378.071 340.843 454.813 348.979 500.235 C 357.114 545.656 369.045 595.687 389.519 601.789 C 409.992 607.89 423.144 576.841 423.144 576.841 C 423.144 576.841 412.704 569.79 417.314 555.283 C 421.924 540.775 433.72 539.283 433.72 539.283 C 433.72 539.283 440.635 432.848 435.889 409.663 C 435.889 409.663 398.061 416.985 380.706 439.627 C 380.706 439.627 376.638 466.202 383.689 468.779 C 390.739 471.355 420.433 455.355 420.433 455.355 C 420.433 455.355 420.433 534.131 401.993 541.317 C 383.553 548.503 370.944 483.964 370.401 479.49 C 369.859 475.015 360.232 388.511 368.368 360.038 C 376.503 331.565 387.35 334.955 391.553 338.616 C 395.756 342.276 403.484 355.971 406.06 376.851 C 408.637 397.731 432.5 364.852 432.5 364.852 L 432.5 364.852 Z " fill="rgb(244,242,243)" mask="url(#_mask_yQKiWOMk52H8UBuEZKfm3q2aHuaxemIy)" vector-effect="non-scaling-stroke" stroke-width="2" stroke="rgb(216,138,32)" stroke-opacity="0.980392" stroke-linejoin="round" stroke-linecap="round" stroke-miterlimit="4"/><mask id="_mask_s3M6OpgBOOfoEcMB2GUJvkheIrTj1HFi" x="-200%" y="-200%" width="400%" height="400%"><rect x="-200%" y="-200%" width="400%" height="400%" style="fill:white;"/><path d=" M 421.111 290.618 C 421.111 290.618 454.329 299.567 466.125 311.363 L 491.48 442.339 C 491.48 442.339 486.192 329.125 481.853 316.38 C 481.853 316.38 494.463 320.04 502.191 328.853 C 502.191 328.853 517.512 549.995 515.75 555.418 C 513.987 560.842 501.378 569.79 497.581 569.248 L 471.684 430.95 C 471.684 430.95 480.362 574.671 478.599 581.044 C 476.837 587.417 439.144 597.314 436.703 596.772 L 437.788 581.722 C 437.788 581.722 452.295 578.197 455.007 568.028 C 457.719 557.859 455.55 546.605 442.94 538.605 C 442.94 538.605 459.075 339.972 421.111 290.618 Z " fill="black" stroke="none"/></mask><path d=" M 421.111 290.618 C 421.111 290.618 454.329 299.567 466.125 311.363 L 491.48 442.339 C 491.48 442.339 486.192 329.125 481.853 316.38 C 481.853 316.38 494.463 320.04 502.191 328.853 C 502.191 328.853 517.512 549.995 515.75 555.418 C 513.987 560.842 501.378 569.79 497.581 569.248 L 471.684 430.95 C 471.684 430.95 480.362 574.671 478.599 581.044 C 476.837 587.417 439.144 597.314 436.703 596.772 L 437.788 581.722 C 437.788 581.722 452.295 578.197 455.007 568.028 C 457.719 557.859 455.55 546.605 442.94 538.605 C 442.94 538.605 459.075 339.972 421.111 290.618 Z " fill="rgb(244,242,243)"/><path d=" M 421.111 290.618 C 421.111 290.618 454.329 299.567 466.125 311.363 L 491.48 442.339 C 491.48 442.339 486.192 329.125 481.853 316.38 C 481.853 316.38 494.463 320.04 502.191 328.853 C 502.191 328.853 517.512 549.995 515.75 555.418 C 513.987 560.842 501.378 569.79 497.581 569.248 L 471.684 430.95 C 471.684 430.95 480.362 574.671 478.599 581.044 C 476.837 587.417 439.144 597.314 436.703 596.772 L 437.788 581.722 C 437.788 581.722 452.295 578.197 455.007 568.028 C 457.719 557.859 455.55 546.605 442.94 538.605 C 442.94 538.605 459.075 339.972 421.111 290.618 Z " fill="rgb(244,242,243)" mask="url(#_mask_s3M6OpgBOOfoEcMB2GUJvkheIrTj1HFi)" vector-effect="non-scaling-stroke" stroke-width="2" stroke="rgb(216,138,32)" stroke-opacity="0.980392" stroke-linejoin="round" stroke-linecap="round" stroke-miterlimit="4"/><mask id="_mask_9fLngoC1I4jZd6TFAwlhN32413w9TDAS" x="-200%" y="-200%" width="400%" height="400%"><rect x="-200%" y="-200%" width="400%" height="400%" style="fill:white;"/><path d=" M 512.691 332.988 C 512.691 332.988 548.931 347.465 553.342 357.532 L 549.507 377.09 C 549.507 377.09 537.139 372.105 535.03 372.009 L 535.988 410.55 L 550.561 410.262 L 547.493 440.367 L 533.304 439.696 L 532.441 477.278 C 532.441 477.278 544.617 475.84 549.123 468.937 L 544.713 532.118 C 544.713 532.118 530.14 548.704 522.949 550.526 L 512.691 332.988 Z " fill="black" stroke="none"/></mask><path d=" M 512.691 332.988 C 512.691 332.988 548.931 347.465 553.342 357.532 L 549.507 377.09 C 549.507 377.09 537.139 372.105 535.03 372.009 L 535.988 410.55 L 550.561 410.262 L 547.493 440.367 L 533.304 439.696 L 532.441 477.278 C 532.441 477.278 544.617 475.84 549.123 468.937 L 544.713 532.118 C 544.713 532.118 530.14 548.704 522.949 550.526 L 512.691 332.988 Z " fill="rgb(244,242,243)"/><path d=" M 512.691 332.988 C 512.691 332.988 548.931 347.465 553.342 357.532 L 549.507 377.09 C 549.507 377.09 537.139 372.105 535.03 372.009 L 535.988 410.55 L 550.561 410.262 L 547.493 440.367 L 533.304 439.696 L 532.441 477.278 C 532.441 477.278 544.617 475.84 549.123 468.937 L 544.713 532.118 C 544.713 532.118 530.14 548.704 522.949 550.526 L 512.691 332.988 Z " fill="rgb(244,242,243)" mask="url(#_mask_9fLngoC1I4jZd6TFAwlhN32413w9TDAS)" vector-effect="non-scaling-stroke" stroke-width="2" stroke="rgb(216,138,32)" stroke-opacity="0.980392" stroke-linejoin="round" stroke-linecap="round" stroke-miterlimit="4"/><mask id="_mask_NDangTHlIvVeDRyTGIITnTuue79ZGjnM" x="-200%" y="-200%" width="400%" height="400%"><rect x="-200%" y="-200%" width="400%" height="400%" style="fill:white;"/><path d=" M 559.476 362.14 C 559.476 362.14 581.916 373.665 598.864 395.359 L 594.254 416.713 L 583.272 408.578 C 583.272 408.578 575.001 504.844 572.493 510.2 C 569.984 515.556 548.697 529.386 548.697 529.386 L 567.476 400.104 L 555.748 394.003 L 559.476 362.14 Z " fill="black" stroke="none"/></mask><path d=" M 559.476 362.14 C 559.476 362.14 581.916 373.665 598.864 395.359 L 594.254 416.713 L 583.272 408.578 C 583.272 408.578 575.001 504.844 572.493 510.2 C 569.984 515.556 548.697 529.386 548.697 529.386 L 567.476 400.104 L 555.748 394.003 L 559.476 362.14 Z " fill="rgb(244,242,243)"/><path d=" M 559.476 362.14 C 559.476 362.14 581.916 373.665 598.864 395.359 L 594.254 416.713 L 583.272 408.578 C 583.272 408.578 575.001 504.844 572.493 510.2 C 569.984 515.556 548.697 529.386 548.697 529.386 L 567.476 400.104 L 555.748 394.003 L 559.476 362.14 Z " fill="rgb(244,242,243)" mask="url(#_mask_NDangTHlIvVeDRyTGIITnTuue79ZGjnM)" vector-effect="non-scaling-stroke" stroke-width="2" stroke="rgb(216,138,32)" stroke-opacity="0.980392" stroke-linejoin="round" stroke-linecap="round" stroke-miterlimit="4"/><mask id="_mask_YwO03FvVDL6U1yhMZGF8r3NBRD9KDBxQ" x="-200%" y="-200%" width="400%" height="400%"><rect x="-200%" y="-200%" width="400%" height="400%" style="fill:white;"/><path d=" M 601.837 398.697 C 601.837 398.697 648.64 424.164 652.284 446.119 C 655.927 468.074 579.698 507.043 579.698 507.043 L 601.837 398.697 Z " fill="black" stroke="none"/></mask><path d=" M 601.837 398.697 C 601.837 398.697 648.64 424.164 652.284 446.119 C 655.927 468.074 579.698 507.043 579.698 507.043 L 601.837 398.697 Z " fill="rgb(244,242,243)"/><path d=" M 601.837 398.697 C 601.837 398.697 648.64 424.164 652.284 446.119 C 655.927 468.074 579.698 507.043 579.698 507.043 L 601.837 398.697 Z " fill="rgb(244,242,243)" mask="url(#_mask_YwO03FvVDL6U1yhMZGF8r3NBRD9KDBxQ)" vector-effect="non-scaling-stroke" stroke-width="2" stroke="rgb(216,138,32)" stroke-opacity="0.980392" stroke-linejoin="round" stroke-linecap="round" stroke-miterlimit="4"/><mask id="_mask_UrVKprBLRxjp6tglbm2obe4xvtlT5uuk" x="-200%" y="-200%" width="400%" height="400%"><rect x="-200%" y="-200%" width="400%" height="400%" style="fill:white;"/><path d=" M 136.786 363.292 L 176.377 535.351 C 176.377 535.351 75.365 452.101 73.467 419.29 C 71.569 386.478 136.786 363.292 136.786 363.292 Z " fill="black" stroke="none"/></mask><path d=" M 136.786 363.292 L 176.377 535.351 C 176.377 535.351 75.365 452.101 73.467 419.29 C 71.569 386.478 136.786 363.292 136.786 363.292 Z " fill="rgb(244,242,243)"/><path d=" M 136.786 363.292 L 176.377 535.351 C 176.377 535.351 75.365 452.101 73.467 419.29 C 71.569 386.478 136.786 363.292 136.786 363.292 Z " fill="rgb(244,242,243)" mask="url(#_mask_UrVKprBLRxjp6tglbm2obe4xvtlT5uuk)" vector-effect="non-scaling-stroke" stroke-width="2" stroke="rgb(216,138,32)" stroke-opacity="0.980392" stroke-linejoin="round" stroke-linecap="round" stroke-miterlimit="4"/><circle vector-effect="non-scaling-stroke" cx="436.56895" cy="560.8591700000001" r="14.68453199999999" fill="rgb(244,242,243)" stroke-width="0.92" stroke="rgb(216,138,32)" stroke-opacity="0.980392" stroke-linejoin="round" stroke-linecap="round" stroke-miterlimit="4"/></g></g></g></svg>